<?xml version="1.0" encoding="UTF-8"?>
<!DOCTYPE svg PUBLIC "-//W3C//DTD SVG 1.0//EN" "http://www.w3.org/TR/2001/REC-SVG-20010904/DTD/svg10.dtd">
<!-- Creator: CorelDRAW -->
<svg xmlns="http://www.w3.org/2000/svg" xml:space="preserve" width="32.7351in" height="9.5229in" version="1.0" style="shape-rendering:geometricPrecision; text-rendering:geometricPrecision; image-rendering:optimizeQuality; fill-rule:evenodd; clip-rule:evenodd"
viewBox="0 0 9941.34 2892.01"
 xmlns:xlink="http://www.w3.org/1999/xlink"
 xmlns:xodm="http://www.corel.com/coreldraw/odm/2003">
 <defs>
  <style type="text/css">
   <![CDATA[
    .str0 {stroke:#336699;stroke-width:1.2;stroke-miterlimit:22.9256}
    .fil1 {fill:#A1CFDF}
    .fil4 {fill:#003399}
    .fil0 {fill:#336699}
    .fil3 {fill:#392321;fill-rule:nonzero}
    .fil2 {fill:#336699;fill-rule:nonzero}
   ]]>
  </style>
 </defs>
 <g id="Слой_x0020_1">
  <metadata id="CorelCorpID_0Corel-Layer"/>
  <path class="fil0" d="M2167.53 2016.13c-186.56,-464.95 -301.8,-919.87 -1040.29,-907.16 -1056.71,18.18 -1127.24,-131.26 -1127.24,-131.26 56.25,287.37 469.83,394.1 841.46,370.49 577.25,-36.67 593.66,20.15 593.66,20.15 -175.08,-40.41 -413.49,37.41 -785.32,60.3 -354.2,21.81 -503.64,-73.38 -503.64,-73.38 65.36,91.85 174.16,396.42 711.24,274.11 537.07,-122.31 866.59,-34.34 866.59,-34.34 0,0 -278.94,-18.08 -664.16,66.68 -388.69,85.52 -505.55,66.68 -505.55,66.68 138.9,121.46 277.18,164.31 656.63,94.76 628.21,-115.15 723.23,-37.4 723.23,-37.4 -98.09,-27.98 -358.77,21.55 -557.72,71.88 -198.94,50.33 -327.87,53.05 -327.87,53.05 139.53,185.42 922.91,-33.86 1118.98,105.44z"/>
  <path class="fil1" d="M2163.71 1822.69c-10.14,-509.81 -44.97,-968.73 -769,-1222.19 -1165.78,-408.09 -1182.57,-600.49 -1182.57,-600.49 -54.73,337.82 355.41,622.35 772.37,747 647.67,193.62 642.65,262.55 642.65,262.55 -175.57,-115.21 -468.44,-126.48 -885.32,-251.98 -397.13,-119.56 -522.39,-284.44 -522.39,-284.44 32.28,119.17 30.73,458.62 555.8,569.49 101.88,1.64 218.09,1.6 350.94,-0.69 577.49,-9.93 796.88,244.12 950.08,573.07l32.53 73.02c18.85,44 36.94,89.01 54.91,134.66z"/>
  <path class="fil1" d="M7777.63 1822.69c10.14,-509.81 44.99,-968.73 769,-1222.19 1165.78,-408.09 1182.57,-600.49 1182.57,-600.49 54.73,337.82 -355.41,622.35 -772.37,747 -647.67,193.62 -642.65,262.55 -642.65,262.55 175.57,-115.21 468.44,-126.48 885.33,-251.98 397.11,-119.56 522.38,-284.44 522.38,-284.44 -32.28,119.17 -30.73,458.62 -555.8,569.49 -101.88,1.64 -218.09,1.6 -350.94,-0.69 -577.49,-9.92 -796.88,244.13 -950.08,573.08l-32.53 73.01c-18.84,44 -36.94,89.01 -54.91,134.66z"/>
  <path class="fil0" d="M7773.8 2016.13c186.56,-464.95 301.8,-919.87 1040.29,-907.16 1056.71,18.18 1127.24,-131.26 1127.24,-131.26 -56.25,287.37 -469.83,394.1 -841.46,370.49 -577.26,-36.67 -593.66,20.15 -593.66,20.15 175.08,-40.41 413.49,37.41 785.32,60.3 354.2,21.81 503.63,-73.38 503.63,-73.38 -65.36,91.85 -174.16,396.42 -711.24,274.11 -537.07,-122.31 -866.59,-34.34 -866.59,-34.34 0,0 278.94,-18.08 664.16,66.68 388.69,85.52 505.55,66.68 505.55,66.68 -138.9,121.46 -277.18,164.31 -656.63,94.76 -628.21,-115.15 -723.23,-37.4 -723.23,-37.4 98.09,-27.98 358.78,21.55 557.72,71.88 198.94,50.33 327.87,53.05 327.87,53.05 -139.53,185.42 -922.91,-33.86 -1118.98,105.44z"/>
  <path class="fil2 str0" d="M3250.3 2686.27c-5.96,-6.49 -12.14,-12.14 -18.5,-16.94 -6.36,-4.78 -12.91,-8.72 -19.63,-11.79 -6.75,-3.1 -13.86,-5.42 -21.31,-6.96 -7.45,-1.54 -15.27,-2.31 -23.45,-2.31 -6.59,0 -13.08,0.66 -19.49,2 -6.4,1.33 -12.75,3.34 -19.02,6.01 -6.25,2.67 -12.12,5.88 -17.56,9.6 -5.41,3.7 -10.42,7.93 -14.98,12.66 -4.76,4.94 -8.93,10.17 -12.49,15.67 -3.56,5.5 -6.54,11.31 -8.92,17.4 -2.37,6.08 -4.16,12.5 -5.35,19.24 -1.19,6.73 -1.79,13.8 -1.79,21.18 0,5.83 0.35,11.42 1.06,16.77 0.7,5.31 1.77,10.41 3.18,15.26 1.42,4.86 3.19,9.54 5.31,14.01 2.12,4.45 4.6,8.72 7.44,12.81 4.98,7.08 10.55,13.36 16.67,18.82 6.13,5.46 12.84,10.11 20.1,13.93 7.28,3.83 14.86,6.7 22.71,8.61 7.84,1.91 16.01,2.87 24.46,2.87 7.95,0 15.61,-0.83 22.95,-2.46 7.37,-1.65 14.47,-4.12 21.26,-7.4l0 0c6.81,-3.27 13.33,-7.37 19.54,-12.28 6.21,-4.9 12.14,-10.64 17.75,-17.19l2.37 -2.76 0 3.63 0 39.8 0 0.68 -0.56 0.41c-6.33,4.58 -12.91,8.61 -19.71,12.07 -6.76,3.45 -13.79,6.35 -21.05,8.69 -7.23,2.34 -14.62,4.09 -22.13,5.25 -7.57,1.17 -15.25,1.76 -23.02,1.76 -6.69,0 -13.32,-0.51 -19.84,-1.5 -6.56,-1 -13.05,-2.51 -19.47,-4.51 -6.37,-1.98 -12.56,-4.46 -18.54,-7.38 -5.98,-2.92 -11.75,-6.31 -17.33,-10.13l-0.01 -0c-9.24,-6.4 -17.42,-13.57 -24.51,-21.48 -7.09,-7.91 -13.1,-16.58 -18,-25.97l-0.01 0c-4.9,-9.41 -8.59,-19.29 -11.04,-29.61 -2.45,-10.31 -3.68,-21.1 -3.68,-32.34 0,-9.78 0.82,-19.15 2.46,-28.09 1.63,-8.89 4.1,-17.36 7.38,-25.37l-0 -0c3.27,-8.04 7.4,-15.72 12.4,-23.01 5,-7.29 10.86,-14.21 17.6,-20.77l0.01 -0.01c6.49,-6.25 13.34,-11.73 20.53,-16.41 7.2,-4.68 14.75,-8.58 22.64,-11.67l0 -0c7.89,-3.12 16.16,-5.46 24.77,-7.01 8.61,-1.55 17.58,-2.33 26.87,-2.33 7.37,0 14.62,0.57 21.77,1.69 7.14,1.12 14.14,2.8 21.02,5.02 6.91,2.23 13.77,5.06 20.58,8.51 6.82,3.45 13.58,7.51 20.28,12.18l0.58 0.4 0 0.7 0 39.15 0 3.45 -2.33 -2.54zm203.79 190.97l0 -252.18 0 -1.35 1.35 0 194.35 0 1.35 0 0 1.35 0 252.18 0 1.35 -1.35 0 -30.33 0 -1.35 0 0 -1.35 0 -222.27 -131.35 0 0 222.27 0 1.35 -1.35 0 -29.98 0 -1.35 0 0 -1.35zm488.68 -192.38l-38.06 88.04 76.17 0 -38.11 -88.04zm1.23 -70.22l114.69 262.06 0.82 1.88 -2.05 0 -32.51 0 -0.89 0 -0.35 -0.83 -32.38 -76.41 -96.7 0 -32.4 76.41 -0.35 0.83 -0.88 0 -32.45 0 -2.05 0 0.82 -1.88 114.22 -262.06 1.23 -2.81 1.23 2.81zm286.51 169.21l80.42 0 1.35 0 0 1.35 0 27.16 0 1.35 -1.35 0 -80.42 0 -1.35 0 0 -1.35 0 -27.16 0 -1.35 1.35 0zm404.33 103.8l-76.62 -177.13 -30.88 166.96 -0.2 1.1 -1.12 0 -29.28 0 -1.64 0 0.31 -1.6 51.15 -262.06 0.84 -4.32 1.72 4.05 86.95 205.59 86.95 -205.59 1.71 -4.06 0.84 4.32 51.13 262.06 0.31 1.6 -1.63 0 -29.27 0 -1.12 0 -0.21 -1.1 -31.23 -166.96 -76.26 177.12 -1.23 2.85 -1.23 -2.85zm411.89 -202.79l-38.05 88.04 76.17 0 -38.12 -88.04zm1.23 -70.22l114.69 262.06 0.82 1.88 -2.05 0 -32.51 0 -0.89 0 -0.35 -0.83 -32.39 -76.41 -96.7 0 -32.4 76.41 -0.35 0.83 -0.88 0 -32.45 0 -2.05 0 0.82 -1.88 114.22 -262.06 1.22 -2.81 1.23 2.81zm291.16 262.6l0 -252.18 0 -1.35 1.35 0 132.97 0 1.35 0 0 1.35 0 27.51 0 1.35 -1.35 0 -101.65 0 0 69.61 101.65 0 1.35 0 0 1.35 0 27.88 0 1.35 -1.35 0 -101.65 0 0 93.95 101.65 0 1.35 0 0 1.35 0 27.86 0 1.35 -1.35 0 -132.97 0 -1.35 0 0 -1.35zm336.72 0l0 -252.18 0 -1.35 1.35 0 29.98 0 1.35 0 0 1.35 0 95.65 131.35 0 0 -95.65 0 -1.35 1.35 0 30.33 0 1.35 0 0 1.35 0 252.18 0 1.35 -1.35 0 -30.33 0 -1.35 0 0 -1.35 0 -125.27 -131.35 0 0 125.27 0 1.35 -1.35 0 -29.98 0 -1.35 0 0 -1.35zm451.76 0l0 -222.28 -69.9 0 -1.35 0 0 -1.35 0 -28.56 0 -1.35 1.35 0 172.48 0 1.35 0 0 1.35 0 28.56 0 1.35 -1.35 0 -69.55 0 0 222.28 0 1.35 -1.35 0 -30.33 0 -1.35 0 0 -1.35zm342.95 -192.38l-38.05 88.04 76.17 0 -38.11 -88.04zm1.23 -70.22l114.68 262.06 0.82 1.88 -2.05 0 -32.51 0 -0.89 0 -0.35 -0.83 -32.38 -76.41 -96.7 0 -32.4 76.41 -0.35 0.83 -0.88 0 -32.45 0 -2.05 0 0.82 -1.88 114.23 -262.06 1.22 -2.81 1.23 2.81zm291.16 262.6l0 -252.18 0 -1.35 1.35 0 29.63 0 1.35 0 0 1.35 0 108.78 103.55 -109.7 0.4 -0.43 0.58 0 35.79 0 3.13 0 -2.16 2.27 -107.26 112.63 118.01 137.76 1.9 2.22 -2.92 0 -38.74 0 -0.63 0 -0.4 -0.48 -111.26 -132.89 0 132.03 0 1.35 -1.35 0 -29.63 0 -1.35 0 0 -1.35z"/>
  <path class="fil3" d="M2925.96 1912.15c-1.31,-94.41 -0.34,-185.2 2.96,-272.4 3.27,-87.19 8.84,-177.33 16.7,-270.44 1.32,-10.47 2.63,-30.8 3.93,-60.96 1.32,-30.15 2.64,-64.91 3.93,-104.24 1.32,-39.33 2.3,-80.64 2.96,-123.91 0.66,-43.26 1.31,-82.93 1.96,-118.99 0.66,-36.06 0.98,-66.54 0.98,-91.45 0,-24.92 -0.66,-38.04 -1.96,-39.33 -5.24,2.61 -11.81,16.06 -19.67,40.31 -7.87,24.24 -15.41,52.11 -22.61,83.59 -7.22,31.47 -13.77,61.95 -19.68,91.44 -5.9,29.51 -10.15,50.17 -12.79,61.96 -10.47,52.46 -19.67,100.95 -27.53,145.55 -7.86,44.58 -16.39,95.06 -25.56,151.43 -9.18,55.07 -15.09,108.84 -17.7,161.27 -2.62,52.46 -6.55,104.91 -11.8,157.35 -2.62,24.92 -7.21,51.46 -13.76,79.66 -6.57,28.19 -9.84,54.09 -9.84,77.68 0,10.49 1.31,18.04 3.93,22.61 2.61,4.59 6.22,7.21 10.81,7.86 4.59,0.66 10.84,0.66 18.7,0 7.86,-0.65 17.04,-0.97 27.53,-0.97 11.8,0 26.56,0.66 44.26,1.97 17.7,1.31 32.44,1.31 44.24,0zm2677.88 225.64c1.32,22.29 2.95,38.67 4.93,49.16 1.95,10.5 14.08,15.08 36.38,13.78 17.04,-1.32 30.47,-3.28 40.31,-5.91 9.84,-2.62 16.06,-11.8 18.68,-27.54 1.31,-9.17 2.95,-21.29 4.93,-36.38 1.95,-15.08 3.27,-30.81 3.93,-47.21 0.65,-16.38 1.31,-32.45 1.97,-48.19 0.66,-15.72 0.98,-28.83 0.98,-39.33 1.31,-14.42 2.61,-32.76 3.93,-55.07 1.31,-22.28 2.29,-45.55 2.95,-69.81 0.66,-24.27 1.64,-47.87 2.95,-70.8 1.32,-22.96 1.98,-42.29 1.98,-58.03 1.31,-34.08 2.29,-65.23 2.95,-93.42 0.65,-28.2 2.94,-57.37 6.88,-87.52 13.11,-82.61 20.65,-171.11 22.63,-265.52 1.95,-94.4 7.54,-184.88 16.71,-271.42 0,-5.25 0.98,-16.72 2.96,-34.41 1.95,-17.71 4.25,-36.72 6.88,-57.05 2.61,-20.33 5.25,-39.01 7.86,-56.05 2.63,-17.04 4.59,-26.88 5.91,-29.49l80.63 946.01c1.32,19.67 3.27,46.22 5.91,79.65 2.61,33.45 5.24,67.53 7.86,102.29 2.62,34.74 4.59,67.84 5.9,99.31 1.32,31.47 1.98,55.73 1.98,72.77 0,14.43 2.61,25.25 7.86,32.45 5.24,7.22 12.13,12.13 20.66,14.75 8.51,2.63 18.02,3.61 28.5,2.96 10.5,-0.66 21.64,-1.64 33.45,-2.96 2.61,0 10.15,-0.34 22.61,-0.98 12.45,-0.65 25.57,-1.64 39.33,-2.95 13.77,-1.31 26.56,-2.29 38.36,-2.95 11.8,-0.66 17.69,-1 17.69,-1 1.32,-7.86 0.34,-25.23 -2.95,-52.12 -3.27,-26.87 -6.88,-55.73 -10.81,-86.54 -3.93,-30.8 -8.2,-60.64 -12.79,-89.47 -4.59,-28.86 -8.2,-49.17 -10.81,-60.98 -6.57,-32.79 -10.18,-66.54 -10.84,-101.29 -0.65,-34.76 -4.9,-70.48 -12.76,-107.19 -9.19,-38.03 -14.11,-74.41 -14.77,-109.17 -0.66,-34.74 -4.27,-70.47 -10.81,-107.19 -6.56,-38.01 -10.49,-73.75 -11.81,-107.19 -1.32,-33.42 -4.59,-69.16 -9.84,-107.19 -10.49,-69.48 -19.34,-142.59 -26.55,-219.3 -7.21,-76.7 -12.79,-152.41 -16.73,-227.15 -2.61,-38.04 -6.88,-76.71 -12.76,-116.04 -5.91,-39.33 -10.18,-74.09 -12.79,-104.25 0,-7.86 -0.66,-22.28 -1.98,-43.26 -1.31,-20.98 -2.95,-42.6 -4.91,-64.91 -1.96,-22.29 -3.61,-42.28 -4.91,-59.99 -1.32,-17.69 -1.98,-27.2 -1.98,-28.5 -10.49,-6.57 -26.54,-10.18 -48.19,-10.83 -21.62,-0.65 -39,0.34 -52.11,2.96 -18.36,2.63 -33.77,6.88 -46.22,12.77 -12.46,5.91 -20,18.04 -22.61,36.38 -3.93,28.86 -8.86,60.65 -14.75,95.4 -5.9,34.74 -9.5,67.19 -10.82,97.36 -2.61,64.25 -9.17,130.8 -19.67,199.62 -10.49,68.84 -17.04,137.35 -19.67,205.53 -7.87,48.51 -14.42,104.24 -19.67,167.18 -5.25,62.94 -9.18,124.23 -11.81,183.88 -2.61,59.66 -5.56,113.76 -8.86,162.25 -3.27,48.53 -6.88,82.61 -10.81,102.29 -2.61,9.17 -4.59,22.95 -5.9,41.3 -1.32,18.36 -2.62,38.35 -3.93,59.98 -1.32,21.64 -2.3,42.29 -2.96,61.96 -0.65,19.67 -0.97,35.4 -0.97,47.21 1.29,5.24 0.97,21.31 -1,48.18 -1.97,26.89 -4.25,56.06 -6.88,87.52 -2.62,31.47 -4.91,60.98 -6.89,88.52 -1.95,27.53 -2.95,45.24 -2.95,53.1zm1194.87 -1319.7c13.1,5.24 25.23,20.97 36.38,47.19 11.15,26.23 21.3,58.68 30.49,97.36 9.18,38.69 17.04,80.97 23.6,126.87 6.55,45.87 12.45,90.79 17.7,134.71 5.24,43.94 9.17,84.9 11.8,122.92 2.61,38.03 4.58,68.19 5.9,90.47 3.93,27.54 6.88,52.12 8.86,73.75 1.95,21.64 2.94,42.95 2.94,63.92 0,20.99 0,42.29 0,63.92 0,21.63 0,46.87 0,75.72 0,19.67 -0.98,42.29 -2.94,67.86 -1.98,25.57 -4.93,52.12 -8.86,79.66 -3.93,27.53 -8.86,53.75 -14.75,78.66 -5.91,24.92 -11.47,45.9 -16.72,62.94 -2.61,7.86 -5.25,18.04 -7.86,30.49 -2.62,12.46 -5.91,24.58 -9.84,36.38 -3.94,11.8 -9.18,21.97 -15.73,30.49 -6.56,8.52 -15.74,12.79 -27.54,12.79 -1.31,-2.64 -2.95,-20.66 -4.9,-54.1 -1.98,-33.42 -3.94,-69.82 -5.91,-109.15 -1.97,-39.33 -3.28,-76.7 -3.93,-112.1 -0.66,-35.4 -1,-56.39 -1,-62.94 1.32,-48.51 1,-95.72 -0.97,-141.61 -1.98,-45.9 -4.59,-91.45 -7.87,-136.69 -3.28,-45.24 -6.23,-91.45 -8.84,-138.66 -2.64,-47.21 -3.93,-96.38 -3.93,-147.51 0,-43.26 -0.34,-87.52 -1,-132.76 -0.66,-45.23 -0.98,-86.54 -0.98,-123.89 0,-37.38 0.32,-68.51 0.98,-93.43 0.66,-24.92 2.29,-39.33 4.93,-43.26zm-123.92 1372.81c57.69,13.11 107.52,12.13 149.48,-2.95 41.96,-15.08 77.69,-39.34 107.19,-72.78 29.51,-33.42 52.78,-73.41 69.83,-119.96 17.03,-46.56 28.83,-95.4 35.39,-146.53 7.87,-62.94 12.46,-127.51 13.77,-193.72 1.32,-66.21 0.32,-130.8 -2.95,-193.72 -3.27,-62.94 -7.54,-122.92 -12.79,-179.97 -5.24,-57.03 -9.83,-107.83 -13.76,-152.41 -2.64,-11.8 -6.57,-21.32 -11.81,-28.52 -5.25,-7.21 -9.18,-20 -11.8,-38.35 -3.93,-18.36 -9.5,-39.33 -16.72,-62.94 -7.2,-23.6 -15.73,-47.21 -25.57,-70.8 -9.83,-23.61 -19.99,-46.22 -30.48,-67.85 -10.49,-21.63 -19.67,-39.01 -27.54,-52.12 -7.86,-13.11 -19.99,-31.15 -36.38,-54.08 -16.39,-22.95 -29.83,-40.33 -40.31,-52.12 -10.49,-13.11 -16.72,-35.4 -18.68,-66.87 -1.97,-31.47 -2.29,-63.26 -1,-95.4 1.32,-32.12 2.64,-61.29 3.94,-87.52 1.31,-26.22 0,-41.3 -3.94,-45.23 -5.24,-5.25 -14.08,-9.5 -26.54,-12.79 -12.45,-3.27 -26.22,-5.91 -41.31,-7.86 -15.08,-1.98 -29.82,-2.95 -44.25,-2.95 -14.42,0 -26.22,0.65 -35.4,1.97 -2.62,9.18 -3.93,24.92 -3.93,47.19 0,22.3 0.65,45.58 1.96,69.83 1.32,24.26 2.29,46.21 2.95,65.88 0.66,19.67 0.98,31.47 0.98,35.4 -1.31,6.56 -2.29,19.34 -2.95,38.35 -0.65,19.02 -0.98,39.99 -0.98,62.94 0,22.95 0.34,44.9 0.98,65.89 0.66,20.98 1.64,36.72 2.95,47.21 0,2.61 -0.98,8.18 -2.95,16.72 -1.97,8.52 -2.3,19.99 -0.98,34.41 2.63,28.86 3.27,63.6 1.97,104.25 -1.31,40.65 -1.31,74.73 0,102.26 1.31,40.65 1.97,80.98 1.97,120.97 0,39.99 0.66,80.31 1.96,120.94 0,59 0.32,114.72 0.98,167.18 0.66,52.46 1.64,103.92 2.95,154.39 1.32,50.49 2.3,101.95 2.96,154.39 0.66,52.44 2.29,109.49 4.91,171.11 2.62,13.11 4.91,29.83 6.89,50.15 1.95,20.33 3.27,41.3 3.93,62.94 0.66,21.62 0.66,42.6 0,62.93 -0.66,20.33 -2.3,37.04 -4.93,50.15zm541.13 -1807.46c-5.25,22.28 -8.87,54.08 -10.82,95.38 -1.96,41.28 -2.95,84.9 -2.95,130.8 0,45.89 0,90.47 0,133.73 0,43.28 0,78.02 0,104.25 -2.62,150.79 -5.34,303.31 -7.86,457.27 -2.53,153.98 1.95,305.18 13.76,453.34 2.62,34.1 2.85,75.49 0.98,123.91 -1.87,48.4 -3.59,91.79 -4.91,129.8 -1.32,44.58 -1.97,78.35 -1.97,101.3 0,22.94 2.62,39.65 7.87,50.14 5.24,10.5 13.54,17.46 24.57,20.65 11.06,3.19 27.86,7.54 50.17,12.79 27.53,6.56 47.87,5.9 60.96,-1.97 13.11,-7.86 21.97,-19.67 26.56,-35.4 4.59,-15.74 5.8,-34.18 3.93,-55.07 -1.87,-20.88 -3.61,-41.96 -4.91,-62.94 -2.62,-34.08 -2.87,-72.54 -1,-115.05 1.87,-42.53 2.3,-82.93 1,-120.97 -1.32,-41.94 -1.98,-79.65 -1.98,-113.08 0,-33.44 0,-66.54 0,-99.33 0,-32.78 0.42,-66.31 0.98,-100.31 0.57,-34 1,-72.77 1,-116.04 0,-43.26 -1,-85.23 -2.95,-125.87 -1.96,-40.64 -2.96,-82.59 -2.96,-125.86 -1.31,-43.28 -0.32,-86.22 2.96,-128.83 3.27,-42.6 4.9,-85.56 4.9,-128.82 0,-20.98 1.32,-55.74 3.93,-104.25 2.62,-48.51 5.03,-98.75 6.9,-150.45 1.87,-51.7 3.35,-99.74 3.93,-143.58 0.55,-43.83 -0.98,-71.79 -4.93,-83.58l-167.17 -1.97zm-4272.26 18.24c9.19,-2.64 16.39,-5.25 21.63,-7.87 5.25,-2.63 9.84,-4.91 13.77,-6.89 3.94,-1.95 8.2,-3.27 12.79,-3.93 4.59,-0.65 10.82,0.98 18.68,4.93 31.47,13.11 53.44,41.63 65.88,85.56 12.46,43.92 20,94.73 22.63,152.41 2.63,65.57 1.97,131.78 -1.96,198.65 -3.93,66.86 -3.93,121.29 0,163.24 6.57,59.01 7.86,114.4 3.93,166.2 -3.93,51.78 -4.59,106.53 -1.97,164.23 2.63,52.44 2.95,105.21 0.98,158.32 -1.96,53.1 -0.98,107.85 2.96,164.23 1.29,22.28 2.95,56.04 4.91,101.28 1.97,45.24 3.93,92.77 5.9,142.59 1.98,49.83 2.95,97.04 2.95,141.6 0,44.58 -1.31,77.37 -3.93,98.34 -2.63,18.36 -2.29,32.45 0.98,42.28 3.27,9.84 -1.64,20 -14.75,30.49 -1.31,1.32 -8.84,1.97 -22.63,1.97 -13.76,0 -28.83,0 -45.23,0 -16.38,0 -31.79,-0.32 -46.21,-0.98 -14.43,-0.66 -23.61,-1.63 -27.54,-2.95 -18.36,-5.25 -26.56,-11.47 -24.58,-18.68 1.97,-7.21 2.29,-17.38 0.97,-30.49 -1.29,-15.73 -1.63,-39.99 -0.97,-72.77 0.65,-32.78 -0.32,-60.96 -2.96,-84.57l-161.27 3.94 0 7.86c-1.32,1.32 -3.27,8.86 -5.9,22.61 -2.62,13.77 -4.91,29.18 -6.89,46.22 -1.95,17.04 -3.93,33.44 -5.9,49.17 -1.97,15.72 -2.96,26.22 -2.96,31.46 1.32,11.8 2.64,22.3 3.94,31.47 1.31,9.18 -8.52,15.74 -29.49,19.67 -13.12,2.64 -26.56,3.93 -40.33,3.93 -13.76,0 -23.93,-4.58 -30.48,-13.76 -2.64,-3.93 -2.96,-18.04 -1,-42.28 1.97,-24.26 4.93,-53.44 8.86,-87.52 3.93,-34.1 8.86,-70.82 14.75,-110.15 5.9,-39.33 11.47,-77.02 16.72,-113.08 5.24,-36.06 10.49,-68.19 15.74,-96.38 5.25,-28.2 8.52,-47.53 9.83,-58.02 14.43,-86.55 27.86,-172.09 40.31,-256.68 12.46,-84.56 27.2,-168.15 44.26,-250.74 11.8,-60.32 24.92,-123.26 39.33,-188.83 14.43,-65.55 28.19,-131.77 41.31,-198.64 13.1,-66.87 25.22,-133.41 36.38,-199.63 11.15,-66.21 20,-128.82 26.55,-187.82zm770.04 1766.16c2.62,-22.3 3.61,-43.6 2.95,-63.92 -0.66,-20.33 0.34,-42.28 2.95,-65.89 1.32,-18.36 1.64,-35.4 0.98,-51.14 -0.66,-15.74 -0.98,-32.78 -0.98,-51.14 0,-112.76 2.3,-219.95 6.88,-321.57 4.59,-101.61 4.93,-209.46 0.98,-323.53 -1.31,-57.69 -1.31,-121.62 0,-191.76 1.32,-70.14 2.95,-140.62 4.93,-211.44 1.97,-70.8 3.61,-139.63 4.91,-206.51 1.31,-66.86 1.31,-125.87 0,-176.99 -5.24,-47.21 -1.64,-80.64 10.82,-100.32 12.45,-19.67 44.9,-22.94 97.35,-9.83 14.43,3.94 24.92,12.46 31.48,25.56 6.54,13.12 10.81,28.86 12.77,47.21 1.97,18.36 2.96,37.04 2.96,56.05 0,19.02 0.63,36.4 1.95,52.12 3.93,56.39 5.59,118.01 4.93,184.89 -0.66,66.86 -1.98,135.36 -3.93,205.52 -1.98,70.14 -3.94,139.98 -5.91,209.46 -1.97,69.5 -1.63,134.39 0.98,194.71 2.61,40.65 2.95,79.34 0.98,116.04 -1.97,36.71 -2.95,74.09 -2.95,112.1 0,38.04 0.98,75.08 2.95,111.13 1.96,36.05 2.29,75.07 1,117.03l88.49 -1.97c5.25,-131.12 6.23,-258.95 2.96,-383.53 -3.28,-124.55 -3.62,-250.43 -0.98,-377.62 0,-20.96 0,-50.14 0,-87.52 0,-37.35 0,-78.66 0,-123.89 0,-45.24 0.32,-91.45 0.98,-138.67 0.65,-47.21 1.63,-91.77 2.95,-133.73 1.31,-41.96 3.27,-78.68 5.9,-110.14 2.63,-31.47 6.23,-53.11 11.47,-64.92 23.29,-5.24 44.26,-9.49 62.28,-12.77 18.02,-3.28 33.1,-2.3 44.58,2.95 11.8,5.24 20.65,16.39 26.22,33.44 5.9,17.04 8.86,41.96 8.86,74.73 0,61.64 0,120.63 0,177.02 0,56.39 0,111.45 0,165.2 0,53.76 -0.98,108.17 -2.96,163.24 -1.95,55.07 -4.9,112.11 -8.83,171.11 -2.64,40.65 -2.96,83.59 -1,128.83 1.97,45.23 2.95,88.83 2.95,130.8 0,17.03 0.34,46.87 0.98,89.47 0.66,42.62 1.32,91.13 1.96,145.55 0.66,54.42 1.64,111.12 2.96,170.13 1.31,59.01 2.29,113.42 2.95,163.24 0.66,49.83 0.98,91.13 0.98,123.91 0,32.79 -0.66,49.83 -1.96,51.14 -3.94,7.86 -12.14,13.45 -24.27,16.72 -12.45,3.28 -26.21,4.93 -41.94,4.93 -15.41,0 -30.81,-0.66 -45.58,-1.98 -14.74,-1.31 -26.22,-2.61 -34.08,-3.93 -10.16,-18.35 -15.4,-41.3 -15.4,-68.82 0,-27.54 -1.32,-51.8 -3.94,-72.78 -2.62,-20.98 -1.97,-47.53 1.97,-79.66 3.93,-32.12 4.59,-61.95 1.98,-89.47 -3.94,0 -10.5,0.32 -19.67,0.97 -9.19,0.66 -18.7,1.32 -28.52,1.98 -9.84,0.65 -19.02,1.63 -27.54,2.93 -8.52,1.32 -14.11,2.64 -16.72,3.94l-7.86 293.04c-32.79,6.57 -59.99,9.84 -81.63,9.84 -21.63,0 -38.68,-1.64 -51.14,-4.91 -12.45,-3.27 -21.63,-7.54 -27.54,-12.79 -5.9,-5.24 -8.84,-9.83 -8.84,-13.76zm1033.57 13.76c-2.61,-5.24 -4.59,-21.29 -5.9,-48.19 -1.31,-26.88 -1.96,-59.33 -1.96,-97.35 0,-38.03 0.66,-79 1.96,-122.92 1.31,-43.92 2.63,-85.88 3.94,-125.87 1.29,-39.99 2.61,-75.07 3.93,-105.24 1.29,-30.15 2.61,-50.48 3.93,-60.96 5.24,-40.64 8.51,-79.32 9.83,-116.04 1.32,-36.71 1.64,-73.09 0.98,-109.15 -0.66,-36.06 -1.97,-72.44 -3.93,-109.15 -1.98,-36.72 -3.61,-76.05 -4.91,-118.01 -2.63,-99.65 -4.93,-199.62 -6.89,-299.94 -1.96,-100.31 -2.93,-200.93 -2.93,-301.89 0,-24.92 -1.32,-46.21 -3.94,-63.92 -2.62,-17.69 -4.59,-39.65 -5.91,-65.88 0,-26.23 3.28,-41.97 9.85,-47.21 0,0 6.54,-0.32 19.67,-0.98 13.1,-0.66 28.17,-1.32 45.23,-1.98 17.04,-0.65 33.44,-1.29 49.17,-1.95 15.74,-0.66 26.22,-1 31.47,-1 14.42,-1.29 34.08,-4.25 59,-8.84 24.92,-4.58 49.82,-2.95 74.73,4.91 6.57,2.64 13.11,8.86 19.67,18.68 6.57,9.84 7.22,18.7 1.98,26.56l-143.58 35.4 1.97 184.87c41.97,0 71.46,1.66 88.5,4.93 17.05,3.27 26.88,7.86 29.5,13.77 2.63,5.9 1.97,12.13 -1.96,18.68 -3.93,6.55 -5.25,13.11 -3.93,19.67l-116.04 17.7c-1.31,65.55 -0.98,127.51 0.98,185.86 1.98,58.34 4.91,119.64 8.86,183.89 5.25,85.23 7.2,170.79 5.9,256.67 -1.31,85.88 -3.28,170.47 -5.9,253.72 -2.62,83.25 -5.25,164.22 -7.87,242.9 -2.61,78.68 -2.61,154.07 0,226.18 18.36,1.31 32.45,0.32 42.28,-2.96 9.84,-3.27 18.7,-6.54 26.57,-9.83 7.86,-3.27 16.7,-5.91 26.54,-7.86 9.83,-1.98 23.93,-0.34 42.28,4.91l5.91 90.47c-19.67,17.04 -41.65,26.88 -65.9,29.51 -24.26,2.62 -51.46,6.55 -81.61,11.79 -18.36,3.93 -32.78,7.23 -43.26,9.84 -10.5,2.63 -20.32,4.27 -29.52,4.93 -9.17,0.65 -19.67,-0.34 -31.46,-2.96 -11.81,-2.62 -27.54,-7.87 -47.21,-15.74z"/>
  <polygon class="fil2" points="4729.75,120.44 4672.32,61.77 4672.32,3.1 4729.75,61.77 "/>
  <polygon class="fil2" points="4722.48,128.53 4663.81,71.08 4605.14,71.08 4663.81,128.53 "/>
  <polygon class="fil2" points="4742.7,120.44 4800.15,61.77 4800.15,3.1 4742.7,61.77 "/>
  <polygon class="fil2" points="4808.61,128.53 4867.29,71.08 4808.61,71.08 4749.94,128.53 "/>
  <polygon class="fil2" points="4729.75,145.49 4672.32,204.16 4672.32,262.83 4729.75,204.16 "/>
  <polygon class="fil2" points="4742.7,204.16 4800.15,262.83 4800.15,204.16 4742.7,145.49 "/>
  <polygon class="fil2" points="4808.61,137.42 4867.29,194.87 4808.61,194.87 4750.1,137.58 4736.36,151.34 4722.46,137.44 4663.81,194.87 4605.14,194.87 4663.81,137.42 4722.44,137.42 4718.4,133.39 4736.36,115.46 4754.29,133.39 4750.25,137.42 "/>
  <polygon class="fil2" points="5037.56,120.44 4980.13,61.77 4980.13,3.1 5037.56,61.77 "/>
  <polygon class="fil2" points="5030.29,128.53 4971.62,71.08 4912.95,71.08 4971.62,128.53 "/>
  <polygon class="fil2" points="5050.51,120.44 5107.96,61.77 5107.96,3.1 5050.51,61.77 "/>
  <polygon class="fil2" points="5116.43,128.53 5175.1,71.08 5116.43,71.08 5057.76,128.53 "/>
  <polygon class="fil2" points="5037.56,145.49 4980.13,204.16 4980.13,262.83 5037.56,204.16 "/>
  <polygon class="fil2" points="5050.51,204.16 5107.96,262.83 5107.96,204.16 5050.51,145.49 "/>
  <polygon class="fil2" points="5116.43,137.42 5175.1,194.87 5116.43,194.87 5057.91,137.58 5044.17,151.34 5030.27,137.44 4971.62,194.87 4912.95,194.87 4971.62,137.42 5030.25,137.42 5026.22,133.39 5044.17,115.46 5062.1,133.39 5058.07,137.42 "/>
  <polygon class="fil2" points="5052.13,133.65 5044.17,125.67 5036.85,132.99 5044.83,140.97 "/>
  <rect class="fil4" x="5365.17" y="2579.84" width="30.2" height="30.2"/>
  <rect class="fil4" x="5421.74" y="2579.84" width="30.2" height="30.2"/>
 </g>
</svg>
