<?xml version="1.0" encoding="UTF-8"?>
<!DOCTYPE svg PUBLIC "-//W3C//DTD SVG 1.1//EN" "http://www.w3.org/Graphics/SVG/1.1/DTD/svg11.dtd">
<!-- Creator: CorelDRAW 2021 (64-Bit) -->
<svg xmlns="http://www.w3.org/2000/svg" xml:space="preserve" width="58.873mm" height="32.957mm" version="1.1" style="shape-rendering:geometricPrecision; text-rendering:geometricPrecision; image-rendering:optimizeQuality; fill-rule:evenodd; clip-rule:evenodd"
viewBox="0 0 5887.3 3295.7"
 xmlns:xlink="http://www.w3.org/1999/xlink"
 xmlns:xodm="http://www.corel.com/coreldraw/odm/2003">
 <defs>
  <style type="text/css">
   <![CDATA[
    .fil0 {fill:#707173;fill-rule:nonzero}
   ]]>
  </style>
 </defs>
 <g id="Слой_x0020_1">
  <metadata id="CorelCorpID_0Corel-Layer"/>
  <g id="_2956624240480">
   <path class="fil0" d="M605.77 2110.52c-41.87,34.57 -93.23,51.93 -152.96,51.93l-294.18 0 0 -361.21 294.18 0c59.73,0 111.09,17.32 152.96,51.93 42.44,34.04 63.65,77.05 63.65,127.81 0,51.93 -21.21,94.93 -63.65,129.54zm113.88 -346.14c-73.13,-59.13 -161.89,-88.73 -266.84,-88.73l-294.18 0 0 -269.06 459.42 0 106.65 -126.75 -727.43 0 0 1008.2 455.54 0c106.04,0 195.4,-29.6 267.41,-88.23 72,-58.6 108.26,-131.16 108.26,-218.83 0,-85.41 -36.26,-157.41 -108.83,-216.6z"/>
   <path class="fil0" d="M1143.91 1965.93l199.29 -421.46 198.75 421.46 -398.04 0zm199.29 -686.08l-497.39 1008.2 156.89 0 90.41 -207.11 499.64 0 90.42 207.11 156.88 0 -496.85 -1008.2z"/>
   <path class="fil0" d="M4314.75 1965.93l199.28 -421.46 198.75 421.46 -398.03 0zm199.28 -686.08l-497.38 1008.2 156.88 0 90.42 -207.11 499.63 0 90.42 207.11 156.88 0 -496.85 -1008.2z"/>
   <polygon class="fil0" points="2658.43,1279.84 2658.43,1707.48 2119.17,1707.48 2119.17,1279.84 1971.78,1279.84 1971.78,2288.04 2119.17,2288.04 2119.17,1834.2 2658.43,1834.2 2658.43,2288.04 2804.69,2288.04 2804.69,1279.84 "/>
   <polygon class="fil0" points="3729.15,1279.84 3729.15,1707.48 3189.89,1707.48 3189.89,1279.84 3042.5,1279.84 3042.5,2288.04 3189.89,2288.04 3189.89,1834.2 3729.15,1834.2 3729.15,2288.04 3875.41,2288.04 3875.41,1279.84 "/>
   <path class="fil0" d="M5738.83 1781.14l-298.1 0c-54.15,0 -100.47,-18.38 -139.56,-55.81 -39.09,-36.83 -58.63,-80.96 -58.63,-132.86 0,-51.93 19.54,-96.02 58.63,-132.85 39.09,-36.31 85.41,-54.72 139.56,-54.72l298.1 0 0 376.24zm-298.1 -501.3c-95.46,0 -176.42,30.69 -243.42,91.58 -67.52,60.82 -101.03,134.52 -101.03,221.05 0,70.87 25.15,134.55 74.82,191.45 49.67,56.41 112.19,93.28 188.67,109.44l-295.31 394.68 166.93 0 286.95 -386.29 220.49 0 0 386.29 145.7 0 0 -1008.2 -443.8 0z"/>
   <path class="fil0" d="M3876.94 792.6c15.63,10.44 29.95,18.06 41.98,28.33 46.36,39.62 91.79,80.26 137.94,120.12 382.02,277.07 327.45,437.69 393.2,296.76 37.68,-80.86 -347.34,-324.14 -382.41,-351.12 -49.24,-37.86 -95.07,-80.12 -144.32,-118.04 -83.25,-64.07 -174.16,-115.57 -271.95,-154.34 -75.82,-30.06 -153.75,-53.34 -234.6,-64.6 -55.18,-7.69 -110.67,-16.05 -166.16,-17.18 -71.3,-1.48 -142.73,3.14 -214.07,6.71 -93.87,4.72 -187.64,12.8 -281.55,16.15 -90.77,3.25 -181.61,1.13 -272.2,-7.86 -284.23,-2.72 -613.06,-129.83 -650.98,-146.09 32.42,11.78 373.34,100.68 606.95,123.23 321.42,34.78 571.08,-60.4 888.26,-43.15 264.69,31.12 453.6,157.34 526.77,209.9 1.27,0.92 2.54,1.8 7.16,5.01 -2.93,-7.97 -4.13,-13.12 -6.53,-17.6 -24.48,-45.97 -58.27,-84.35 -98.42,-117.05 -44.17,-35.95 -90.24,-69.64 -133.42,-106.65 -34.57,-29.66 -65.83,-63.18 -99.03,-94.47 -29.35,-27.62 -61.56,-51.47 -100.96,-62.58 -12.28,-3.42 -26.46,-3.88 -39.02,-1.59 -18.13,3.39 -26.24,20.5 -21.16,38.31 2.29,8.15 6.17,16.19 6.52,24.41 0.21,5.15 -3.35,13.34 -7.58,15.42 -16.94,8.43 -33.98,8.75 -49.89,-4.2 -18.76,-15.24 -29.91,-35.77 -40.99,-56.44 -12.38,-23.18 -23.53,-46.99 -36.97,-69.54 -21.06,-35.31 -51.79,-61.77 -84.67,-85.54 -42.96,-31.05 -90.59,-50.94 -143.37,-58.42 -23.24,-3.28 -49.88,4.58 -57.36,32.38 -0.91,3.42 -3.07,6.56 -4.94,9.67 -9.87,16.15 -26.81,17.32 -38.55,2.47 -12,-15.21 -22.62,-31.58 -35.6,-45.86 -25.47,-28.09 -57.57,-47.17 -93.06,-59.41 -57.47,-19.76 -116.74,-32.63 -177.52,-36.3 -31.86,-1.98 -61.6,6.77 -88.9,23.42 -22.15,13.48 -29.21,34.33 -19.33,58.25 3.38,8.21 7.69,16.05 11.57,24.05 14.67,30.24 -3.14,58 -36.69,53.52 -21.7,-2.89 -42.83,-11.36 -63.71,-18.7 -48.61,-17.07 -97.62,-32.52 -149.54,-34.57 -64.39,-2.61 -124.08,13.34 -178.4,48.19 -26.32,16.9 -35.92,44.24 -27.59,76.17 0.6,2.36 1.41,4.65 2.01,6.98 5.57,21.73 0.92,29.1 -21.38,30.59 -38.42,2.61 -75.63,-3.81 -111.83,-16.94 -33.55,-12.17 -61.74,-33.05 -90.24,-53.65 -23.64,-17.15 -48.05,-32.99 -77.19,-39.27 -43.5,-9.35 -79.8,11.96 -93.7,54.33 -13.01,39.65 -4.97,77.05 9.92,114.44 27.2,68.05 80.64,106.57 145.52,133.81 34.22,14.32 68.33,29.53 100.33,48.15 38.06,22.19 56.05,58.07 56.16,102.34 0.04,11.89 -1.94,23.25 -11.78,31.82 -26.35,23.08 -32.85,49.96 -20.75,83.65 11.01,30.55 32.64,52.81 57.65,71.82 49.74,37.72 104.07,67.31 165.03,81.81 111.69,26.53 220.48,20.85 323.74,-34.64 6.53,-3.53 14.4,-6 21.77,-6.35 22.79,-1.06 36.51,18.27 26.95,38.98 -6.7,14.54 -16.19,27.8 -24.66,41.49 -13.09,21.2 -28.04,41.45 -39.02,63.71 -9.34,18.98 -10.19,40.43 -5.01,61.67 6.53,26.63 27.63,44.06 55.07,47.09 45.58,5.08 84.95,-10.44 122.17,-34.43 40.39,-26 80.43,-52.6 121.71,-77.15 14.18,-8.43 31.25,-14.25 47.62,-16.37 32.92,-4.38 57.4,24.91 49.85,57.29 -2.47,10.62 -7.05,20.67 -9.81,31.22 -7.51,28.47 9.11,52.53 38.46,54.93 35.1,2.89 68.15,-7.02 100.4,-19.09 49.46,-18.45 95.81,-42.86 138.29,-74.5 24.02,-17.92 42.36,-40.78 60.14,-64.42 20.36,-27.09 40.68,-54.22 61.85,-80.72 6.66,-8.39 15.27,-15.73 24.2,-21.73 16.72,-11.32 33.55,-6.06 39.54,13.09 3.81,12 5.47,25.33 5.05,37.96 -1.41,38.77 5.82,53.27 50.48,56.59 34.01,2.57 63.15,-11.36 90.42,-29.71 26.42,-17.81 51.08,-38.8 78.95,-53.97 76.62,-41.6 155.47,-44.17 235.13,-6.95 15.31,7.16 30.9,14.43 47.13,18.76 38.17,10.16 69.71,-17.92 65.79,-57.43 -1.09,-11.07 -2.93,-22.12 -4.87,-36.37z"/>
   <path class="fil0" d="M1294.38 3095.27c-42.9,22.33 -90.49,34.08 -142.81,34.08 -88.15,0 -159.87,-25.9 -215.12,-77.58 -55.84,-51.71 -83.47,-115.81 -83.47,-192.19 0,-77.58 27.63,-142.24 83.47,-193.36 55.25,-51.72 126.97,-77.57 215.12,-77.57 52.32,0 99.91,11.14 142.81,34.04 43.5,22.96 75.81,53.52 97.58,91.72l88.16 -46.42c-32.92,-51.72 -78.18,-92.86 -136.39,-122.84 -58.77,-30.59 -122.83,-45.86 -192.16,-45.86 -115.78,0 -210.99,34.68 -286.24,104.07 -75.21,69.32 -112.25,155.11 -112.25,256.22 0,101.11 37.04,186.34 112.25,255.66 75.25,69.35 170.46,104.03 286.24,104.03 69.33,0 133.39,-15.27 192.76,-45.82 58.77,-31.19 104.04,-72.32 135.79,-123.44l-88.16 -45.86c-21.77,37.6 -54.08,68.19 -97.58,91.12z"/>
   <path class="fil0" d="M2179.51 2833.13c-27.62,25.86 -62.3,39.37 -104.64,39.37l-175.11 0 0 -273.86 175.11 0c42.34,0 77.02,12.91 104.64,38.77 27.62,25.89 41.13,58.21 41.13,98.14 0,38.81 -13.51,71.72 -41.13,97.58zm71.12 -256.82c-46.43,-42.93 -105.2,-64.1 -175.76,-64.1l-276.22 0 0 694.12 101.11 0 0 -248 175.11 0c70.56,0 129.33,-21.16 175.76,-64.1 47.02,-42.86 70.52,-95.78 70.52,-158.68 0,-63.46 -23.5,-116.94 -70.52,-159.24z"/>
   <polygon class="fil0" points="3072.84,3119.35 2793.69,3119.35 2793.69,2898.97 3115.17,2898.97 3115.17,2812.57 2793.69,2812.57 2793.69,2599.78 3069.31,2599.78 3142.2,2512.22 2692.58,2512.22 2692.58,3206.35 3147.49,3206.35 "/>
   <path class="fil0" d="M4624.46 2973.59l144.57 -305.01 144 305.01 -288.57 0zm144.57 -496.61l-360.26 729.37 114.02 0 65.23 -149.86 361.45 0 65.83 149.86 113.42 0 -359.69 -729.37z"/>
   <path class="fil0" d="M3980.23 3119.42l-341.91 0c38.27,-56.41 57.57,-136.84 57.57,-242.11l0 -278.84 284.34 0 0 520.95zm101.35 0l0 -607.31 -486.62 0 0 363.19c0,108.87 -18.56,244.12 -137.27,244.12l0 179.42 99.17 -92.67 512.13 0 94.22 92.67 0 -179.42 -81.63 0z"/>
  </g>
 </g>
</svg>
