<?xml version="1.0" encoding="UTF-8"?>
<!DOCTYPE svg PUBLIC "-//W3C//DTD SVG 1.1//EN" "http://www.w3.org/Graphics/SVG/1.1/DTD/svg11.dtd">
<!-- Creator: CorelDRAW 2021 (64-Bit) -->
<svg xmlns="http://www.w3.org/2000/svg" xml:space="preserve" width="472px" height="313px" version="1.1" style="shape-rendering:geometricPrecision; text-rendering:geometricPrecision; image-rendering:optimizeQuality; fill-rule:evenodd; clip-rule:evenodd"
viewBox="0 0 472 313.04"
 xmlns:xlink="http://www.w3.org/1999/xlink"
 xmlns:xodm="http://www.corel.com/coreldraw/odm/2003">
 <defs>
  <style type="text/css">
   <![CDATA[
    .fil0 {fill:#1F1B20}
    .fil1 {fill:#1F1B20;fill-rule:nonzero}
   ]]>
  </style>
 </defs>
 <g id="Слой_x0020_1">
  <metadata id="CorelCorpID_0Corel-Layer"/>
  <g id="_2136416472256">
   <path class="fil0" d="M156.44 46.55c2.07,1.46 8.71,3.11 12.41,8.72 3.55,5.38 -1.17,12.02 -5.02,13.98 -6.7,3.42 -11.02,-2.76 -13.49,-6.02 -3.86,-5.09 -4.38,-7.2 -7.05,-13.94l-22.54 -6.03c0.41,3.3 4.92,21.01 6.06,22.36 0.65,0.72 0.29,0.45 1.44,1 4.88,2.36 24.22,9.16 18.13,20.22 -1.82,3.3 -8.11,8.18 -13.83,4.7 -2.06,-1.26 -6,-6.08 -7.13,-8.63l-1.7 -3.61 -11.99 6.81c1.53,1.89 8.97,5.74 11.47,7.18 4.65,2.67 33.03,19.48 35.55,20.16 2.11,-3.18 3.2,-15.48 17.87,-33.19l6 -6.83c1.23,-1.35 1.3,-1.13 2.06,-2.84 -1.99,-4.96 -7.12,-12.49 -10.25,-18.01 -1.83,-3.22 -3.3,-5.72 -5.12,-8.88 -1.39,-2.42 -3.61,-7.66 -6.18,-9l-6.69 11.85z"/>
   <path class="fil0" d="M254.99 21.53c-5.06,3.76 -12.92,3.29 -29.49,15.82 0.58,3.77 2.53,6.17 2.94,11.32 -2.63,-2.57 -4,-10.45 -13.72,-15.41 -18.25,-9.32 -43.59,4.99 -28.02,28.06 1.96,2.91 5.76,6.23 6.54,8.1 -5.98,8.08 -11.74,11.01 -20.18,25.39 -2.83,4.83 -5.27,9.5 -7.23,15.63 -5.49,17.18 5.65,12.38 -4.84,38.35l-12.87 32.65c-3,7.05 -8.19,10.59 -0.06,13.68 3,1.13 5.97,1.29 8.71,2.41 7.74,3.15 14.07,8.38 27.52,6.63 6.8,-0.88 11.45,-3.68 15.97,-6.82 4.08,-2.83 9.68,-5.9 14.6,-8.17 16,-7.4 37.44,-13.47 56.06,-11.33 4.8,0.55 14.45,2.8 17.39,5.45 -6.1,12.2 -23.72,28.71 -35.49,36.28 -11.03,7.1 -24.62,13.28 -37.93,16.31 -3.11,0.7 -13.42,2.04 -15.24,2.85 89.29,4.87 150.98,-88.52 113.54,-169.54 -7.29,-15.78 -15.82,-25.64 -25.67,-35.69 -18.66,-19.03 -53.36,-35.71 -89.12,-32.86 4.01,1.18 11.51,1.65 16.42,2.84 10.98,2.64 34.67,11.62 40.17,18.05z"/>
   <path class="fil1" d="M26.18 291.43c3.3,0.39 5.66,1.49 7.07,3.31 1.41,1.83 2.11,4.02 2.11,6.6 0,1.6 -0.24,3.12 -0.73,4.55 -0.48,1.44 -1.07,2.65 -1.75,3.65 -0.68,0.99 -1.26,1.63 -1.75,1.93 -1.94,1.26 -7.87,1.89 -17.77,1.89l-14.14 0 0 -41.53 17.12 0c3.89,0 7.03,0.21 9.44,0.62 2.4,0.41 4.36,1.33 5.86,2.77 1.51,1.43 2.26,3.6 2.26,6.52 0,2.52 -0.62,4.56 -1.85,6.12 -1.24,1.55 -3.2,2.62 -5.87,3.2l0 0.37zm-5.83 -10.78c-0.48,-0.49 -1.06,-0.79 -1.71,-0.92 -0.66,-0.12 -1.69,-0.18 -3.1,-0.18 -1.41,0 -2.48,0.03 -3.2,0.08l0 8.88 0.72 0c0.25,0 1.27,0 3.06,0 1.8,0 2.99,-0.12 3.58,-0.36 0.43,-0.19 0.83,-0.7 1.2,-1.53 0.36,-0.83 0.54,-1.72 0.54,-2.7 0,-1.45 -0.36,-2.55 -1.09,-3.27zm1.24 24.33c0.34,-0.29 0.62,-0.84 0.84,-1.64 0.22,-0.8 0.33,-1.61 0.33,-2.44 0,-1.02 -0.14,-1.98 -0.41,-2.88 -0.26,-0.9 -0.62,-1.54 -1.05,-1.93 -0.44,-0.44 -1.06,-0.73 -1.86,-0.87 -0.8,-0.15 -2.15,-0.22 -4.04,-0.22 -1.22,0 -2.24,0.02 -3.06,0.07l0 10.57c2.28,0.05 4.32,0.01 6.12,-0.11 1.79,-0.12 2.84,-0.31 3.13,-0.55zm56.29 -0.73l-12.09 0 -2.19 9.11 -13.4 0 13.4 -41.53 17.13 0 12.82 41.53 -13.48 0 -2.19 -9.11zm-6.12 -23.46l-4.29 15.37 8.67 0 -4.08 -15.37 -0.3 0zm51.49 32.57l-12.17 0 0 -41.53 12.32 0 15 23.02 0 -23.02 12.1 0 0 41.53 -12.39 0 -14.57 -22.44 -0.29 22.44zm69.77 -13.26l0 13.26 -13.11 0 0 -13.11 -13.99 -28.42 13.33 0 5.54 13.48 1.6 4.3 1.75 -4.45 5.47 -13.33 13.26 0 -13.85 28.27zm49.74 4.15l-12.09 0 -2.19 9.11 -13.4 0 13.4 -41.53 17.12 0 12.83 41.53 -13.48 0 -2.19 -9.11zm-5.74 -24.02l-4.68 15.93 8.67 0 -3.99 -15.93zm60.65 -8.4l13.12 0 0 31.91 16.97 0 0 9.62 -30.09 0 0 -41.53zm48.79 0l13.12 0 0 41.53 -13.12 0 0 -41.53zm46.53 41.53l-12.16 0 0 -41.53 12.31 0 14.79 23.02 0.22 -23.02 12.1 0 0 41.53 -12.39 0 -14.57 -22.44 -0.3 22.44zm47.99 -41.53l30.24 0 0 8.74 -17.12 0 0 7.58 14.42 0 0 7.87 -14.42 0 0 8.45 17.05 0 0 8.89 -30.17 0 0 -41.53z"/>
  </g>
 </g>
</svg>
