<?xml version="1.0" encoding="UTF-8"?>
<!DOCTYPE svg PUBLIC "-//W3C//DTD SVG 1.1//EN" "http://www.w3.org/Graphics/SVG/1.1/DTD/svg11.dtd">
<!-- Creator: CorelDRAW 2021 (64-Bit) -->
<svg xmlns="http://www.w3.org/2000/svg" xml:space="preserve" width="58.34mm" height="23.422mm" version="1.1" style="shape-rendering:geometricPrecision; text-rendering:geometricPrecision; image-rendering:optimizeQuality; fill-rule:evenodd; clip-rule:evenodd"
viewBox="0 0 5834 2342.2"
 xmlns:xlink="http://www.w3.org/1999/xlink"
 xmlns:xodm="http://www.corel.com/coreldraw/odm/2003">
 <defs>
  <style type="text/css">
   <![CDATA[
    .fil1 {fill:#A9A9AF;fill-rule:nonzero}
    .fil0 {fill:#CABCA0;fill-rule:nonzero}
   ]]>
  </style>
 </defs>
 <g id="Слой_x0020_1">
  <metadata id="CorelCorpID_0Corel-Layer"/>
  <g id="_2956867822656">
   <path class="fil0" d="M2720.29 1131.48c-19.23,23.88 -35.63,44.27 -42.61,52.77l-71.16 89.71c-15.77,20.11 -31.26,41.74 -45.44,61.53 -18.1,25.22 -35.84,52 -55.77,76.02 -24.56,34.22 -49.36,66.92 -74.16,99.66 -14.49,18.28 -28.96,36.58 -43.78,53.38l-22.04 21.23 -9.25 3.21 -12.56 -5.57c-4.51,-14.92 -3.56,-35.6 -3.35,-51.4l-1.97 -35.84c-1.24,-23.36 2.04,-49.11 3.95,-73.03l3.98 -13.33 1.1 -11.18 0.32 1.55 0.53 -14.29 1.09 -11.22c-0.32,-18.77 15.98,-116.42 18.63,-132.36 0.24,-1.59 25.64,-122.45 25.64,-122.45l-1.27 1.8 1.98 -5.12 1.3 -3.35 46.04 -185.91 5.4 -22.97c2.4,-13.05 32.59,-111.19 32.59,-111.19 0.11,-1.7 0.32,-3.42 0.6,-5.12 1.59,-9.63 5.47,-18.91 7.94,-27.83 0.32,-1.13 0.6,-2.22 0.88,-3.35l32.88 -109.65c0,0 30.24,-98.17 41.95,-122.27l8.96 -29.92c0,0 14,-46.53 18.66,-64.66l14.29 -45.01c0.49,-1.45 0.95,-2.9 1.44,-4.31 5.58,-16.9 6.74,-18.41 11.33,-28.64 0,0 0.35,-1.34 0.95,-3.67 2.36,-9.39 9,-34.4 15.14,-49.67 0.74,-1.8 1.44,-3.46 2.18,-4.98l0.28 1.52 0.46 -2.22 3.25 -12.56 1.69 -8.19c9.07,-37.81 21.63,-74.61 33.87,-112.99l9.03 -29.88c3.95,-13.3 8.26,-25.08 10.65,-38.1l14.96 -49.81c18.88,-40.96 -31.85,-84.42 -84.21,98.32 -9.2,31.99 -22.43,62.12 -30.79,95.1l-12.53 36.83c-6.03,19.97 -13.9,38.63 -19.86,58.57 -13.58,40.18 -3.95,10.97 -17.78,49.63l-44.27 127.35c-6.67,24.8 -14.92,49.89 -23.22,74.97 -5.99,19.93 -11.95,39.83 -17.92,59.76l-24.13 70.38c-4.97,16.58 -8.39,32.95 -13.37,49.56 -11.25,35.04 -22.54,70.07 -32.21,104.85 -12.66,44.73 -25.32,89.43 -36.44,133.88 -4.97,16.58 -6.49,34.15 -11.78,49.25 -6,19.96 -8.82,39.33 -13.19,58.98 -4.52,27.55 -10.59,55.35 -15.14,82.9 -1.66,8.82 -3.14,18.21 -4.69,27.45l-16.09 9.28c-20.14,14.6 -41.52,30.97 -63.25,45.86 -22.97,16.62 -44.38,33.02 -65.79,49.39l-20.08 14.6c-22.43,19.72 -48.33,38.46 -72.56,56.94 -8.36,7.76 -18.52,14.29 -27.17,20.53l-12.7 2.26 -3.35 -8.85 1.13 -11.19c1.27,-19.12 9.42,-36.3 13.8,-55.95l1.12 -11.22 -7.55 -22.22c-8.67,-11.08 -23.07,-17.92 -35.66,-23.6 -9.07,-4.66 -17.29,-4.8 -25.9,1.45l-8.36 7.79c-21.09,17.89 -40.32,37.08 -61.13,56.48 -27.27,28.44 -56.13,57.15 -83.72,84.07 -8.6,6.24 -15.62,12.2 -23.28,15.13 -8.61,6.28 -12.38,3.78 -12.84,-7.12l1.13 -11.26c-0.18,-9.38 1.23,-19.05 0.74,-29.98l6.74 -24.8 4.37 -19.65c2.96,-9.95 5.96,-19.94 10.55,-30.17 6.24,-18.45 14.15,-37.14 16.97,-56.51 1.69,-8.15 2.08,-14.57 -1.24,-23.39l-16.3 -8.15 -8.64 6.32 -3.56 6.91c-3.46,5.33 -24.03,19.97 -24.03,19.97 -48.29,21.16 -10.01,15.91 -169.26,64.66 -23.21,7.23 -45.33,11.18 -69.39,13.87 -9.49,1.69 -16.4,-0.22 -20.04,-10.59 -8.01,-15.87 -21.41,-26.1 -34.82,-36.26 -7.79,-6.53 -17.64,-6.35 -19.75,8.18 -0.5,14.29 -4.2,29.07 -6.32,43.6 -4.62,35.46 -12.45,71.44 -25.57,105.24 -16.72,40.74 -39.09,77.71 -68.34,112.82l-12.48 11.64 -10.66 -4.38c-1.76,-9.17 -1.94,-18.55 -0.25,-26.74 1.17,-36.37 11.15,-69.64 19.27,-104.07 4.97,-16.61 11.5,-33.55 18.41,-48.93 8.82,-22.01 19.26,-44.27 28.44,-64.77l3.52 -24.27c-1.76,-9.1 -8.96,-12.52 -14.28,-14.74l-13.73 5.57 -9.28 11.08c-11.04,19.26 -23.67,38.84 -34.36,59.62 -18.62,39.47 -35.34,80.18 -45.12,122.8 -3.42,16.33 -7.09,31.18 -9.2,45.68 -3.39,33.66 6.95,61.7 35.38,81.85 11.54,8.92 25.72,14.32 40.25,13.3 25.93,-1.48 42.26,-18.52 60.82,-32.81l0.99 -3.35c3.98,-13.27 13.58,-22.86 21.34,-33.66l0.28 1.52 3.88 -5.4 2.3 -5.15c6.14,-10.55 16.05,-18.55 18.45,-31.57l2.29 -5.15c9.07,-12.63 13.05,-25.9 18.31,-41 5.68,-21.48 11.39,-42.93 15.2,-65.61l3.71 -14.82 7.3 -4.48 10.37 2.93c19.51,7.55 39.34,8.71 61.53,4.8 33.55,-4.41 67.52,-15.14 99.62,-27.13 37.36,-13.34 51.51,-20.85 70.03,-31.65 -3.81,9.74 -8.15,19.37 -11.61,29.14 -6.84,15.38 -11.53,33.52 -13.05,51.12 -0.67,22.16 4.13,38.56 21.62,52.74l15 9.95c15.63,12.98 35.49,14.15 56.09,10.51l23.14 -7.26c19.44,-9.78 36.37,-23.78 51.75,-37.51 18.49,-14.28 34.58,-32.87 50.94,-49.98l9.64 -9.53 8.78 3.14 1.48 7.62c-2.54,20.89 8.29,34.68 25.47,47.38l18.8 12.38c11.26,7.45 22.9,8.5 35.56,6.25 20.89,-2.09 39.34,-8.54 54.69,-22.23 34.18,-26.53 64.91,-54.01 96.66,-84.81 20.81,-19.44 41.02,-41.91 64.03,-58.59 12.7,-10.55 26.07,-20.64 39.01,-31.05 -0.14,0.71 -0.21,1.45 -0.39,2.15 -0.1,7.94 -1.79,16.09 -1.62,25.51l-9.98 100.86c-3.81,40 -4.38,79.41 0.35,121.07 0.64,20.32 1.73,65.65 10.58,86.08 13.48,27.55 45.12,41.2 73.74,28.22l39.51 -32.66c8.32,-7.8 16.65,-15.56 23.39,-23.04 32.42,-35.67 59.54,-73.48 88.51,-110.1 15.8,-20.15 29.67,-41.42 45.15,-63.08l38.46 -55.6c28.61,-41.17 88.47,-120.47 142.76,-191.41 35.04,-50.28 -8.78,-52.75 -29.7,-30.94z"/>
   <polygon class="fil0" points="1859.07,1386.68 1858.54,1383.65 1859.99,1383.37 "/>
   <path class="fil0" d="M3389.38 1443.79c34.93,-23.25 52.39,-59.62 52.39,-109.15 0,-95.32 -69.15,-142.98 -207.4,-142.98l-269.59 0 0 287.05 269.59 0c68.4,0 120.09,-11.6 155.01,-34.92zm-424.6 -595.99l0 277.25 243.41 0c61.85,0 109.54,-11.82 142.98,-35.49 33.48,-23.6 50.24,-57.99 50.24,-103.11 0,-45.12 -16.76,-79.52 -50.24,-103.16 -33.44,-23.63 -81.13,-35.49 -142.98,-35.49l-243.41 0zm516.85 368.41c27.31,32.39 40.92,74.05 40.92,124.99 0,65.47 -24.2,115.89 -72.56,151.16 -48.4,35.32 -119.95,52.96 -214.49,52.96l-351.46 0 0 -764.08 329.62 0c85.16,0 151.17,17.1 198.12,51.29 46.92,34.22 70.38,82.62 70.38,145.17 0,42.22 -10.37,78.03 -31.11,107.52 -20.75,29.46 -49.29,51.47 -85.69,66.04 50.23,10.9 88.97,32.57 116.27,64.95z"/>
   <path class="fil0" d="M4128.32 1438.9c48.75,-27.27 86.96,-65.13 114.62,-113.53 27.65,-48.4 41.48,-102.44 41.48,-162.1 0,-59.65 -13.83,-113.7 -41.48,-162.1 -27.66,-48.36 -65.87,-86.22 -114.62,-113.49 -48.75,-27.3 -103.33,-40.96 -163.72,-40.96 -60.4,0 -115.15,13.66 -164.26,40.96 -49.1,27.27 -87.7,65.13 -115.71,113.49 -28.01,48.4 -42.05,102.45 -42.05,162.1 0,59.66 14.04,113.7 42.05,162.1 28.01,48.4 66.61,86.26 115.71,113.53 49.11,27.27 103.86,40.92 164.26,40.92 60.39,0 114.97,-13.65 163.72,-40.92zm-369.46 62.23c-61.49,-33.83 -109.54,-80.26 -144.11,-139.21 -34.54,-58.95 -51.79,-125.13 -51.79,-198.65 0,-73.48 17.25,-139.7 51.79,-198.65 34.57,-58.95 82.62,-105.34 144.11,-139.17 61.48,-33.86 130.06,-50.76 205.74,-50.76 75.7,0 143.89,16.72 204.68,50.2 60.75,33.48 108.58,79.87 143.51,139.17 34.96,59.34 52.42,125.73 52.42,199.21 0,73.52 -17.46,139.88 -52.42,199.22 -34.93,59.33 -82.76,105.69 -143.51,139.17 -60.79,33.48 -128.98,50.2 -204.68,50.2 -75.68,0 -144.26,-16.9 -205.74,-50.73z"/>
   <path class="fil0" d="M4776.69 1475.45c66.92,0 125.51,-13.27 175.71,-39.83 50.2,-26.56 89.15,-63.32 116.81,-110.24 27.66,-46.96 41.49,-101 41.49,-162.1 0,-61.14 -13.83,-115.19 -41.49,-162.11 -27.66,-46.92 -66.61,-83.67 -116.81,-110.24 -50.2,-26.56 -108.79,-39.83 -175.71,-39.83l-225.96 0 0 624.35 225.96 0zm-306.71 -694.23l311.08 0c80.75,0 152.08,16.23 213.92,48.57 61.85,32.39 109.9,77.51 144.08,135.37 34.18,57.85 51.33,123.89 51.33,198.12 0,74.22 -17.15,140.22 -51.33,198.12 -34.18,57.85 -82.23,102.97 -144.08,135.36 -61.84,32.35 -133.17,48.54 -213.92,48.54l-311.08 0 0 -764.08z"/>
   <polygon class="fil0" points="5524.37,1281.15 5524.37,1545.31 5444.68,1545.31 5444.68,1281.15 5139.07,781.22 5225.29,781.22 5487.26,1210.2 5749.23,781.22 5829.99,781.22 "/>
   <path class="fil0" d="M1103.38 1878.74l-7.2 12.28c-15.66,26.56 -31.82,54.11 -51.54,79.41 -38.67,47.2 -86.71,89.71 -155.79,137.83 -74.65,50.41 -157.37,90.84 -260.14,127.21 -52.49,17.96 -109.82,32.74 -175.5,45.19 -21.91,4.3 -43.82,7.27 -65.2,10.09l-5.18 0.78c-13.3,2.11 -25.83,4.09 -39.55,4.94 -34.68,2.18 -64.98,3.28 -92.53,3.28 -36.34,0 -69.08,-1.8 -100.09,-5.65 -20.17,-2.64 -41.02,-6.81 -57.78,-19.08 -13.3,-8.47 -20.07,-21.06 -20,-37.65l3.49 -9.41c12.49,-16.13 27.2,-29.99 48.72,-46.18 38.59,-26.46 77.86,-46.43 124.88,-68.34 68.37,-30.05 134.76,-56.05 203.06,-79.48 74.44,-24.48 147.18,-48.12 218.16,-67.17 70.48,-18.62 133.91,-35.38 197.48,-51.01 60.75,-13.61 121.15,-26 179.53,-37.89l47.63 -9.24 9.87 0.32 -2.32 9.77zm1736.58 -58.49c-5.71,-1.09 -16.97,-5.57 -22.79,-6.81 -14.43,-2.89 -29.39,-5.85 -44.34,-8.43 -68.27,-9.88 -133.46,-17.14 -193.75,-21.62l-20.95 -1.8c-42.48,-3.67 -82.7,-7.2 -124.85,-9.56l-126.08 -5.23c-43.18,-2.99 -85.66,-4.62 -132.83,-6.27l-352.07 -8.61c-26.88,0.14 -53.87,0.14 -81.07,0 -27.12,0.07 -54.32,-0.25 -81.17,0.07 -46.46,1.59 -90.81,4.3 -137.72,7.3l-1.98 0.14c-104.7,6.74 -197.34,16.51 -281.98,29.92l-8.92 -0.5 -2.72 -17.85c1.77,-19.47 3.39,-40.21 3.57,-59.79 -1.2,-57.86 -15.63,-114.51 -44.31,-173.39l-7.2 -14.11c-11.82,-26.85 -27.8,-53.38 -50.48,-83.3 -33.45,-45.22 -73.77,-88.05 -126.79,-134.65 -57.15,-49.39 -123.54,-97.54 -203.24,-147.25l-212.09 -126.89c-24.83,-15.17 -49.6,-32.81 -73.59,-49.85l-3.81 -2.75c-27.12,-19.34 -48.33,-39.76 -66.56,-64.03 -13.3,-21.06 -19.8,-42.19 -20.08,-64.98 -1.02,-13.69 2.08,-27.1 5.05,-40.01 0.77,-3.28 1.48,-6.6 2.18,-9.63 7.02,-25.54 20.32,-49.78 39.34,-71.93 14.43,-15.66 26.6,-28.51 40.5,-39.09 6.1,-4.37 11.29,-9.24 16.33,-13.93 2.61,-2.51 5.15,-4.84 7.66,-7.02l1.55 -1.27c19.83,-16.83 40.32,-34.22 62.05,-49.89 70.03,-48.43 132.93,-87.27 192.37,-118.67 83.86,-45.72 169.27,-86.5 261.09,-124.64 57.26,-24.09 115.93,-45.68 174.2,-64.24 94.66,-30.48 178.4,-50.27 255.98,-60.61 36.58,-5.08 82.8,-9.7 122.94,-6.49 17.29,0.25 36.06,3.14 52.57,8.15 16.51,5.79 23.39,17.22 20.53,34.19l-3.56 25.61 14.74 -11.96 0.99 -1.02c13.09,-21.45 12.49,-39.69 -1.66,-52.78 -13.72,-12.7 -31.82,-17.07 -50.83,-21.7l-2.26 -0.52c-24.24,-7.13 -51.97,-10.59 -84.81,-10.59 -2.86,0 -5.75,0 -8.61,0.07 -73.06,1.66 -147.88,10.97 -222.42,27.59 -72.75,16.72 -151.45,39.69 -240.95,70.34 -72.04,26.96 -156.74,60.08 -238.58,101.32l-143.97 75.78c-42.34,21.91 -83.61,47.06 -122.52,74.68l-51.19 34.54 -11.99 9.77c-26.32,22.08 -53.52,44.94 -78.53,70.24 -23.39,22.05 -42.41,48.61 -56.59,78.74 -22.15,46.18 -24.9,87.06 -8.5,124.95 7.48,16.9 15.13,33.34 27.55,47.84 17.71,23 36.83,42.9 58.46,60.64 33.48,27.48 68.4,52 106.71,74.93l177.59 107.03c84.03,50.73 148.06,95.32 201.58,140.44 62.47,52.74 107.84,102.24 142.77,155.61 52.98,80.65 74.82,163.62 66.74,253.83 -1.66,27.06 -4.97,49.6 -10.19,70.27l-7.27 15.03 -28.68 5.96c-8.01,1.24 -15.66,2.51 -23.21,3.78 -7.13,1.16 -14.33,2.33 -22.09,3.49l-128.59 29.07c-28.99,7.02 -58.1,13.93 -87.31,20.88 -52.74,12.46 -107.21,25.37 -160.23,39.3 -61.35,16.37 -123.61,35.88 -177.16,52.85 -90.63,26.46 -180.56,59.19 -267.09,97.15 -52.14,21.21 -98,43.61 -140.23,68.34 -22.76,11.92 -44.91,28.04 -70.13,51.36l-17.54 22.3c-13.9,23.74 -14.53,44.41 -1.9,63.36 9.03,13.12 21.34,24.65 36.83,34.43 31.29,18.31 64.45,30.83 98.42,37.25 50.41,11.36 104.11,12.84 145.38,12.84 9.92,0 19.83,-0.07 29.81,-0.21 83.4,-2.51 172.9,-14.75 265.79,-36.41 66.04,-15.91 130.06,-37.5 195.75,-65.93 99.84,-41.81 183.59,-91.44 255.98,-151.63 38.73,-31.78 75.32,-63.88 97.22,-106.64l0.53 -0.85 -0.17 -2.57c24.48,-31.4 42.29,-64.98 59.86,-99.52l8.26 -15.35 0.42 -1.48c0.6,-9.45 7.55,-16.37 18.87,-18.48 9.99,-2.58 19.44,-3.81 29.46,-5.08 5.01,-0.71 9.98,-1.31 15.03,-2.12 23.11,-2.89 46.46,-6.17 70.03,-9.38 25.78,-3.6 51.85,-7.27 77.85,-10.41l87.14 -10.02c108.97,-8.61 206.37,-12.91 297.6,-13.23l315.74 6.49c20.42,0.14 40.85,0.71 61.35,1.27 20.49,0.46 40.99,0.99 61.35,1.17l132.39 4.83c25.3,1.34 50.94,2.68 76.66,4.02 25.61,1.24 51.26,2.58 76.38,3.92l202.6 18.06c25.22,2.5 50.13,6.49 74.22,10.33 10.76,1.73 21.45,3.36 32.74,5.08 4.76,0.82 21.8,4.8 26.53,5.76 -3.74,-13.13 -13.27,-25.79 -15.1,-39.34z"/>
   <polygon class="fil0" points="419.09,714.29 421.7,709.56 423.46,710.87 420.64,714.15 "/>
   <polygon class="fil1" points="3513.42,1746.71 3365.5,2185.39 3316.64,2185.39 3188.13,1811.23 3059.05,2185.39 3010.75,2185.39 2862.91,1746.71 2910.53,1746.71 3037.1,2124 3168.09,1746.71 3211.34,1746.71 3340.46,2125.84 3468.9,1746.71 "/>
   <polygon class="fil1" points="3885.73,2145.3 3885.73,2185.41 3575.5,2185.41 3575.5,1746.69 3876.31,1746.69 3876.31,1786.8 3621.89,1786.8 3621.89,1942.87 3848.76,1942.87 3848.76,1982.35 3621.89,1982.35 3621.89,2145.3 "/>
   <path class="fil1" d="M4278.24 2030.61l-105.27 -235.69 -105.3 235.69 210.57 0zm16.97 37.57l-244.44 0 -52.67 117.23 -48.26 0 200.55 -438.72 45.76 0 200.55 438.72 -48.89 0 -52.6 -117.23z"/>
   <path class="fil1" d="M4729.23 1977.95c22.97,-19.19 34.5,-46.14 34.5,-80.85 0,-35.49 -11.53,-62.76 -34.5,-81.78 -22.97,-19.01 -56.2,-28.5 -99.62,-28.5l-116.56 0 0 219.95 116.56 0c43.42,0 76.65,-9.59 99.62,-28.82zm36.97 207.44l-100.26 -141.01c-11.25,1.24 -23,1.87 -35.1,1.87l-117.79 0 0 139.14 -46.43 0 0 -438.68 164.22 0c55.99,0 99.84,13.37 131.59,40.11 31.78,26.74 47.66,63.5 47.66,110.28 0,34.25 -8.68,63.21 -26.04,86.81 -17.32,23.61 -42.05,40.64 -74.22,51.05l107.14 150.43 -50.77 0z"/>
  </g>
 </g>
</svg>
