<?xml version="1.0" encoding="UTF-8"?>
<!DOCTYPE svg PUBLIC "-//W3C//DTD SVG 1.1//EN" "http://www.w3.org/Graphics/SVG/1.1/DTD/svg11.dtd">
<!-- Creator: CorelDRAW 2021 (64-Bit) -->
<svg xmlns="http://www.w3.org/2000/svg" xml:space="preserve" width="472px" height="451px" version="1.1" style="shape-rendering:geometricPrecision; text-rendering:geometricPrecision; image-rendering:optimizeQuality; fill-rule:evenodd; clip-rule:evenodd"
viewBox="0 0 472 451"
 xmlns:xlink="http://www.w3.org/1999/xlink"
 xmlns:xodm="http://www.corel.com/coreldraw/odm/2003">
 <defs>
  <style type="text/css">
   <![CDATA[
    .fil0 {fill:#EE7D1A}
   ]]>
  </style>
 </defs>
 <g id="Слой_x0020_1">
  <metadata id="CorelCorpID_0Corel-Layer"/>
  <g id="_1668880436336">
   <path class="fil0" d="M298.63 435.37c0.27,0.43 0.65,1.1 0.83,1.74 0.13,0.46 0.16,0.5 0.16,1.06 0,0.15 -0.03,0.5 -0.06,0.65 -0.27,1.28 -1.27,0.41 -2.27,0.24 0.46,-1.22 0.61,-2.68 1.34,-3.69zm-124.31 -0.22c0.73,0.83 1.12,2.5 1.36,3.72l-2.05 0.65c-0.53,-2.33 -0.04,-2.39 0.69,-4.37zm127.91 3.76c2.5,1.49 1.94,0.14 3.94,-0.71 -0.52,2.76 -3.7,3.17 -4.27,2.59 -0.51,-0.52 0.12,-1.28 0.33,-1.88zm-135.25 -0.73c1,0.22 0.9,0.78 1.74,1.07 1.06,0.36 1.35,-0.21 2.23,-0.35 0.23,0.75 0.44,1.02 0.47,1.83 -3.11,0.11 -3.57,-0.33 -4.44,-2.55zm149.86 -0.95c-0.06,-1.89 1.65,-4 2.89,-6.08 0.56,-0.93 2.85,-5.02 3.43,-5.45 0.06,1.47 -1.55,5.68 -2.09,6.79 -1.33,2.73 -2.07,4.15 -4.23,4.74zm-167.06 -11.99c0.8,0.91 4.33,7.14 5.33,8.75 0.61,0.96 1.53,1.89 0.76,2.97 -1.64,-0.31 -1.6,-0.86 -2.39,-2.06 -1.72,-2.62 -3.49,-6.47 -3.7,-9.66zm159.97 14.09c0.14,-2.36 2.29,-3.61 3.46,-5.02l7.39 -9.6c1.09,-1.67 1.59,-2.24 2.29,-4.09 0.38,-1.02 0.17,-1.12 1.01,-1.33 0.97,1.62 -4.43,9.61 -5.44,11.3 -1.07,1.78 -2.22,3.68 -3.27,5.46 -2.25,3.76 -2.79,2.68 -5.44,3.28zm-160.49 -20.27c0.78,0.51 1.01,1.78 1.49,2.74 1.28,2.57 3.63,5.15 5.33,7.42 2.78,3.72 2.68,3.79 5.75,6.99 1.06,1.09 0.99,1.33 1.54,2.85 -3.27,0.21 -4.2,-0.99 -5.4,-3.01 -1.35,-2.27 -8.96,-14.15 -8.95,-16.08l0.24 -0.91zm154.59 18.82c-0.37,-0.45 -0.96,-1.2 -1.37,-1.64l5.07 -4.05c1.74,-1.54 3.22,-2.73 4.84,-4.36 1.53,-1.53 2.95,-2.94 4.4,-4.81l3.23 -3.62c0.51,-0.67 0.42,-0.83 1.48,-0.8 -1.22,2.76 -2.68,4.87 -3.97,7.29l-0.91 1.47c-1.24,1.51 -5.52,4.36 -7.64,6.26 -1.4,1.26 -3.52,3.38 -5.13,4.26zm-152.22 -19.53c1.32,0.25 5.4,5.28 6.63,6.8 2.88,3.54 6.47,6.04 9.59,8.82 0.91,0.81 1.76,1.26 2.63,2.06 -0.37,0.83 -0.69,1.21 -1.39,1.65 -0.89,-0.52 -1.67,-1.23 -2.53,-1.95 -3.23,-2.73 -3.89,-3.52 -7.62,-6.31 -2.13,-1.58 -2.83,-2.39 -4.17,-5.03 -1.1,-2.16 -2.2,-3.62 -3.14,-6.04zm161.9 5.39c0.17,-0.82 -0.09,-0.11 0.34,-0.8l1.68 -2.58c0.51,-0.79 1.57,-2.71 2.22,-3.2 1.38,0.11 1.2,0.64 0.52,1.45l-4.76 5.13zm-159.31 -6.34l0.93 -0.5c0.74,0.56 3.89,5.63 4.02,6.14 -1.57,-0.94 -4.04,-3.87 -4.95,-5.64zm3.27 -1.41c0.98,0.22 3.6,3.18 4.46,4.05 1.5,1.5 2.97,2.76 4.48,4.25 1.39,1.38 6.07,5.17 6.48,6.27 0.43,1.16 0.19,2.8 -0.52,3.56 -1.12,-0.47 -3.48,-2.7 -4.62,-3.61 -2.44,-1.93 -9.8,-11.55 -10.28,-14.52zm143.27 18.35c-1.43,-1.58 -1.07,-3.9 1.29,-5.76l6.81 -6.17c0.97,-0.98 5.71,-6.2 6.8,-6.42 -1.53,5.55 -9.71,14.7 -14.9,18.35zm-7.27 -8.26c-0.17,-2.52 1.53,-4.47 3.1,-6.03 1,-1.01 3.95,-3.71 5.35,-4.08 -1.17,1.86 -2.57,3.48 -3.9,5.3 -0.75,1.02 -1.34,1.68 -2.01,2.68 -1.22,1.81 -1.32,1.64 -2.54,2.13zm-122.51 -10.34c1.89,0.5 5.97,4.3 7.5,6.65 2.52,3.88 0.74,4.63 -1.42,1.42 -1.53,-2.27 -4.33,-5.48 -6.08,-8.07zm-7.07 -0.93c0.72,0.18 1.4,1.14 2.24,2.21l3.92 5.06c0.56,0.83 1.32,1.9 1.33,3.04 -2.24,-2.65 -7.23,-7.38 -7.49,-10.31zm137.58 10.59c0.44,-2.11 2.28,-4.26 3.48,-5.7l3.06 -3.79c0.62,-0.71 0.61,-1.03 0.99,-0.89l-0.29 1.34c-1.38,2.89 -1.04,1.9 -2.87,4.23l-4.37 4.81zm-7.31 8.26c-2.14,-4.11 1.69,-7.33 4.81,-11.45 1.42,-1.88 6.26,-9.17 8.37,-9.28 -0.04,0.93 -2.11,2.73 -3.56,4.89l-3.18 5.32c-1.01,1.84 -2.13,3.6 -3.14,5.35 -1.16,2.02 -1.07,4.09 -3.3,5.17zm-128.64 -20.98c1.93,0.14 3.54,2.81 4.55,4.18 1.29,1.73 2.5,3.26 3.89,5.08 1.08,1.43 5.05,6.18 5.4,7.81 0.36,1.64 -0.18,2.57 -0.42,3.88 -2.04,-1.16 -2.65,-4.1 -4.88,-7.79 -0.59,-0.98 -1.06,-1.86 -1.65,-2.83 -1.6,-2.64 -2.91,-5.52 -4.95,-7.79 -0.71,-0.8 -1.78,-1.27 -1.94,-2.54zm-19.82 -0.48l7.79 -4.48c2.31,-1.63 4.56,-3.95 6.38,-6.1 0.56,0.39 4.69,5.94 4.48,6.8 -0.35,1.37 -13.67,9.57 -16.05,8.5 0.11,-1.32 1.53,-1.7 3.64,-2.97 0.78,-0.47 1.37,-0.91 2.03,-1.28 1.08,-0.61 1.16,-0.57 2.06,-1.38 -1.16,-1.05 -1.58,0.23 -5.21,2.01 -1.89,0.92 -3.81,2.25 -6.3,2.2 -0.64,-0.99 -3.31,-5.04 -3.53,-5.9 0.46,-0.4 4.75,-1.85 8.79,-4.89 1.36,-1.02 2.56,-1.9 3.99,-2.85 1,-0.66 3.28,-2.52 4.41,-2.65 0.13,3.46 -2.43,5.02 -5.33,7.39 -1.84,1.51 -6.08,4.01 -7.15,5.6zm169.25 -12.93c3.9,1.7 9.36,7.19 14.63,9.36 0.81,0.34 1.9,0.64 2.55,0.99 -0.21,0.85 -3.15,5.26 -3.77,6.08 -2.16,0.07 -6.63,-2.49 -8.78,-3.68 -2.05,-1.13 -1.65,-1.44 -2.49,-0.74 0.88,1.54 6.93,3.7 7.7,5.63 -1.06,0.77 -1.16,0.51 -3.17,-0.32 -1.96,-0.81 -2.74,-1.46 -4.35,-2.27l-4.56 -2.52c-6.77,-3.67 -3.29,-4.22 0.34,-10.2 0.53,0.58 0.9,1.01 1.45,1.57 2.18,2.18 0.76,1.4 4.73,4.48l7.95 4.54c-1.91,-2.83 -13.84,-8.29 -12.23,-12.92zm-175.6 8c0.21,-0.94 0.13,-0.53 1.7,-1.85 0.7,-0.58 1.3,-0.97 2,-1.54 1.39,-1.14 2.8,-2.04 4.12,-3.19 1.56,-1.36 6.1,-5.82 8.67,-5.69 1.1,1.87 1.32,2.63 -1.4,4.69 -3.41,2.59 -8.37,4.77 -12.28,6.84 -0.9,0.48 -1.57,1.23 -2.81,0.74zm194.41 -0.03c-1.2,0.93 -1.44,0.09 -4.76,-1.57 -2.45,-1.22 -14.08,-6.18 -12.38,-9.67 1.3,-2.66 7.34,3.12 8.85,4.46 1.55,1.36 7.65,5.71 8.29,6.78zm40.56 -9.39c-2.18,1.75 -6.71,2.69 -10.32,2.79l-0.44 1.16c-1.26,0.07 -3.08,0.66 -4.28,0.96 -1.22,0.3 -3.34,0.51 -3.97,1.39l7.45 -1.19c-1.18,2.06 -10.31,5.87 -13.35,1.48 5.38,-0.94 8.2,-3.56 11.6,-6.33 1.42,-1.16 1.1,-0.98 3,-1.48 2.6,-0.69 7.08,-4.14 8.72,-4.95 1.02,0.65 4.9,3.39 5.38,4.2 -5.9,0.43 -5.6,0.39 -11.43,-0.01 1.07,0.97 5.81,1.78 7.64,1.98zm-279.31 -2.39c1.87,-1.24 3.42,-2.85 5.38,-3.99 6.84,5.24 9.25,4.55 11.62,6.51 2.31,1.91 5.13,4.2 8.06,5.39 0.82,0.33 3.34,0.84 3.63,1.02 -5.34,4.82 -13.05,-0.74 -13.6,-1.61 1.78,0.3 5.89,1.25 7.69,1.11 -1.72,-1.39 -7.45,-1.41 -8.69,-2.77 -0.52,-0.58 0.65,0 -0.45,-0.51l-5.24 -0.87c-1.46,-0.34 -3.52,-1.1 -4.42,-1.94 0.05,-0.03 0.14,-0.12 0.16,-0.08 0.03,0.06 0.13,-0.05 0.17,-0.07 0.03,-0.01 0.12,-0.05 0.17,-0.06l1.17 -0.22c0.85,-0.13 1.14,-0.19 2.03,-0.35 1.17,-0.21 2.58,-0.47 3.54,-1.06 -2.68,-0.23 -9.61,0.56 -11.22,-0.5zm263.57 1.41c-1.5,2.57 -1.96,3.1 -4.73,4.48 -2.95,1.46 -3.98,1.89 -8.02,1.88 -2.49,0 -4.69,-0.84 -5.2,-2.83 0.28,-0.9 1.71,-2.3 2.34,-3.01 1.01,0.39 3.69,0.42 4.94,0.61 -0.49,-0.82 -2.74,-1.99 -3.7,-2.57 0.66,-1.5 1.75,-3.32 2.54,-4.73 0.29,-0.5 0.93,-2.53 1.74,-1.27 0.16,0.23 0.37,2.53 0.64,3.19 0.6,1.48 2.11,3.28 3.46,4.08 2.13,1.25 3.63,0.63 5.99,0.17zm-233.43 0.81c4.15,0.38 4.4,-2.14 7.33,2.48 -1.8,3.77 -6.63,3.48 -9.99,2.45 -1.5,-0.46 -3.46,-1.39 -4.69,-2.17 -2.06,-1.31 -2.09,-1.46 -3.27,-3.59 2.9,-0.05 3.97,1.85 7.28,-1.47 0.78,-0.79 1.54,-1.49 2.01,-2.7 0.39,-1.02 0.6,-5.96 2.23,-2.61 0.61,1.25 2.48,4.3 2.66,5.14l-3.56 2.47zm209.12 6.49c0.24,-2.8 5.61,-10.25 7.65,-13.58 0.79,-1.3 1.96,-3.24 3.44,-3.64 2.84,1.99 -1.46,6.16 -3.88,9.33 -1.14,1.5 -2.13,2.77 -3.38,4.18 -0.8,0.92 -2.73,3.44 -3.83,3.71zm-206.74 -17.44c1.83,0.82 2.44,1.9 3.49,3.57 0.98,1.54 1.73,2.84 2.74,4.34 0.96,1.42 1.88,2.87 2.75,4.33 0.83,1.39 2.18,2.93 2.08,5.16 -2.11,-1.28 -8.48,-9.83 -10.32,-12.26 -1.18,-1.55 -2.59,-3.3 -0.74,-5.14zm223.29 0.23c3.4,-1 5.28,-1.13 8.19,-3.35 2.48,-1.9 3.1,-0.18 7.4,2.59 1.49,0.96 3.74,1.68 5.09,2.61l-2.28 1.71c-4.89,4.01 -0.64,1.72 -7.34,4.69 -3.5,1.56 -6.2,1.46 -8.92,-1.24 -1.01,-1 -1.06,-1.06 -0.96,-2.98 2.09,-0.12 7.93,2.05 12.44,-0.75 -1.49,-0.99 -11.86,2.27 -13.62,-3.28zm-242.12 3.1c1.84,1.5 7.2,1.61 9.22,1.21 1.01,-0.21 2.07,-0.88 2.99,-0.31 0.89,1.81 -1.67,3.9 -2.8,4.5 -1.79,0.94 -4.8,0.53 -6.8,-0.32 -7.47,-3.18 -3.58,-1.75 -8.41,-5.52 -0.73,-0.57 -0.81,-0.27 -1.07,-1.02l9.57 -5.76c2.45,-0.84 2.97,1.99 7.78,3.25 1.11,0.29 2.26,0.3 3.11,0.85 -2.57,4.82 -9.13,2.7 -13.59,3.12zm211.62 4.88c-0.73,-0.12 -1.04,-0.36 -1.62,-0.68 0.27,-1.38 3.53,-6.62 4.57,-8.39 0.51,-0.86 1.15,-2.31 2.41,-1.46 1.95,1.32 -0.46,3.73 -1.7,5.47 -1.28,1.78 -2.39,3.4 -3.66,5.06zm-171.56 -10.8l5.63 9.89c-0.52,0.31 -0.94,0.55 -1.61,0.7l-5.96 -8.21c-0.68,-1.59 0.38,-2.45 1.94,-2.38zm188.82 8.92c0.06,-0.26 4.67,-9.78 5.71,-8.74 0.62,0.62 -5.46,8.56 -5.71,8.74zm-202.26 -0.47c-0.61,-0.37 -6.1,-7.89 -5.69,-8.3 1.25,-1.26 5.69,8.3 5.69,8.3zm192.79 -3.54c-0.03,-0.05 -0.07,-0.18 -0.08,-0.15 -0.03,0.11 -0.83,-1.87 -0.12,-4.06 0.48,-1.51 0.89,-2.29 2.55,-2.58 0.11,1.76 -1.56,5.24 -2.35,6.79zm-187.56 -6.52c0.27,0.29 0.01,-0.04 0.3,0.33 0.11,0.15 0.16,0.2 0.28,0.39 0.23,0.39 0.38,0.75 0.56,1.1l4.52 10.82c0.77,2.32 1.07,2.46 -0.53,4.23 -1.27,-1.4 -5.37,-14.09 -5.13,-16.87zm186.87 16.91c-1.76,-1.13 -1.11,-2.45 -0.5,-4.27 0.54,-1.62 1.13,-2.8 1.75,-4.38 0.97,-2.44 2.43,-6.55 3.92,-8.28 -0.12,2.95 -3.64,15.27 -5.17,16.93zm-182.46 -10.66l-0.42 -0.67c-0.13,-0.28 -0.19,-0.51 -0.34,-0.84l-1.41 -3.57c-1.25,-3.09 1.86,-1.14 2.34,0.98 0.32,1.41 0.52,3.03 -0.17,4.1zm184.58 12.07c1.41,-2.74 3.7,-5.79 5.82,-9.97 2.12,-4.18 2.09,-4.44 3.36,-8.44 0.35,-1.1 0.28,-2.23 0.97,-3.05 2.41,0.73 -0.17,4.59 -0.71,5.66 -2.59,5.11 -2.47,5.3 -5.87,10.89 -1.02,1.68 -2.45,4.66 -3.57,4.91zm-196.11 -21.68c0.03,0.05 0.07,0.07 0.08,0.15 0.01,0.09 0.06,0.13 0.07,0.16 0,0.01 1.83,7.01 4.07,11.27l5.91 10.08c-0.67,-0.15 -0.81,-0.31 -1.17,-0.9 -0.3,-0.47 -0.43,-0.86 -0.76,-1.36l-8.32 -15.05c-0.87,-1.7 -1.74,-3.41 0.12,-4.35zm239.8 4.03c2.02,0.92 9,-0.02 10.1,-1.43l-9.38 -0.28c0.67,-1.7 1.36,-4.73 2.32,-6.1 1.69,0.35 10.66,4.12 11.99,4.97 -0.94,2.32 -6.01,5.76 -8.03,6.06l-4.42 0.05c-3.1,-0.24 -2.8,-2.01 -2.58,-3.27zm-276.38 -8.04l1.7 4.68c0.28,0.8 0.57,1.38 -0.16,1.57 -2.82,0.74 -6.38,0 -8.8,0.15 1.37,2.12 7.25,1.87 10.07,1.59l0.54 1.42c-2.03,2.83 -7.45,2.07 -9.15,1.1 -1.25,-0.71 -4.1,-2.61 -5.11,-3.62 -0.54,-0.53 -0.75,-1.17 -1.32,-1.73 0.68,-0.61 11.04,-4.91 12.23,-5.16zm5.22 1.91c0.34,1.85 3.39,5.57 3.74,7.28 -0.41,0.58 -1.79,1.45 -2.58,1.64 -0.47,-0.83 -0.81,-1.17 -1.36,-1.93 -0.36,-0.51 -1.04,-1.68 -1.31,-2.24 -1.02,-2.12 -1.84,-5.66 -2.05,-8.11 -0.15,-1.66 -0.16,-2.05 1.17,-2.34 4.26,-0.96 11.59,-2.01 11.58,4 -0.01,1.16 0.13,2.46 -0.31,3.26 -0.72,1.29 -3.1,2.13 -4.88,1.46 -1.79,-0.68 -2.38,-2.26 -4,-3.02zm267.6 8.94c-0.92,-0.24 -1.81,-0.97 -2.56,-1.44 0.93,-2.15 3.68,-6.07 3.94,-7.49 -1.55,0.88 -2.39,2.42 -3.77,3 -0.73,0.31 -1.99,0.37 -2.96,0.17 -1.06,-0.22 -1.66,-0.63 -2.16,-1.38 0,-0.01 -2.93,-8 5.14,-7.96 2.3,0 4.51,0.2 6.21,0.62 1.66,0.42 1.22,1.92 0.54,5.17 -0.49,2.31 -0.65,3.26 -1.63,5.21 -0.7,1.38 -1.73,3.29 -2.75,4.1zm-241.23 -5.2c0.19,4.12 -5.59,4.35 -9.51,1.75 -3.06,-2.03 -4.06,-7.38 -3.92,-11.2 0.08,-2.37 1.31,-3.13 3.77,-3.78 1.81,-0.47 5.11,-0.44 6.6,0.05 2.84,0.92 0.42,4.9 4.51,6.81 0.84,0.4 1.91,0.58 2.59,1.18 -0.18,2.56 -3.31,4.07 -6.37,1.89 -2.13,-1.53 -4.06,-3.04 -6.36,-4.46 0.28,1.05 3.08,3.55 3.82,4.4 1.94,2.22 2.87,1.88 4.87,3.36zm216.23 0.01c5.46,-3.11 2.86,-1.28 6.76,-5.26 0.52,-0.52 1.57,-1.74 1.91,-2.28 -2.69,0.6 -6.65,6.28 -10.44,5.28 -1.84,-0.48 -1.88,-1.42 -2.46,-2.93 2.26,-1.18 2.83,-0.47 4.62,-2.67 1.75,-2.14 -0.93,-7.34 9.13,-5.23 2.77,0.58 3.6,1.43 3.78,3.77 0.26,3.22 -0.91,9.24 -3.59,11.02 -4.03,2.67 -9.9,2.84 -9.71,-1.7zm-17.74 0.93c-3.95,2.25 -6.53,-0.03 -7.8,-3.5 -1.04,-2.85 -1.41,-9.21 0.03,-11.6 3.52,0.74 10.37,2.26 12.55,5.15 1.53,2.03 4.31,5.98 0.82,7.52 -2.65,1.17 -4.47,-1.45 -5.65,-2.45 -0.73,-0.61 -0.99,-0.78 -1.64,-1.43 -0.54,-0.53 -2.66,-2.88 -2.98,-3.08 0.05,2.48 4.6,7.86 4.67,9.39zm-172.98 -15.09c1.57,3.26 1.63,16.27 -5.4,15.79 -1.35,-0.09 -1.65,-0.25 -2.37,-0.93 0.07,-1.05 0.68,-1.63 1.17,-2.36 0.52,-0.77 0.76,-1.39 1.28,-2.26 0.71,-1.2 1.97,-3.42 2.26,-4.81 -0.54,0.39 -2.23,2.33 -2.89,2.99 -1.01,1.03 -2,1.85 -3.06,2.84 -3.49,3.28 -9.38,1.05 -3.63,-6.22 1.13,-1.43 1.58,-1.73 3.45,-2.46 1.97,-0.77 6.89,-2.67 9.19,-2.58zm1.44 -2.13c0.77,-0.69 2.96,-1.58 4.04,-0.51 0.85,0.84 0.74,3.21 0.67,4.76 -0.07,1.45 -0.57,3.12 -1.28,4.14 -0.52,0.76 -1.98,2.2 -2.93,2.43 1.4,-3.5 -0.58,-8.34 -0.5,-10.82zm161.63 10.82c-1.07,-0.22 -2.38,-1.58 -2.96,-2.42 -1.05,-1.52 -1.97,-7.19 -0.43,-8.75 1.11,-1.14 2.99,-0.17 4.1,0.34 -0.38,1.97 -1.05,5.96 -0.97,7.82 0.05,1.09 0.28,2.31 0.26,3.01zm67.02 -8.68c-2.41,0.44 -6.7,2.9 -8.92,2.78 -0.25,-5 -0.02,-5.71 4.87,-6.86 2.91,-0.69 7.75,-0.63 10.41,0.76 0.11,2.05 -3.98,7.79 -5.26,9.57 -0.78,1.08 -1.25,1.93 -2.78,2.18 -1.64,0.27 -2.97,-0.25 -3.93,-0.94 -1.88,-1.36 -0.79,-1.85 0.25,-2.74l5.36 -4.75zm-301.58 -3.52c0.79,-0.13 1.44,-0.35 2.27,-0.59 0.95,-0.27 1.57,-0.31 2.61,-0.47 2.91,-0.44 8.66,0.7 9.91,2.03 0.65,0.69 0.84,4.01 0.76,5.34 -1.48,-0.09 -7.33,-2.35 -8.92,-3 0.21,0.88 0.73,0.97 1.45,1.55 1.19,0.95 4.4,3.39 5.11,4.54 -0.42,0.91 -0.51,1.3 -1.5,1.79 -0.9,0.45 -1.66,0.71 -2.57,0.65 -2.69,-0.2 -3.03,-1.19 -4.17,-2.91 -0.92,-1.37 -1.83,-2.61 -2.68,-4.17 -0.44,-0.81 -0.86,-1.48 -1.34,-2.2 -0.77,-1.19 -0.45,-1.57 -0.93,-2.56zm79.77 5.14c-0.24,-0.37 -0.11,-0.04 -0.3,-0.65 -0.11,-0.33 -0.12,-0.39 -0.16,-0.79 -0.13,-1.11 -0.5,-4.28 -0.3,-4.96 0.25,-0.86 1.96,-4.59 2.34,-5.08 0.44,2.06 0.42,4.23 0.07,6.3 -0.42,2.45 -0.48,3.37 -1.65,5.18zm-10.37 -4.92c0.37,-1.83 0.92,-1.27 0.91,-4.05 -0.01,-1.74 0.88,-2.35 1.88,-3.02l1.64 5.6 -4.43 1.47zm212.38 5.39c0.24,-1.05 0.97,-1.99 1.15,-3.02 -0.79,0.5 -3.84,3.95 -4.97,5.11 -0.32,-0.55 -0.35,-1.25 -0.6,-1.91 -0.65,-1.75 -2.69,-3.11 -0.6,-5.65 2.02,-2.45 5.95,-6.02 9.13,-6.72 1.85,-0.4 2.42,0.99 3.16,2.1 1.27,1.93 2.99,4.96 2.85,7.98 -0.55,0.23 -0.35,-0.06 -0.68,-0.07l-0.73 2.88 -6.07 0.01c0.73,-1.94 1.95,-7.21 2.28,-7.99 -0.88,0.34 -0.99,1.64 -2.31,3.77 -0.65,1.04 -1.74,2.96 -2.61,3.51zm-55.21 -12c0.57,0.47 2.17,4.3 2.45,5.08 0.49,1.35 -0.19,4.22 -0.39,6.65 -2.36,-1.36 -2.23,-9.02 -2.06,-11.73zm-203 12.69l-5.85 0.03c-0.19,-1.12 -0.47,-2.09 -0.75,-3.07l-0.63 0.11c-0.18,-2.98 1.47,-6.19 2.67,-7.99 1.76,-2.63 2.41,-2.98 6.61,-0.51 2.22,1.31 4.16,3.04 5.63,4.98 2.15,2.83 0.68,2.94 -0.4,5.47 -0.3,0.69 -0.4,1.62 -0.65,2.28 -1.38,-1.32 -3.79,-4.3 -4.96,-5.03 0.3,1.36 0.93,1.87 1.18,3.02 -1.65,-0.99 -4.18,-6.62 -4.91,-7.46 0.07,2.64 2.12,5.94 2.06,8.17zm227.25 0.45c-1.22,-0.51 -4.92,-3.03 -5.37,-3.99 -1.27,-2.71 3.62,-6.14 5.41,-8.46 2.93,-3.81 4.02,-2.01 5.37,-0.65 2.91,2.92 4.13,4.88 5.04,9.35 0.66,3.2 -0.4,5.49 -2.57,6.69 -2.29,1.27 -5.03,-1.21 -5.42,-3.41 -0.5,-2.78 0.56,-5.6 0.63,-8.4 -1.3,0.96 -2.6,7.51 -3.09,8.87zm-193.47 -0.21c-0.63,-1.34 -1.85,-7.45 -3.04,-8.88 -0.23,3.48 2.42,8.83 -1.35,11.37 -0.97,0.66 -2.25,1.26 -3.56,0.53 -4.81,-2.67 -2.25,-9.99 0.12,-13.42 0.73,-1.05 1.37,-1.64 2.21,-2.5 3.43,-3.45 3.52,-1.26 7.8,2.95 0.78,0.78 1.49,1.65 2.19,2.53 0.69,0.85 1.61,1.92 1.08,3.21 -0.57,1.39 -3.95,3.55 -5.45,4.21zm210.56 -4.02c0.73,-1.24 3.2,-5.04 3.48,-6.31l-3.43 3.85c-0.77,1.02 -2.45,4.07 -4.38,2.29 -0.37,-0.34 -1.16,-1.7 -1.37,-2.18 -0.58,-1.31 -0.59,-1.5 0.28,-2.52 3.51,-4.13 4.1,-4 9.66,-5.18 3.49,-0.75 2.13,-0.74 2.69,1.92 0.63,2.99 0.32,2 0.11,4.87 -0.1,1.36 0.32,2.44 -0.58,3.21 -1.27,1.08 -4.51,0.16 -6.46,0.05zm-227.82 0.01c-1.85,0.08 -2.83,0.3 -4.47,0.29 -1.94,-0.01 -2.31,-0.46 -2.36,-2.38 -0.08,-3.41 -0.95,-2.49 0.04,-6.11 0.25,-0.9 0.16,-1.27 0.24,-2.35 1.71,-0.09 6.68,1.23 7.99,1.84 1.18,0.54 5,3.9 4.84,5.11 0,0 -1.76,6.03 -4.91,2.75 -0.5,-0.52 -0.59,-0.73 -1.01,-1.35l-3.64 -4.15c0.43,1.86 3.03,4.98 3.28,6.35zm198.5 -2.33c-0.52,-0.04 -3.87,-1.04 -4.43,-1.46 0.6,-1.46 1.5,-3.79 1.63,-5.57 0.55,0.31 0.86,0.71 1.34,1.17 1.5,1.5 0,1.52 0.79,3.92 0.33,1 0.55,0.93 0.67,1.94zm2.14 0.43c-2.97,-2.18 -1.34,-8.51 -0.21,-11.47 0.59,0.68 0.95,1.04 1.56,1.65l4.76 5.37 -2.96 4.43c-0.73,-1.67 -1.28,-3.75 -2.22,-5.12 -0.59,1.31 0.13,3.62 -0.93,5.14zm-176.55 -0.22c-0.63,-1 -2.56,-3.42 -2.82,-4.46l6.31 -7.02c0.29,2.03 3.42,9.95 -0.41,11.46 -0.35,-0.66 -0.66,-3.73 -0.76,-4.85 -1.1,1.34 -1.32,3.46 -2.32,4.87zm-122.94 -6.11c-0.4,-2.09 0.18,-5.92 0.66,-7.35 0.65,-1.92 1.71,-3.82 2.83,-5.2 2.19,-2.68 5.81,-5.22 10.24,-5.81 8.99,-1.19 16.75,4.68 18.19,14.03 0.82,5.33 -0.97,9.29 -3.43,12.3 -2.12,2.6 -5.98,5.37 -10.34,5.69 -9.29,0.67 -16.41,-4.38 -18.15,-13.66zm392 -0.24c-0.77,-4.11 1.13,-9.27 3.62,-12.41 2.08,-2.64 5.98,-5.28 10.32,-5.73 10.01,-1.05 17.02,5.94 18.08,14.19 1.22,9.48 -5.99,17.37 -14.11,17.86l-3.53 0.01c-1.31,-0.08 -2.3,-0.36 -3.34,-0.68 -5.85,-1.77 -9.86,-6.85 -11.04,-13.24zm-326.36 -7.26l8.59 1.68c3.14,0.67 2.93,0.8 2.36,4.53 -0.17,1.13 -0.33,2.4 -0.65,3.36 -1.25,-0.74 -5.27,-3.71 -6.34,-3.93l3.05 4.22c-1.16,1.13 -5.4,1.9 -6.56,-1.21 -0.86,-2.29 -0.62,-5.92 -0.45,-8.65zm294.46 0.21c0.17,3.1 0.23,6.57 -0.64,8.74 -0.95,2.33 -4.7,2.64 -6.41,1.14 0.27,-1.04 2.24,-2.97 2.81,-4.24 -0.96,0.26 -5.35,3.29 -6.34,3.99 -0.09,-1.76 -0.5,-3.24 -0.68,-4.75 -0.39,-3.07 0,-2.93 6.5,-4.03 1.09,-0.19 3.6,-0.88 4.76,-0.85zm-243.52 -0.71c0.8,0.52 3.81,5.49 4,6.34l-1.36 1.47c-1.34,-0.35 -2.41,-1.85 -2.98,-3.02 -0.79,-1.61 -0.36,-3.56 0.34,-4.79zm-15.53 4.94c-0.97,-1.29 -0.33,-1.9 0.24,-3.25l0.57 0.69 0.09 1.83 -0.9 0.73zm205.5 3.05c-2.57,-1.66 -1.03,-2.55 1.38,-6.41 1.05,-1.69 0.6,-1.15 1.22,-1.36 1.6,3.38 0.05,6.49 -2.6,7.77zm-169.02 3.31c-0.73,0.12 0.56,-0.41 -0.68,-0.25 -0.49,0.06 -1,0.34 -1.63,0.46 -0.35,-0.65 -1.16,-4.14 -1.18,-5.17 1.01,-0.87 4.18,-2.93 5.42,-3.52 0.05,1.81 -1.32,6.63 -1.93,8.48zm186.74 -9.39c0.34,0.35 0.52,0.87 0.71,1.36 0.36,0.9 0.37,0.94 -0.25,1.65 -0.69,-0.18 -0.98,-0.36 -1.11,-1.25 -0.12,-0.81 0.31,-1.34 0.65,-1.76zm-38.23 0.92c1.08,0.49 4.73,2.95 5.64,3.75 -0.37,1.68 -0.88,3.41 -1.22,5.14 -2.57,-1.07 -1.8,-0.28 -2.3,-0.42 -0.65,-1.29 -1.97,-6.83 -2.12,-8.47zm17.67 2.29c-0.32,-0.22 -2.11,-2.21 -2.29,-2.54 1.03,-0.67 2.08,-1.28 3.15,-1.99 1.17,-0.77 1.71,-1.79 3.6,-1.78 0.05,1.68 -1.25,2.53 -2.03,3.34 -0.87,0.91 -1.65,2.02 -2.43,2.97zm-186.21 -6.55c1.78,0.12 2.23,0.99 3.38,1.81 1.12,0.79 2.48,1.2 3.24,2.19 -0.27,0.41 -1.73,2.06 -2.12,2.34l-3.76 -4.25c-0.56,-0.72 -0.71,-0.81 -0.74,-2.09zm198.97 6.12c-1.57,-0.41 -3.66,-0.99 -4.93,-1.65 0.93,-2.3 2.02,-4.38 3.32,-6.33 0.95,-1.43 3.34,-4.61 4.91,-4.98 1.33,1.8 2.52,3.77 3.49,6.17 0.6,1.49 0.01,2.63 -0.23,4.16 -0.26,1.63 -0.37,2.53 -0.46,4.48 -3.33,0.18 -3.64,-4.6 -4.03,-7.69 -0.79,0.94 -1.03,1.09 -1.38,2.52l-0.35 2.48c-0.19,0.74 -0.08,0.41 -0.34,0.84zm-213.55 1.86c-0.13,-2.38 0.42,-0.35 -0.24,-4.25 -0.25,-1.46 -0.84,-2.91 -0.44,-4.13 0.78,-2.35 2.44,-5.02 3.72,-6.66 3.55,2.07 6.33,7.28 8.21,11.49l-4.91 1.49c-0.02,0 -0.1,-0.02 -0.11,-0.02 -0.39,-0.02 -0.36,-1.37 -0.38,-1.65 -0.05,-0.59 -0.13,-0.96 -0.31,-1.58 -0.27,-0.95 -0.64,-1.97 -1.3,-2.39 -0.94,1.56 -0.05,7.78 -4.24,7.7zm197.73 -4.68c-0.78,-0.19 -0.62,-0.32 -1.41,-0.47 -0.37,0.53 -0.45,0.43 -0.78,1.1 -0.15,0.33 -0.12,0.35 -0.25,0.68 -0.33,0.77 0.04,0.18 -0.41,0.76 -1.88,-0.72 -2.1,-0.99 -2.88,-2.95 -0.93,-2.36 -1.11,-2.51 -1.11,-5.5 0,-2.21 1.6,-6.84 2.62,-7.97 0.83,0.44 8.27,8.96 8.9,10.08 -0.85,0.66 -1.4,1.42 -2.31,2.14 -0.66,0.51 -1.95,1.49 -2.37,2.13zm-172.75 1.87c-0.72,-0.81 -0.57,-1.77 -1.37,-2.17 -1.5,-0.73 -0.54,0.96 -2.35,-0.7 -1.17,-1.06 -3.06,-2.32 -3.83,-3.49 0.85,-1.28 7.77,-9.3 8.73,-9.89 1.53,0.96 2.88,7.08 2.85,8.7 -0.03,1.91 -1.3,7.01 -4.03,7.55zm206.97 -1.16c-1.06,1.22 -1.62,2.03 -3.53,1.17 -0.01,-4.36 7.28,-9.96 11.79,-9.89 1.13,1.58 3.18,5.13 3.76,7.33 0.02,0.09 0.1,0.47 0.12,0.57 0.31,1.42 0.66,2.06 -0.1,3.16 -1.47,-0.39 -1.49,-1.35 -3.14,-0.07 -0.72,0.56 -1.94,1.36 -2.76,1.7 -1.92,-3.35 -2.03,-2.87 -1.18,-4.69 0.47,-1 1.91,-4.1 2.09,-5.14 -0.99,0.58 -1.9,2.54 -2.6,3.69 -1.33,2.19 -1.26,2.17 -4.45,2.17zm-6.61 -11.31c0.63,1.26 1.18,4.05 1.2,5.86 0.01,1.16 0.02,2.41 0,3.56 -0.02,1.47 -0.23,2.09 -1.67,2.1 -0.66,-0.74 -2.78,-4.87 -3.15,-6.06 -0.5,-1.56 2.69,-5.24 3.62,-5.46zm-243.78 15.06c-1.37,-0.64 -1.62,-1.06 -2.72,-1.76 -1.77,-1.12 -2.41,0.45 -3.17,0.12 -1.36,-2.61 2.86,-9.56 4.02,-11.05 0.61,0.24 1.34,0.23 2.08,0.45 2.05,0.63 3.75,1.5 5.38,2.89 7.64,6.53 2.66,9.15 0.8,5.37 -2.74,0.14 -2.98,0.55 -4.38,-1.8 -0.97,-1.64 -1.54,-2.68 -2.68,-4.06 0.02,1.12 1.43,3.97 1.92,5.07 0.72,1.62 0.82,2.42 -1.25,4.77zm13.45 -3.55c-1.16,-0.06 -0.81,-0.19 -1.62,-0.68 -0.04,-1.18 -0.12,-2.04 -0.21,-2.91 -0.14,-1.29 0.43,-6.6 1.35,-8.14 0.69,0.39 4.02,3.95 3.58,5.39 -0.56,1.85 -2.18,4.63 -3.1,6.34zm-12.25 -15.5c3.19,1.14 4.02,1.54 6.41,3.9 1.77,1.74 3.3,4.7 1.59,7.6 -0.8,-0.3 -0.08,0.07 -0.67,-0.5 -1.64,-1.58 -2.34,-2.74 -4.62,-4.11 -1.17,-0.71 -2.66,-0.8 -2.92,-2.02 -0.33,-1.51 0.16,-3.67 0.21,-4.87zm257.96 4.44c0.77,-0.47 10.95,-4.66 11.77,-4.73 1.46,2.2 0.99,6.26 0.95,8.97 -0.04,2.34 -0.36,2.34 -1.97,3.23 -0.03,0.02 -4.62,3.2 -4.33,-0.07 0.15,-1.63 1.19,-3.47 1.05,-5.22 -0.83,0.95 -2.15,4.45 -4.23,2.56 -0.56,-0.51 -2.9,-3.94 -3.24,-4.74zm-11.59 7.27c-1.67,-2.64 -0.58,-5.53 1.23,-7.46 1.17,-1.24 4.37,-3.93 6.75,-4.03 0.62,8.83 -0.22,3.61 -5.45,8.87 -0.56,0.55 -2.13,2.37 -2.53,2.62zm-257.44 -5.1c-0.13,1.37 0.23,2.01 0.53,3.15 0.4,1.54 1,3.58 -1.01,3.4 -0.54,-0.05 -0.82,-0.25 -1.23,-0.46 -4.04,-2.05 -3.76,-1.61 -3.76,-8.27 0,-1.84 0.56,-3.28 0.96,-4.93 1.67,0.28 9.3,3.85 11.97,4.73 -5.1,8.49 -4.92,5.31 -7.46,2.38zm232.88 1.58c-2.13,0.1 -6.36,-2.76 -2.73,-8.15 1,-1.48 1.83,-2.68 2.91,-4.18 0.92,-1.27 2.24,-2.95 3.41,-3.65 2.55,3.17 3.38,5.09 4.26,9.1 0.33,1.52 0.72,4.24 -0.14,5.63 -0.44,0.72 -3.41,2.26 -4.37,2.42 -0.23,-1.38 -0.57,-7.1 -0.95,-7.71 -1.16,1.65 -1.47,4.78 -2.39,6.54zm-192.6 1.15c-4.12,-1.76 -5.75,-1.87 -4.62,-7.91 0.7,-3.78 2.13,-6.72 4.18,-9.28 0.98,0.3 1.39,0.8 1.93,1.61 2.97,4.45 8.77,8.93 4.28,13.34 -0.88,0.87 -1.03,0.91 -2.64,0.84 -0.52,-1.58 -1.5,-5.52 -2.35,-6.55 -0.42,2.33 -0.65,5.53 -0.78,7.95zm203 -5.88c-1.54,-2.63 -1.8,-4.58 0.69,-6.35 1.51,-1.08 4.75,-2.35 6.85,-2.82l1.33 7.41c0.3,2.13 -0.02,1.9 -0.95,3.1 -0.8,1.03 -1.01,1.64 -2.25,2.18 -3.66,-4.58 -1.54,-3.98 -1.7,-6.97 -1.79,1.93 0.35,0.32 -2.73,2.84 -0.57,0.46 -0.39,0.45 -1.24,0.61zm-215.95 3.33c-1.25,-0.36 -1.31,-1.24 -2.07,-2.16 -1.02,-1.26 -1.22,-0.99 -0.99,-3 0.28,-2.46 0.74,-5.13 1.23,-7.52 2.83,1.03 4.09,1.06 6.78,2.78 2.83,1.8 2.26,3.96 0.7,6.56 -1.09,-0.59 -2.47,-1.52 -3.07,-2.54 -0.34,-0.58 -0.38,-0.74 -0.89,-1.16 0.18,1 0.83,3.09 0.48,4.02 -0.27,0.74 -1.65,2.66 -2.17,3.02zm317.72 -7.75l3.66 -2.92c3.43,-3.03 6.69,-8.41 6.93,-13.13 6.77,-0.09 11.53,-1.11 11.53,5.87l0 18.4c0,7.84 -1.71,8.62 -11.54,8.01 -0.19,-5.14 -3.55,-10.01 -6.81,-13.26 -1.22,-1.22 -2.56,-1.88 -3.77,-2.97zm-425.94 16.23c-13.2,0.1 -11.67,-0.04 -11.67,-15.79 0,-3.63 0,-7.25 0,-10.87 -0.01,-6.75 5.14,-5.67 11.53,-5.64 0.58,1.71 0.39,2.22 1.49,5.15 1.4,3.72 4.08,6.99 7.14,9.37 0.72,0.55 1.37,0.91 2,1.51l-3.59 2.99c-1.3,1.13 -2.29,2.3 -3.23,3.63 -1.08,1.53 -3.94,7.06 -3.67,9.65zm336.43 -12.03c-1.11,-1.26 -0.2,-1.25 -1.62,-2.35 1.12,-2.92 -1.3,-3.23 3.65,-5.29 2.3,-0.96 4.32,-1.92 7.39,-1.76l0.03 4.69c-1.06,0.72 -1.88,0.56 -3.74,1.73 -0.23,0.14 0,0.09 -0.59,0.33 -0.87,0.35 -0.11,0.04 -0.58,0.14 -1.63,0.34 -2.96,1.78 -4.54,2.51zm-244.01 -9.63c2.81,-0.15 6.32,1.39 8.48,2.32 1.73,0.75 1.88,1.11 2.26,3.21 0.3,1.72 0.22,1.13 -0.42,2.17 -0.42,0.67 -0.5,1.25 -0.9,1.91 -1.14,-0.67 -3.47,-2.42 -4.47,-2.66 -0.5,-0.13 -0.18,0.15 -1.02,-0.28 -0.57,-0.3 -0.54,-0.41 -1.18,-0.73 -0.9,-0.45 -1.9,-0.61 -2.74,-1.03l-0.01 -4.91zm337.71 -11.6c-0.47,2.56 -0.64,3.72 -2.02,6 -5.79,9.57 -19.05,10.62 -26.23,1.95 -9.51,-11.48 0.68,-28.54 14.67,-26.23 9.21,1.52 15.14,9.89 13.58,18.28zm-392 -0.23c-0.28,1.43 -0.23,2.04 -0.7,3.31 -0.37,0.98 -0.77,1.8 -1.26,2.74l-1.65 2.37c-10.31,12.13 -30.28,3.39 -28.19,-12.61 1.8,-13.83 19.35,-19.11 28.31,-8.14 2.29,2.8 4.48,7.35 3.49,12.33zm398.39 -37.5c3.48,-0.21 8.67,-0.65 10.47,1.75 1.77,2.35 1.07,7.55 1.07,11.2 0,4.09 -0.01,8.18 0,12.27 0.02,8.14 -3.63,7.1 -11.53,7.07 -0.26,-4.77 -3.49,-10.18 -6.7,-13.14 -1.28,-1.18 -2.44,-1.96 -3.91,-2.91 0.57,-0.84 3.61,-2.16 6.84,-6.56 1.59,-2.17 3.6,-6.28 3.76,-9.68zm-402.59 16.04c0.6,-0.49 1.23,-0.85 1.94,-1.34 0.84,-0.58 1.05,-0.97 1.76,-1.54 5.72,-4.67 6.72,-12.57 7.11,-13.18l105.73 -0.01c0.95,1.53 0.98,4.62 6.06,10.93 2.59,3.23 5.03,3.8 8.87,3.05 1.21,-0.24 2.59,-0.75 3.7,-0.74 0.36,0.72 0.58,2.38 1.02,3.45 0.52,1.3 0.74,1.88 1.45,3.04 2.71,4.4 8.64,9.81 13.26,11.76 0.76,0.32 0.9,0.37 1.45,0.8l-141.75 0.04c-0.26,-5.45 -4.36,-11.53 -8.62,-14.76 -0.72,-0.54 -1.52,-0.82 -1.98,-1.5zm-36.86 16.26c-6.1,0 -8.74,0.17 -8.74,-7.08l0 -18.4c0,-7.24 3.07,-6.85 8.44,-6.85 5.3,0 2.1,0.07 4.64,5.36 0.03,0.05 0.06,0.11 0.08,0.15 0.03,0.07 0.12,0.25 0.15,0.31l2.08 3.82c2.11,3.08 4.1,4.44 6.98,6.44 -0.76,0.72 -2.35,1.55 -4.02,3.21 -1.43,1.43 -2.25,2.27 -3.43,4.12 -1.56,2.46 -2.09,3.83 -2.86,6.59 -0.77,2.76 0.58,2.33 -3.32,2.33zm311.33 -16.01c1.27,0.66 13.87,0.55 17.18,0.68l3.53 0.29c1.35,-0.07 2.69,-0.08 4.03,-0.07 1.5,0 2.12,0.27 3.76,0.26 6.13,-0.03 12.72,0.45 18.89,0.46 1.98,0 3.1,0.25 4.95,0.25 1.97,0 3.03,-0.27 4.96,-0.26l13.21 -0.24c1.79,0 3.79,-0.22 5.9,-0.22l11.33 -0.25c1.7,0 3.08,-0.3 5.14,-0.19 -0.47,0.77 -7.21,4.66 -9.04,13.76 -0.01,0.07 -0.11,0.59 -0.11,0.6l-0.18 0.53c-0.26,0.76 -7.48,0.41 -8.55,0.41l-115.17 0c-5.83,0 -12.1,0.22 -17.88,-0.02 1.29,-1.13 12.05,-5.28 16.06,-15.48 0.41,-1.04 0.69,-2.94 1.11,-3.6 2.43,0.01 4.43,1.5 7.15,1.01 4.46,-0.79 6.64,-4.72 8.77,-8.24 1.48,-2.45 2.11,-5.11 2.73,-5.99 8.69,-0.23 17.7,-0.01 26.43,-0.01l78.57 0.01c0.08,0.01 0.14,0.02 0.2,0.04 0.52,0.11 0.58,0.21 0.71,0.71 0.93,3.5 1.03,4.87 3.4,8.4 2.48,3.69 3.19,3.79 6.26,6.37l-14.8 -0.65c-2.74,-0.14 -1.56,-0.3 -5.19,-0.25 -2.13,0.03 -7.1,-0.47 -10.86,-0.47 -1.63,0.01 -2.28,-0.25 -3.77,-0.26l-12.24 0.05c-1.29,0.15 -2.24,0.22 -3.81,0.21 -1.69,-0.01 -2.44,0.22 -3.77,0.26 -7.8,0.25 -15.61,0.52 -23.39,1.14 -2.56,0.21 -5.2,0.03 -7.74,0.3 -2.37,0.24 -5.2,0.37 -7.77,0.46zm121.73 -17.26c-0.86,4.82 -2.03,7.02 -5.73,10.32 -2.54,2.27 -7.63,4.22 -12.28,3.44 -14.56,-2.42 -18.51,-19.87 -7.91,-28.58 11.5,-9.45 28.41,0.96 25.92,14.82zm-392 -0.24c-0.27,1.34 -0.26,2.11 -0.68,3.34 -0.24,0.71 -0.88,2.18 -1.25,2.76 -10.14,15.93 -32.22,6.12 -29.88,-10.29 2.07,-14.4 21.09,-19.88 29.98,-5.77 0.12,0.19 0.23,0.38 0.34,0.62 1.28,2.89 2.16,6.03 1.49,9.34zm320.25 -20.27l14.84 -0.03 0.03 15.08 -14.84 0.03 -0.03 -15.08zm-17.21 0.01l15.07 -0.04 0.03 15.08 -15.08 0.03 -0.02 -15.07zm-259.14 -0.01l15.07 -0.03 0.03 15.08 -15.07 0.03 -0.03 -15.08zm-17.01 -0.01l15.08 -0.01 0.02 15.06 -15.07 0.04 -0.03 -15.09zm360.9 -1.18c2.76,-1.66 5.08,-3.71 6.85,-6.34 1.53,-2.28 3.71,-6.19 3.73,-9.69 6.8,-0.32 11.56,-0.39 11.56,7.76l0 17.93c0,4.32 -2.72,6.64 -6.84,6.61 -1.54,-0.01 -3.16,0.06 -4.69,-0.03 -0.27,-5.34 -4.47,-11.79 -8.67,-14.7 -0.67,-0.47 -1.55,-0.95 -1.94,-1.54zm-437.59 9.66l0 -17.93c0,-5.14 2.03,-7.81 6.84,-7.8 8.94,0 1.77,-0.18 8.65,9.78 2.79,4.05 5.31,5.01 6.88,6.49 -4.73,3.26 -6.5,4.88 -9.13,10.4l-0.24 0.47c-1.92,4.11 -0.26,5.18 -2.59,5.23 -1.16,0.02 -4.65,0.08 -5.6,-0.12 -2.82,-0.6 -4.81,-3.18 -4.81,-6.52zm370.05 -25.7l14.87 -0.02 0 15.08 -14.87 0.03 0 -15.09zm-17.21 0.01l15.1 -0.03 0 15.08 -0.96 0.03 -10.14 0 -4 -0.01 0 -15.07zm-259.14 -0.01l1.88 -0.03 11.33 0.01 1.89 0.01 0 15.07 -15.1 0.03 0 -15.09zm-17.01 0l15.1 -0.02 0 15.07 -15.1 0.04 0 -15.09zm270.44 32.28l-39.83 0.03c0.18,-1.06 1.67,-3.05 2.67,-6.99 0.85,-3.36 0.67,-4.99 0.86,-8.8 0.86,0.39 5.81,0.6 7.17,0.32 2.17,-0.45 3.72,-1.61 4.72,-3.07 2.22,-3.23 2.98,-7.94 3.72,-11.86 2.27,-0.18 4.03,-0.2 5.8,-1.28 1.58,-0.97 1.19,-0.66 3.59,-0.65 3.72,0.01 7.64,-0.13 11.33,0.02 -0.01,1.48 -0.25,2.16 -0.24,3.75l0 24.55c0,1.52 0.28,2.78 0.21,3.98zm-232.69 -32.29c3.46,-0.08 6.95,0.01 10.41,-0.02 4.07,-0.04 1.87,1.92 8.71,1.89 0.09,3.36 2.05,9.74 3.55,11.81 3.52,4.85 7.77,2.93 11.79,3.09 0.52,8.16 0.51,8.34 3.75,15.51l-38.17 0.04c0.32,-6.79 0.56,-28.28 -0.04,-32.32zm-43.42 32.29l-14.82 0.03c-0.23,-5.02 -4.49,-11.72 -8.52,-14.63 -0.69,-0.5 -1.44,-0.91 -2.09,-1.43l3.64 -2.92c3.05,-2.39 6.96,-9.18 6.94,-13.33l14.88 -0.02c-0.5,4.48 -0.33,26.09 -0.03,32.3zm319.59 -32.26l10.83 -0.04c1.88,0 2.15,-0.48 2.42,1.12 0.19,1.19 0.41,1.83 0.79,2.98 1.23,3.71 3.09,6.34 5.7,8.94 1.27,1.27 2.81,2.05 4.02,3.22 -6.37,4.25 -8.69,7.8 -10.58,15.12l-0.1 0.37c-0.02,0.05 -0.05,0.13 -0.07,0.17l-12.98 0.37c0.29,-3.27 0.47,-31.09 -0.03,-32.25zm19.34 -1.22c-1.41,-7.63 4.94,-16.97 14.12,-17.97 13.72,-1.5 23.74,13.74 14.29,26.33 -2.1,2.8 -5.91,5.03 -10.34,5.71 -8.64,1.31 -16.34,-4.68 -18.07,-14.07zm-360.15 0.23c-0.35,1.78 0.12,0.7 -0.73,3.28l-1.98 3.91c-5.81,8.38 -19.13,9.3 -25.61,0.84 -2.21,-2.87 -4.34,-7.21 -3.45,-12.66 1.43,-8.75 8.81,-14.44 18.08,-13.55 8.3,0.79 15.37,9.71 13.69,18.18zm-38.27 -5.46c-1.92,0.13 -4.14,0.04 -6.1,0.04 -6.63,0 -5.43,-0.48 -5.43,-12.98 0,-4.1 0,-8.19 0,-12.28 0,-7.85 -0.28,-7.11 11.53,-7.06 1.09,5.77 4.05,11.52 8.67,14.71 0.75,0.52 1.49,0.91 1.98,1.56l-3.67 2.93c-2.09,1.64 -4.37,5.24 -5.42,7.78 -0.83,1.99 -0.91,3.39 -1.56,5.3zm436.67 -32.26c1.89,-0.11 3.95,-0.03 5.87,-0.03 6.89,-0.02 5.66,1.25 5.66,12.03l-0.05 17.65c-0.47,3.45 -3.77,2.66 -8.68,2.65l-2.8 -0.01c-0.18,-3.44 -2.18,-7.33 -3.71,-9.53 -1.97,-2.82 -4.07,-4.63 -6.93,-6.51 2.86,-2.51 3.59,-2.06 6.9,-6.54 1.58,-2.13 3.56,-6.33 3.74,-9.71zm-328.33 19.75l-6.81 -0.22c-1.99,-0.16 -4.73,-0.28 -6.63,-0.44 -1.04,-0.09 -2.46,-0.02 -3.53,-0.01 -3.05,0.01 -6.17,-0.73 -10.49,-0.1 -1.09,0.16 -2.29,0.1 -3.44,0.09 -2.27,-0.01 -6.65,0.46 -10.39,0.46l-6.63 0.47c-2.03,0.23 -4.9,0.22 -7,0.3 0.62,0.33 18.79,0.9 21.67,0.9 2.71,0 4.76,0.25 7.31,0.24 5.17,-0.01 9.74,-0.16 14.88,-0.23 1.35,-0.02 1.99,-0.25 3.53,-0.24 1.26,0 2.52,0 3.78,0 2.61,0 4.53,-0.37 7.29,-0.21 0.03,0.7 -0.83,5.12 -0.39,8.64 0.09,0.68 0.41,2.12 0.39,2.86l-67 0.04c-1.11,-1.79 -0.47,-9.06 -10.84,-16.05 1.17,-1.03 2.52,-1.8 3.7,-2.9 3.31,-3.07 6.67,-8.41 6.93,-13.36l56.37 -0.02c2.05,3.75 1.67,-0.37 0.74,4.98 -0.63,3.64 -0.79,9.28 1.91,12.19 1.94,2.09 3.61,2 4.65,2.61zm227.53 -19.77l53.57 -0.01c4.2,0 1.69,-0.41 4.11,5.32 1.6,3.78 2.83,5.25 5.5,7.95 1.31,1.32 2.52,1.86 3.83,3.01 -2.97,1.94 -4.97,3.71 -6.97,6.47 -1.34,1.84 -2.57,4.44 -3.17,6.74 -0.2,0.74 -0.45,2.29 -0.72,2.82l-66.98 0.02c0.51,-5.09 0.81,-5.55 -0.01,-10.44l0.15 -1.43c0,0 5.19,-0.98 7.05,-2.39 2.64,-1.99 2.61,-4.28 2.99,-5.98 0.01,-0.06 0.03,-0.13 0.05,-0.19 0.26,-0.99 3.3,-0.55 4,-0.45l41.53 -0.04c2.64,-0.38 7.92,0.41 9.76,-0.51 -6.05,-0.29 -33.1,-1.78 -37.63,-1.16l-17.51 0.93c-0.05,-2.73 0.1,-4.55 -0.77,-7.35 -0.6,-1.93 -0.36,-1.06 1.22,-3.31zm62.55 -1.2c-1.42,-7.77 5.21,-17.17 14.16,-17.92 5.33,-0.44 8.74,0.86 12.13,3.42 7.37,5.6 7.32,16.31 2.16,22.9 -7.34,9.37 -25.45,8.08 -28.45,-8.4zm-360.15 0c-0.31,1.6 0.23,0.63 -0.67,3.34 -0.37,1.11 -0.7,1.89 -1.23,2.79 -2.25,3.9 -5.83,6.62 -10.24,7.72 -1.63,0.41 -4.2,0.46 -5.77,0.29 -13.36,-1.47 -19.35,-18.6 -8.11,-28.59 3.28,-2.91 7.72,-3.73 12.09,-3.48 7.99,0.46 15.69,8.97 13.93,17.93zm123 -68.16c4.61,-0.3 12.86,2.44 16.54,3.9 7.59,3.02 10.25,6.5 12.63,7.8l0.06 -2.26c4.84,2.01 12.52,6.52 16.22,10.16 0.57,0.56 0.95,0.96 1.53,1.54 2.31,2.3 7.05,7.06 7.74,10.22 -1.48,-0.17 -6.87,-2.07 -8.75,-2.61 -4.49,-1.3 -9.34,-2.35 -14.2,-3.02 -13.39,-1.85 -22.15,-0.41 -34.94,3.21 -3.18,0.91 -14.55,4.84 -16.44,6.41 0.72,-0.06 3.43,-1.07 4.23,-1.4 6.49,-2.6 16.12,-4.8 23.07,-6.19 10.92,-2.2 19.91,-1.47 30.79,0.93 2.7,0.59 5.31,1.21 7.88,2.04 1.67,0.54 6.56,1.86 7.59,2.53 -0.96,0.86 -8.83,4.01 -10.65,4.85l-18.72 8.89c-4.32,2.14 -8.51,4.65 -12.49,7.34l-6.88 4.68c-0.86,0.65 -1.39,1.12 -2.25,1.76 -6.75,5.02 -10.77,9.36 -14.64,16.98 -1.23,2.42 -4.44,8.6 -4.86,10.94 0.5,-0.42 2.27,-3.96 2.85,-4.92l4.67 -6.89c0.59,-0.76 1.17,-1.42 1.79,-2.22 10.57,-13.52 25.93,-21.73 41.01,-29.32l10.68 -4.9c3.7,-1.54 7.39,-3.31 11.15,-4.56l-0.23 33.45 -8.53 5.12c-8.63,5.11 -16.4,11.39 -22.02,19.76 -5.85,8.71 -10.34,18.82 -11.83,29.7 -0.32,2.32 -0.11,11.88 0.6,13.13 0.64,-16.99 4.93,-31.6 15.57,-43.93 0.52,-0.6 0.96,-1.2 1.52,-1.77l4.95 -4.96c1.22,-1.08 2.17,-2.08 3.49,-3.12 2.54,-2.01 4.78,-3.72 7.6,-5.62 1.54,-1.03 6.91,-4.41 8.67,-4.74 0.11,4.21 -0.22,8.29 -0.22,12.48l0 17.23c0,1.42 0.01,2.83 0,4.25l0.25 4.72c0.01,1.82 0.26,1.79 -0.77,2.79 -3.25,3.15 -6.33,6.26 -8.99,9.88 -1.08,1.47 -1.8,3.12 -2.68,4.87 -2.74,5.46 -4.53,11.31 -5.06,17.6l-0.03 11.29 0.84 -6.24c1.47,-10.81 4.8,-22.55 12.72,-30.46 1.03,-1.03 2.64,-2.69 3.94,-3.34l0.03 12.49c0,1.99 0.21,4.3 0.21,6.61 0,2.36 -0.01,4.72 0,7.08 0,1.49 0.26,1.8 0.26,3.29l-0.01 7.1c0,1.41 0.22,1.99 0.22,3.29l0.25 12.51c0,2.93 0.44,18.4 0.91,19.3 0.33,-10.94 0.56,-21.67 0.5,-32.52 -0.01,-2.26 0.24,-3.96 0.24,-6.37l0.23 -13.21c0,-6.6 -0.04,-13.18 0.32,-19.77 5.12,2.74 10.05,11.19 12.43,16.47 3.63,8.06 5.19,23.4 5.39,23.77 0.1,-11.64 0.14,-19.6 -5.94,-30.3 -3.48,-6.14 -4.52,-6.96 -9.42,-11.82 -2.86,-2.84 -2.57,-1.97 -2.54,-6.2l0.24 -37.27c5.77,3.01 11.46,6.07 16.33,10.31 1.27,1.1 2.38,1.89 3.55,3.06 0.68,0.68 0.93,0.95 1.73,1.58 1.42,1.1 6.71,7.44 7.92,9.07 6.5,8.69 9.96,17.51 11.78,28.59 0.34,2.1 0.92,11.08 1.35,11.98 0.22,-4.14 0.93,-9.12 0.36,-13.23l-0.94 -5.89c-1.48,-7.8 -6.61,-17.56 -11.02,-23.91 -7.29,-10.49 -15.6,-15.78 -26.32,-22.3 -1.01,-0.62 -3.73,-1.9 -4.49,-2.58l-0.26 -10.86c-0.21,-7.44 -0.1,-14.95 0.01,-22.39 1.63,0.76 3.64,1.42 5.36,2.16 4.51,1.95 9.05,3.7 13.44,5.92 11.65,5.86 27.08,13.26 35.89,22.16 1.35,1.36 2.79,2.3 3.98,3.81 2.33,2.97 4.69,5.24 7.04,8.53 1.6,2.25 3.21,4.59 4.53,7.04 0.39,0.73 1.07,2 1.51,2.48 -0.35,-2.54 -3.54,-8.2 -4.81,-10.75 -3.77,-7.6 -8.05,-11.59 -14.55,-16.6 -1.48,-1.13 -2.88,-2.25 -4.48,-3.3l-4.82 -3.21c-3.25,-2.13 -6.3,-3.87 -9.74,-5.83 -6.56,-3.75 -14.14,-6.82 -21,-10.16 -1.76,-0.85 -3.55,-1.6 -5.41,-2.38 -0.98,-0.4 -1.77,-0.79 -2.77,-1.23 -0.96,-0.43 -1.9,-0.69 -2.7,-1.24 2.41,-1.58 13.82,-4.29 17.2,-4.95 5.27,-1.04 14.04,-2.72 20.37,-1.79 14.13,2.09 18.29,2.96 31.72,7.46 1.14,0.39 3.14,1.29 4.26,1.36 -2.35,-2.05 -15.95,-6.21 -19.61,-7.24 -4.5,-1.28 -11.99,-3.07 -16.93,-3.14 -1.23,-0.01 -2.01,0.06 -3.19,-0.13 -1.91,-0.31 -11.47,0.82 -12.71,1.01 -5.2,0.83 -9.88,1.95 -14.81,3.36 -1.55,0.44 -5.84,2.06 -7.03,2.12 2.9,-6.58 11.6,-14.33 17.82,-17.76 2.42,-1.33 5.25,-3.12 7.83,-4.1l-0.15 2.28c0.58,-0.14 5.01,-3.7 5.87,-4.22 6.06,-3.65 15.79,-7.72 23.34,-7.55 -0.15,2.26 -2,3.57 -3.03,5.15 2.66,-0.38 5.31,-0.22 8,-0.21 8.99,0 21.41,2.83 27.09,6.63 -0.73,0.71 -3.37,2.25 -4.54,2.72 -0.94,0.39 -1.62,0.61 -2.56,0.98 -0.91,0.35 -2,0.52 -2.74,0.99l6.02 -0.11c4.19,0.29 7.94,0.52 11.99,1.91 1.96,0.68 5.9,3.13 6.25,4.57 -2.3,1.3 -5.2,1.14 -8.18,1.23 2.23,1.35 4.53,-0.42 11.68,5.69 0.57,0.49 0.72,0.89 1.2,1.38 -2.22,1.48 -11.57,2.18 -15.47,2.39 0.28,0.13 6.04,1.14 8.1,1.93 2.27,0.88 5.15,2.44 6.18,4.12 -1.14,0.39 -3.37,0.95 -4.14,1.47 2.76,1.97 9.86,0.99 9.61,10.83 -4.16,1.9 -12.48,1.51 -17.22,0.94 -0.97,-0.12 -1.69,-0.37 -2.34,-0.01 3.01,0.1 8.28,2.75 11,4.34 2.87,1.68 5.92,4.82 6.67,8.65 -2.65,1.44 -6.68,1.67 -10.55,1.68 2.03,1.18 5.06,1.13 7.3,4.42 1.69,2.49 2.33,5.85 1.56,9.67 -14.47,2.86 -15.79,-0.48 -19.52,-0.4 2,1.6 5.85,2.47 8.28,7.73 1.37,2.98 1.96,6.77 1.38,10.18 -0.57,3.36 0.06,4.07 -7.93,2.74 -1.47,-0.25 -5.15,-1.47 -6.2,-1.53 0.59,1.06 1.66,2.15 2.26,3.35 1.49,2.98 1.83,6.55 0.87,9.69 -0.38,1.22 -1.1,3.42 -1.75,4.15 -5.7,0.18 -10.75,-1.46 -15.17,-3.93 -1.14,-0.63 -3.14,-2.45 -3.94,-2.67 0.38,0.62 1.35,1.59 1.94,2.3 1.37,1.66 2.33,3.94 2.99,5.99 0.38,1.19 0.52,2.33 0.8,3.68 1.15,5.55 -0.71,11.3 -2.9,14.69 -1.39,-0.65 -5.63,-0.31 -10.15,-2.58 -1.06,-0.53 -1.86,-1.22 -2.8,-1.62 0.51,2.25 4.45,5.05 3.35,10.65 -0.81,4.09 -3.06,6.9 -5.03,9.58 -3.34,-1.28 -8.16,-1.29 -11.63,-4.62 -1.01,-0.97 -1.8,-1.84 -2.74,-2.84 -0.09,1.82 0.65,4 0.68,6.07 0.04,2.79 0.31,3.38 -0.19,6.41 -0.89,5.33 -5.25,9.02 -9.11,11.9 -0.76,0.57 -1.25,0.95 -2.1,1.47 -1.16,0.71 -0.95,0.5 -2.39,-0.08 -5.11,-2.08 -5.37,-3.84 -7.63,-6.41 -0.19,4.57 -0.19,9.21 -2.25,13.31 -2.74,5.42 -6.75,9.07 -11.68,12.39l-5.53 3.47c-0.89,0.55 -0.91,0.46 -1.91,-0.13 -6.93,-4.07 -15.64,-10.06 -17.87,-18.25 -1.64,-6.05 -0.84,-5.2 -1.19,-10.82 -2,1.51 -1.03,3.39 -7.5,6.36 -0.95,0.44 -1.48,0.87 -2.45,0.28 -0.74,-0.46 -1.45,-1.03 -2.07,-1.49 -6.29,-4.65 -10.81,-9.69 -9.58,-18.31 0.23,-1.59 0.85,-4.74 0.82,-6.17 -3.51,3.78 -6.52,5.53 -11.72,6.84 -2.87,0.72 -2.68,0.7 -4.16,-1.37 -7.82,-10.9 -1.13,-15.24 -0.36,-18.06 -0.86,0.23 -1.85,1.05 -2.76,1.52 -3.29,1.69 -6.66,1.82 -10.21,2.49 -0.72,-1.97 -1.93,-3.87 -2.44,-6.06 -1.03,-4.46 -0.67,-10.53 1.39,-14.77 0.49,-1.01 0.93,-1.89 1.49,-2.75 0.56,-0.85 1.7,-1.84 1.9,-2.59 -1.25,0.62 -2.35,1.69 -3.7,2.43 -4.42,2.46 -9.86,3.87 -14.94,3.68 -2.73,-4.89 -3.04,-10.92 0.46,-15.8 0.51,-0.71 0.92,-0.9 1.37,-1.62 -1.14,0.21 -4,1.31 -6.42,1.77 -2.38,0.45 -5.07,0.7 -7.42,0.29 -0.51,-2.78 -0.74,-3.71 -0.75,-7.04 -0.03,-5.2 3.16,-9.73 7.18,-12.41 0.83,-0.56 1.76,-0.92 2.49,-1.5 -2.16,0.15 -5.57,1.64 -9.66,1.64 -0.97,0 -1.33,-0.24 -2.59,-0.24 -1.19,0.01 -1.77,-0.03 -2.68,-0.16 -1.9,-0.28 -3.12,-0.34 -4.62,-1.02 -0.14,-3.9 -0.26,-6.65 1.69,-9.38 1.25,-1.75 3.07,-2.76 5.05,-3.68 0.72,-0.34 1.55,-0.5 2.14,-0.84 -3.9,-0.04 -7.57,-0.28 -10.32,-1.67 0.29,-3.66 3.82,-6.89 6.65,-8.69 1.62,-1.03 3.35,-1.9 5.18,-2.61 1.76,-0.67 4.28,-1.03 5.85,-1.9 -2.69,-0.02 -5.4,0.7 -8.48,0.69 -4.69,-0.01 -7.05,-0.48 -11.05,-1.22 -0.57,-9.72 6.35,-9.12 9.57,-11 -1.27,-0.53 -2.74,-1.01 -4.12,-1.51 2.88,-4.92 13.05,-5.35 14.28,-6.08 -2.65,0.03 -5.99,-0.31 -8.27,-0.65 -2.12,-0.31 -5.85,-0.72 -7.23,-1.72 0.9,-1.48 3.68,-3.48 5.36,-4.54 2.96,-1.86 5.79,-1.6 7.55,-2.51 -3.13,-0.15 -6.56,0.26 -8.39,-1.43 5.09,-4.86 9.75,-5.93 17.18,-6.16l7.28 -0.01c-0.71,-0.4 -1.77,-0.61 -2.6,-0.89 -2.07,-0.72 -5.94,-2.06 -7.24,-3.78 1.17,-1.08 5.21,-2.69 7.06,-3.31 2.75,-0.92 5.41,-1.57 8.29,-2.09 1.51,-0.27 3.12,-0.53 4.49,-0.71 1.61,-0.21 3.2,-0.16 4.8,-0.4 1.66,-0.25 9.04,-0.42 10.23,0.07 -0.21,-0.77 -1.71,-1.69 -3.01,-5.12zm-178.93 70.26l0 30.73c0.51,0.68 0.76,1.87 1.27,2.71 0.66,1.08 1.25,1.38 1.78,2.22 -1.47,2.34 -1.83,1.99 -2.71,5.06l-0.34 0.83 0 25.05 0.34 0.83c0.12,0.37 0.15,0.55 0.29,0.88 1.14,2.74 2.01,3.21 2.89,4.64 -0.56,0.89 -1.37,1.5 -2.03,2.68l-1.49 3.2 0 27.66c0.3,0.39 1.08,2.4 1.41,3.05 0.53,1.03 1.29,1.63 1.86,2.58 -0.83,0.66 -1.27,1.32 -1.91,2.32 -0.59,0.93 -0.73,2.27 -1.36,3.09l0 27.43c0.76,0.99 2.23,8.75 11.09,8.7 2.23,-0.01 4.6,-0.06 6.82,0.02 0.38,5.23 4.21,11.1 7.18,13.6 3.78,3.19 8.3,5.73 15.03,5.73 9.05,0 15.78,-4.56 19.66,-11.49 1.1,-1.96 2.41,-5.16 2.55,-7.83l21.78 -0.03c-1.2,1.52 -1.11,1.2 -3.22,1.6 -1.35,0.25 -2.71,0.38 -3.92,0.8 -0.16,4.11 5.56,11.69 8.65,14.62 -1.34,0.82 -4.01,0.52 -7.99,3.05 1.2,3.78 11.19,10.82 16.12,11.51 1.45,0.2 2.3,-0.09 3.7,0.3 -0.37,1.42 -6.77,5.25 -7.95,6.33 8.01,7.59 15.54,5.92 16.91,7.6 4,4.91 10.13,8.95 16.77,5.16 4.5,-2.56 3.15,-0.91 6.34,-1.92 0.78,-0.25 1.95,-0.9 2.57,-1.44 0.91,-0.78 1.03,-1.63 1.96,-2.29 0.93,0.25 1.91,1.43 2.44,2.27 0.81,1.31 0.83,1.96 1.33,3.39 0.46,1.33 2.06,2.39 2.8,4.28 0.25,0.64 0.45,1.07 0.73,1.63 1.85,3.54 4.55,3.71 7.52,11.59 1.34,3.54 4.86,18.2 10.08,17.98 3.7,-0.16 1.39,0.36 3.52,1 1.3,0.4 3.26,0.03 4.38,0.58 0.69,0.77 0.43,1.53 1.19,2.57 1.91,0.06 2.96,-0.78 4.72,-0.92 1.87,-0.14 4.21,0.42 5.36,-0.53 0.63,-0.52 0.8,-1 1.32,-1.52 0.76,-0.74 1.14,-0.44 1.38,-1.69 0.29,-1.52 -0.62,-3.2 -0.75,-4.74 0.67,0.75 1.09,1.55 1.88,2.11 2.12,-0.61 3.54,-3.78 3.77,-5.95 0.14,-1.28 -0.5,-1.64 -0.93,-2.32 0.43,-0.84 1.55,-2.52 1.37,-3.71 -0.3,-2.07 -2.55,-5.02 -4.03,-6.38l-2.84 -2.58c-1.96,-1.67 -3.69,-3.19 -5.63,-4.76 -6.6,-5.34 -5.53,-8.45 -8.77,-12.23 -0.74,-0.88 -1.95,-1.7 -2.46,-2.73 -0.32,-0.66 -0.34,-1.48 -0.66,-1.94 -0.41,-0.6 -0.97,-0.48 -1.57,-1.26 -0.43,-0.56 -0.49,-1.04 -0.97,-1.63 -1.93,-2.39 -0.8,0.36 -3.07,-4.96 -1.2,-2.8 -3.05,-4.7 -3.92,-6.67 2.48,-1.79 3.27,-0.05 5.41,-4.95 1.11,-2.55 3.13,-3.41 4.85,-5.77 0.91,-1.25 1.12,-1.94 1.66,-3.53 0.99,-2.94 2.5,-2.29 3.42,-6.96 0.17,-0.86 0.45,-4.27 0.69,-4.75 1.35,-0.83 41.05,0.03 46.71,-0.27 0.83,-1.4 2.25,-3.82 2.1,-6.07l-49.26 -0.02c-0.2,-1.43 -0.96,-3.78 -1.44,-4.72 -2.03,1.07 -6.42,4.76 -8.04,5.19 0.36,-4.23 1.87,-5.87 0.4,-13.12 -0.72,-3.54 -2.58,-7.84 -4.61,-9.97 -0.92,1.08 -1.73,2.23 -2.69,3.42 -0.94,1.15 -1.74,2.34 -2.76,3.35 -0.84,-0.87 -1.34,-2.51 -1.97,-3.67 -1.35,-2.5 -2.86,-4.79 -4.82,-6.75 -1.03,-1.02 -1.73,-2.12 -3.83,-2.04 -1.41,1.94 -2.76,2.97 -4.03,5.14 -2.97,-0.54 -8.73,-4.01 -11.76,-4.2 -0.44,1.44 -0.67,3.76 -1.42,4.91 -1.76,-2.4 -9.77,-4.84 -14.15,-4.66l-0.56 6.34c-0.35,0.2 -0.49,0.2 -0.87,0.47l0.72 5.18c-2.42,-0.49 -5.66,-2.14 -8.02,-3.09 -2.6,-1.04 -5.5,-2.29 -8.05,-3.23 -0.83,1.63 -1.32,5.44 -1.6,7.58 -0.18,1.46 -0.04,3.04 0.13,4.23 0.2,1.32 0.69,2.94 0.73,3.94l-4.9 0.03 -0.02 5.64 -21.94 0.03c-0.15,-4.94 -3.44,-10.32 -6.81,-13.28l-3.77 -2.98c1.87,-1.74 4.84,-0.74 7.49,-0.75 1.61,0 2.7,-0.11 4.03,-0.21 1.43,-0.11 3.03,0.07 4.47,-0.01 3.87,-0.22 8.47,-0.67 12.26,-0.71 1.6,-0.02 2.89,0.1 3.96,-0.44 -4.92,-0.22 -9.68,-0.01 -14.57,-0.28l-10.55 -0.41c-1.17,0.13 -2.09,0.24 -3.59,0.16 1.33,-1.94 2.46,-2.19 4.45,-5.66 1.03,-1.77 2.54,-5.27 2.63,-7.75l150.78 -0.03c2.44,4.43 8.26,9.18 12.48,12.08 1.65,1.13 3.45,2.05 4.94,3.23 -2.29,0.14 -6.58,-0.16 -8.72,-0.4l-8.94 -0.27c-1.63,0.01 -2.49,-0.25 -4.24,-0.24 -4.44,0.03 -9.49,-0.26 -13.72,0.2l-17.68 0.74c-1.72,0.02 -16.51,0.79 -17.17,1.15 1.91,0.06 3.65,0.27 5.38,0.26 1.61,0 4.11,-0.15 5.63,0.03l11.13 0.47c7.55,-0.03 14.69,0.46 22.42,0.46l44.09 -1.22c-1,-0.54 -6.22,-0.35 -7.94,-0.72 1.46,-1.13 3.55,-2.2 5.15,-3.26 5.08,-3.32 9.78,-7.49 13.22,-12.49l150.77 -0.02c0.27,5.6 4.19,11.51 8.52,14.64 0.71,0.51 1.43,0.86 2.07,1.45 -0.88,0.8 -1.05,1.02 -2.3,0.94l-10.86 0.43c-1.58,-0.02 -13.61,0.66 -14.1,0.91 2.14,0.06 3.61,0.3 5.61,0.28l11.8 0.24c1.66,-0.01 4.02,0.14 5.85,0.26 -1.38,2.26 -4.88,4.15 -6.49,11.84 -0.41,1.98 -1.32,1.36 -5.03,1.36 -5.03,0 -10.31,0.28 -15.31,-0.03l-0.23 -5.62c-0.92,-0.04 -1.77,-0.03 -2.63,-0.03 -0.37,0 -0.83,-0.02 -1.19,0 -0.32,0.02 -0.32,0.02 -0.63,0.07l-0.51 0.13c0.73,-3.83 0.95,-3.66 0.94,-7.99 -0.01,-2.51 -0.81,-5.75 -1.47,-7.75 -1.82,0.31 -14.07,5.51 -15.98,6.29l0.66 -5.14c-0.92,-1.18 -0.96,0.24 -1.18,-3.06 -0.08,-1.28 -0.31,-2.75 -0.48,-4 -1.33,0.24 -2.71,0.32 -4.1,0.59 -2.42,0.47 -5,1.09 -7.19,2.24 -1.02,0.53 -1.94,1.29 -2.82,1.82l-1.33 -4.83c-3.81,1.48 -7.97,2.64 -11.68,4.39 -0.4,-0.76 -1.48,-2.27 -2.07,-2.88 -0.81,-0.83 -1.52,-1.88 -2.42,-2.53 -5.5,1.35 -8.04,9.66 -10.18,12.68 -0.55,-0.32 -2.2,-2.59 -2.73,-3.31 -0.9,-1.22 -1.78,-2.26 -2.67,-3.43 -1.05,0.64 -2.24,2.98 -2.91,4.36 -2.18,4.48 -3.06,10.61 -2.02,15.64 0.2,0.99 0.45,1.99 0.66,3.04 -0.93,-0.39 -7.33,-4.67 -8.02,-5.34 -0.55,0.83 -1.31,3.37 -1.4,4.67l-43.38 0.02c-0.04,0.68 0.04,1.02 0.03,1.38l-0.26 4.72 43.11 0.02c0.47,9.89 2.64,8.48 3.9,11.71 1,2.54 2.05,4.71 4.11,6.52 3.35,2.94 2.01,3.57 4.44,6.17 0.95,1.02 2.21,1.36 3.59,1.84 -0.58,1.29 -2.82,4.09 -4.67,8.23 -0.28,0.62 -0.41,1.2 -0.78,1.8 -0.44,0.7 -0.79,0.79 -1.3,1.31 -0.7,0.73 -0.55,0.93 -1.09,1.74 -1.11,1.67 -1.36,0.25 -2.23,2.96 -0.43,1.35 -1.59,2.03 -2.45,2.98 -2.21,2.45 -3.48,7.28 -6.01,9.8 -0.97,0.96 -1.74,1.55 -2.72,2.47l-8.38 7.43c-1,0.95 -1.79,1.7 -2.56,2.87 -2.25,3.38 -2.38,3.81 -0.37,7.44 -1.72,1.44 -1.02,2.48 -0.29,4.59 0.71,2.07 1.28,2.83 3.16,3.66 0.7,-0.71 1.24,-1.57 1.88,-2.3 -0.24,2.84 -2.37,4.19 0.38,6.44 1.29,1.05 1.55,2.38 3.6,2.23 3.59,-0.28 5.2,0.74 8.05,0.73 0.53,-0.97 0.55,-1.61 0.94,-2.57 6.55,-0.18 5.35,-1.54 6.39,-1.67 1.58,0.05 1.98,0.71 3.45,-0.33 2.54,-1.81 3.91,-4.87 4.96,-7.78 1.85,-5.17 4.09,-13.83 7.81,-17.68 5.2,-5.39 2.96,-5.22 5.19,-7.55 2.33,-2.43 1.92,-6.03 5.24,-7.71 4.42,6.07 5.57,2.57 10.33,5.49 8.23,5.05 16.56,-2.73 17.57,-5.48 5.82,-0.29 14.25,-3.49 16.46,-7.1 -1.29,-0.94 -7.43,-5.24 -7.94,-6.1 4.61,-1.66 5.92,1.33 16.39,-7.43 0.73,-0.61 3.09,-3.51 3.55,-4.39 -0.92,-0.8 -2.2,-1.38 -3.48,-1.9 -1.05,-0.43 -3.62,-0.64 -4.46,-1.19 1.24,-2.09 4.89,-4.56 7.23,-10.21 0.68,-1.64 0.9,-2.79 1.45,-4.42 -1.37,-0.91 -6.54,-0.43 -7.05,-2.36 1.01,-0.62 8.24,-0.24 9.91,-0.24 3.35,0 6.93,-0.12 10.25,0.03 -0.36,4.01 4.18,11.2 7.11,13.53 2.03,1.6 3.82,2.94 6.32,4.06 5.05,2.27 12.35,2.1 17.36,0.05 4.53,-1.85 8.76,-5.43 10.96,-9.8 1.18,-2.32 2.4,-4.75 2.55,-7.84 6.96,-0.41 10.44,1.34 15.49,-4.33 1.32,-1.49 1.37,-3.35 2.18,-4.4l0 -27.43c-0.71,-0.91 -0.89,-3.52 -3.27,-5.41 0.56,-0.94 1.32,-1.55 1.86,-2.58 0.33,-0.65 1.11,-2.66 1.41,-3.05l0 -27.66c-0.42,-0.55 -0.43,-1.01 -0.68,-1.66 -0.83,-2.08 -2.22,-3.22 -2.84,-4.22 1.96,-3.2 1.5,-1.2 3.3,-5.87l0.14 -0.33c0.01,-0.03 0.04,-0.1 0.08,-0.15l0 -25.05c-0.36,-0.51 -0.22,-0.58 -0.52,-1.59 -0.17,-0.55 -0.44,-1.03 -0.74,-1.62 -0.68,-1.36 -1.18,-1.69 -1.8,-2.68 0.53,-0.84 1.13,-1.14 1.78,-2.22 0.51,-0.85 0.76,-2.03 1.28,-2.71l0 -30.73 -0.43 -0.96c-0.3,-0.91 -0.09,-0.43 -0.49,-1.16 -1.14,-2.08 -2.46,-3.4 -4.84,-4.37 -3.15,-1.27 -8.09,-0.4 -11.91,-0.6 -0.17,-3.14 -1.36,-5.46 -2.55,-7.83 -1.23,-2.46 -2.89,-4.06 -4.62,-5.76 -11.52,-11.33 -34.38,-5.39 -37.26,13.6l-22.73 0.02 -1.18 -6.97c-0.83,-4.59 -2.04,-9 -3.15,-13.37 -0.54,-2.13 -1.53,-4.37 -1.93,-6.32 1.35,-1.99 25.47,-15.41 30.59,-18.02 3.73,-1.89 7.04,-3.95 11.14,-5.15 13.7,-4 13.7,6.44 2.94,12.39 -4.85,2.69 -16.73,7.1 -21.45,1.48 -0.68,-0.81 -1.1,-1.76 -1.75,-2.5 -3.31,3.75 2.25,24.66 21.81,17.09 0.96,-0.37 1.67,-0.63 2.56,-0.98l2.61 -1.17c7.28,-3.66 17.12,-9.76 17.85,-18.73 0.53,-6.51 -3.6,-11.3 -9.11,-12.82 -2.18,-0.6 -4.41,-0.25 -6.64,-0.42 1.08,-0.87 7.07,-3.45 8.86,-3.78l-2.17 -2.92c-2.37,-3.3 -4.02,-6.97 -5.36,-10.91 -0.41,0.24 -1.62,1.33 -2.14,1.78 -5.34,4.68 -11.59,7.93 -17.7,11.57 -3.51,2.09 -19.9,11.24 -21.87,11.58 -2.23,-6.83 6.09,-13.71 9.61,-16.52 3.86,-3.08 8.07,-5.68 12.32,-8.21 1.02,-0.61 3.72,-1.88 4.22,-2.61 -0.06,-0.1 -4.04,-5.07 -5.63,-7.55l-2.41 -3.73c-2.22,2.05 -10.4,8.24 -13.34,9.94 -8.34,4.82 -14.77,0.35 -10.23,-6.46 3.63,-5.44 15.74,-14.56 23,-9.53 2.15,1.48 4.14,4.37 3.44,7.88 3.15,-0.59 5.62,-5.69 4.78,-9.97 -0.79,-4.06 -3.56,-6.79 -6.39,-8.72 -13.5,-9.18 -33.75,5.47 -37.08,17.54 -1.69,6.1 1.36,12.53 6.5,15.17 2.48,1.26 3.18,1.17 6.42,1.36 -1.2,1.93 -12.25,8.45 -2.26,18.32 2.67,2.64 3.82,2.29 6.03,3.62 -0.84,0.61 -13.34,6.54 -14.59,6.81l-5.42 -10.61c-0.86,-1.65 -1.92,-3.46 -2.94,-5.09 -1.03,-1.65 -2.03,-3.32 -3.1,-4.92 -5.35,-7.95 -11.09,-15.48 -17.86,-22.26 -2.19,-2.19 -1.5,-1.78 -4.23,-3.8 -3.02,-2.24 -6.31,-4.4 -9.87,-6.17 -7.06,-3.53 -17.23,-6.86 -25.49,-6.84 -3.22,0 -3.46,-0.35 -7.56,-0.02l-7.32 0.7c-4.24,0.58 -8.95,1.96 -12.7,3.36 -5.57,2.07 -10.79,5.06 -15.61,8.45 -3.13,2.21 -6,4.72 -8.55,7.5 -1.36,1.49 -2.52,2.5 -3.85,4.17 -1.2,1.52 -2.38,2.98 -3.45,4.58 -10.72,15.97 -9.62,25.75 -11.24,29.02 -0.61,-10.57 3.03,-21.14 7.5,-30.16 3.94,-7.93 10.32,-15.25 17.13,-20.63 12.05,-9.52 25.91,-14.29 42.35,-14.3 4.49,0 8.54,0.4 12.69,1.46 1.18,0.3 2.62,0.68 3.93,0.88 -3.37,-2.64 -10.31,-6.4 -14.03,-8.23 -16.22,-8.02 -32.37,-13.19 -51.31,-15.48 -17.04,-2.07 -34.49,-1.14 -50.73,2.64 -9.75,2.27 -16.15,4.6 -25.38,8.08 -1.58,-3.02 -8.04,-22.52 -9.31,-26.31 -1.86,-5.55 -4.48,-11.96 -2.77,-18.06 0.54,-1.96 1.32,-3.26 3.46,-3.61 7.98,-1.28 14.54,20.93 8.38,29.14 -0.45,0.6 -1.27,1.15 -1.94,1.6 -0.72,0.49 -1.81,0.71 -2.51,1.21 5,4.34 30.53,1.47 17.32,-29.86 -2.73,-6.46 -6.59,-13.55 -13.96,-15.06 -7.69,-1.59 -13.1,3.42 -14.63,10.1 -0.17,0.73 -0.3,2.74 -0.55,3.15 -1.33,-1.94 -1.32,-7.73 -2.38,-9.33 -2.92,2.02 -7.01,3.36 -10.58,4.25 -1.21,0.3 -2.8,0.54 -4.05,0.93l3.38 6.26c1.11,2.2 2.09,4.56 3.03,6.89 1.84,4.6 3.64,9.34 5.29,14.28 1.24,3.69 8.78,26.72 9.06,30.36 -0.89,0.75 -2.62,1.58 -3.7,2.19l-14.47 9.37c-4.72,3.11 -12.11,9.65 -16.11,13.63l-7.32 7.55c-9.83,10.27 -21.6,29.07 -26.87,42.27 -3.37,8.43 -6.78,17.98 -8.6,27.28 -0.63,3.19 -1.55,7.03 -1.78,10.27l-24.49 0c-0.3,-5.5 -3.61,-10.12 -7.17,-13.62 -3.92,-3.86 -9.3,-5.72 -15.04,-5.72 -9.25,0 -15.45,4.59 -19.64,11.51 -1.26,2.06 -2.38,5.38 -2.57,7.81 -3.85,0.15 -9.01,-0.58 -11.98,0.53 -1.93,0.72 -2.36,1.25 -3.63,2.51 -0.77,0.76 -0.72,0.73 -1.29,1.77 -0.42,0.74 -0.49,1.61 -1.01,2.27z"/>
   <path class="fil0" d="M68.79 151.39c-0.79,-0.47 -1.22,-1.15 -1.99,-1.76 -0.91,-0.72 -1.18,-1.08 -1.96,-1.82 -4.87,-4.64 -15.32,-12.49 -20.7,-16.35l-8.59 -6c1.3,0.14 3.87,1.2 5.18,1.62 6.71,2.15 29.1,8.89 34.14,12.08 -0.46,1.12 -5.73,11.85 -6.08,12.23zm19.13 -16.45c2.85,1.23 2.79,1.84 6.76,2.62 2.67,0.53 5.54,-0.24 7.29,-1.58 4.98,-3.82 4.97,-7.97 4.79,-13.1 -1.71,0.31 -4.37,3.05 -11.34,0.72 -4.55,-1.52 -6.02,-3.44 -8.69,-4.94 -1.46,2.3 -2.34,3.07 -4.27,6.29 -1.55,0.03 -11.01,-3.18 -13.54,-3.88l-13.2 -4.25c-6.34,-2.11 -13.08,-4.5 -19.17,-7.04 -3.25,-1.35 -4.11,-2.21 -5.76,-2.95 -0.55,0.61 -1.03,2.29 -1.49,3.21l-4.88 9.05c-1.89,3.49 -5.16,8.36 -4.93,13.44 11.1,6.12 27.69,18.17 37.09,26.85 1.05,0.97 5.55,4.89 5.83,5.96l-2.79 8.01c1.21,0.71 2.55,1.59 3.74,2.38 4.17,2.76 7.96,5.12 13.44,4.71 3.25,-0.25 6.02,-2.77 7.25,-5.03 0.72,-1.31 1.44,-2.91 1.66,-4.47 0.37,-2.57 0.18,-2.89 0.03,-5.31 -1.75,0.77 -4.17,2.14 -6.74,1.78 -2.12,-0.29 -5.04,-1.07 -6.39,-2.29 0.47,-0.72 0.63,-1.15 0.99,-2.04 0.31,-0.73 0.57,-1.2 0.93,-1.91l11.34 -22.63c0.72,-1.21 1.3,-2.63 2.05,-3.6z"/>
   <path class="fil0" d="M365.96 29.19c0.74,1.71 3.1,4.13 3.03,8.24 -0.11,6.67 -8.84,16.28 -12.94,21.3 -2.19,2.67 -10.84,13.16 -13.09,15.46 -0.57,0.59 -0.77,0.92 -1.3,1.53l-6.84 7.52c0.08,0.08 4.43,2.63 6.6,4.4 3.42,2.8 3.22,3 5.19,4.73 0.62,0.55 0.19,0.34 0.88,0.5 1.16,-2.02 1.54,-3.38 3.27,-5.93 7.01,-10.39 12.56,-16.99 20,-26.72l8.17 -10.71c3.14,1.95 4.57,3.42 7.18,5.48 0.86,0.68 1.36,1.43 2.19,2.03 -1.11,1.8 -2.69,3.7 -3.98,5.43 -5.37,7.19 -11.15,14.16 -16.92,21.07 -0.78,0.93 -1.35,1.7 -2.14,2.59l-3.42 3.89c-1.96,2.23 -6.18,7.23 -8.19,8.55 0.81,0.72 2.51,1.41 3.58,2.08 2.74,1.71 7.54,5.24 9.18,7.79l4.41 -6.61c5.98,-8.99 20.58,-27.66 26.68,-35.15 0.88,-1.07 1.71,-1.97 2.6,-3.07l5.43 -5.86c-1.71,-0.95 -3.35,-2.25 -5.07,-3.41 -8.55,-5.74 -16.45,-12 -22.75,-20.19 -1.45,-1.88 -7.45,-6.78 -11.75,-4.94z"/>
   <path class="fil0" d="M117.13 58.84c0.74,-1.12 0.78,-2.08 1.86,-3.3 0.84,-0.94 2.03,-1.6 3.61,-1.82 7.77,-1.09 14.03,10.72 15.24,16.14 1.6,7.22 -4.41,10.98 -10.37,8.01 -4,-1.99 -7.66,-7.27 -10.16,-11.08 -4.43,-6.74 -8.72,-15.57 -4.31,-23.62 1.44,-2.64 3.35,-4.63 5.02,-6.79 0.3,-0.38 0.34,-0.44 0.61,-0.78 1.65,-2.04 1.87,-2.25 3.18,-4.86 3.69,-7.37 0.9,-13.22 -5.11,-17.86 -0.74,-0.57 -2.55,-1.76 -3.28,-2.08 -0.26,3.87 1.45,5.86 -1.44,13.18 -4.07,10.3 -16.04,15.1 -12.5,32.08 1.82,8.73 5.31,14.93 9.9,20.78 0.55,0.71 1.17,1.55 1.71,2.08 0.67,0.68 1.2,1.19 1.89,1.87 2.6,2.61 5.81,4.68 9.46,5.88 1.43,0.47 4.99,1.21 6.72,1.01 6.95,-0.83 10.74,-3.1 14.86,-7.82 1.4,-1.62 2,-2.68 3.04,-4.75 4.05,-8 0.94,-16.59 -3.79,-23.42 -3.35,-4.83 -10.07,-12.77 -18.96,-11.13 -6.75,1.24 -10.53,6.1 -9.44,12.86 0.22,1.39 1.44,4.56 2.26,5.42z"/>
   <path class="fil0" d="M264.72 9.45c0.04,0.02 0.1,0.01 0.12,0.07l0.5 0.33c0.33,0.22 0.51,0.35 0.84,0.58 4.63,3.24 4.98,8.79 3.78,14.12 -1.36,6.04 -3.33,11.3 -4.38,17.56 -0.54,3.21 -0.99,6.47 0.06,9.45 2.08,5.92 7.91,8.88 13.87,6.61 3.77,-1.45 5.1,-4.14 6.12,-4.88 0.31,3.45 -0.48,7.64 5.36,9.97 3.87,1.54 9.1,1.15 12.32,-0.84 -3.36,-3.28 -3.13,-4.33 -3.78,-9.35 -1,-7.6 3.56,-25.11 6.62,-32.83 -2.65,-0.16 -7.22,-1.5 -9.95,-2.31 -1.15,-0.34 -2.11,-0.81 -3.19,-1 -0.2,4.68 -3.99,17.28 -5.2,23.12 -0.41,2.01 -0.82,3.63 -1.6,5.47 -0.59,1.38 -1.89,3.29 -3.02,4.05 -2.08,1.39 -3.54,0.49 -4.23,-1.66 -2.32,-7.32 6.42,-20.98 3.61,-30.05 -1.1,-3.58 -3.38,-6.1 -6.5,-7.65 -3.05,-1.52 -6.57,-2.2 -10.05,-1.4l-1.3 0.64z"/>
   <path class="fil0" d="M195.8 9.15c0.66,0.44 1.43,0.66 2.12,1.09 2.16,1.33 4.05,3.16 5.02,5.61 1.33,3.36 1.8,8.37 1.78,12.14 -0.01,1.38 0.23,1.76 0.25,3.06 0.06,5.18 0.37,12.33 -0.03,17.22 -0.17,2.13 -0.53,4.27 -0.43,6.6 6.27,-0.52 6.01,-0.16 11.06,0.08 6.95,0.33 16.95,-0.01 21.25,-5.95 1.69,-2.35 2.5,-4.18 2.97,-7.18 0.92,-5.87 0.01,-11.35 -4.09,-15.31 -4.47,-4.31 -15.49,-5.51 -17.5,6.89 0.72,-0.18 1.59,-1.12 3.21,-1.7 9.93,-3.57 11.16,17.54 -3.68,16.79 -0.2,-3.93 -0.5,-7.71 -0.5,-11.77l-0.47 -12.74c0,-5.35 -1.46,-10.95 -5.66,-13.93 -2.18,-1.54 -3.99,-2 -7.18,-2.5 -2.5,-0.38 -6.6,0.54 -8.12,1.6z"/>
   <path class="fil0" d="M227.38 389.55c1.68,-0.01 2.4,-0.27 4,-0.27 5.9,0.03 22.89,0.23 26.15,1.87 -1.93,0.1 -4.01,0.57 -5.86,0.74l-21.46 0.72c-1.7,0 -2.54,-0.22 -4.25,-0.22 -3.7,-0.02 -9.14,-1.12 -11.98,-1.24 1.11,-0.58 11.28,-1.61 13.4,-1.6zm9.44 -1.91c-1.46,-2.05 -2.23,-7.88 -2.1,-10.58l17.01 0.86c1.4,0.34 1.52,1.86 3.3,2.63l-0.53 -2.33c2.09,0.16 5.17,0.78 7.28,1.23 6.01,1.28 17.25,5.23 4.86,9.47 -2.78,0.95 -3.71,1.59 -6.69,0.87 -2.31,-0.56 -4.81,-0.85 -7.31,-1.2 -5.03,-0.72 -10.21,-0.88 -15.82,-0.95zm-6.87 -10.37c0.22,5.55 4.29,9.14 4.93,10.31 -4.56,0.17 -10.71,0.24 -15.16,0.91 -2.18,0.33 -4.31,0.47 -6.39,0.91 -2.93,0.62 -2.98,1.03 -5.95,0.33 -1.75,-0.41 -3.62,-1.13 -5.18,-1.91 -8.29,-4.17 3.86,-7.59 7.54,-8.37 1.42,-0.3 4.68,-1.02 6.06,-0.97 0.72,0.96 1.31,1.68 2.35,2.29 -0.02,-0.8 -0.37,-1.88 -0.68,-2.6l7.55 -0.7 4.93 -0.2zm5.48 -37.26l1.54 4.07c3.75,11.46 -6.43,15.13 -7.27,30.79 -2.91,0.18 -10.77,0.22 -12.68,0.94 -0.1,-2.12 -0.42,-2.32 0,-4.65 0.74,-4.11 2.77,-6.58 4.36,-10.51 1.89,-4.67 2.32,-9.75 -1.82,-13.33 -0.59,-0.51 -0.62,-0.77 -1.35,-0.94 0.13,0.86 0.43,1.3 0.63,1.92 0.63,1.95 1.17,4.04 0.56,6.12 -1.81,6.12 -8.82,13.25 -5.05,21.63 -5.96,1.03 -11.69,2.05 -16.48,4.52 -7.56,3.9 -2.8,7.7 2.83,9.92 6.43,2.54 18.96,4.05 26.68,4.49l9.98 0.06c2.97,-0.42 7.13,-0.01 10.28,-0.34 3.13,-0.33 6.19,-0.62 9.34,-1.04 5.2,-0.69 16.39,-2.9 19.56,-6.41 3.34,-3.7 -2.23,-6.73 -5.47,-7.89 -2.7,-0.97 -5.11,-1.61 -8.15,-2.23l-8.87 -1.51c-1.13,-1.88 0.27,-6.52 0.97,-8.23 0.94,-2.31 2.33,-4.51 3.24,-6.91 0.86,-2.25 1.83,-5.74 0.99,-8.71 -0.63,-2.23 -2.06,-4.67 -4.23,-5.61 0.04,0.82 0.86,2.57 1.09,3.55 1.39,5.91 -2.07,8.83 -4.29,14 -1.5,3.49 -2.21,8.07 -0.9,11.62l-11.74 -0.64c-1.33,0 -2.66,0.03 -3.99,-0.03 -0.1,-2.27 2.29,-7.03 3.14,-9.09 2.22,-5.35 4.89,-10.53 3.62,-17.03 -0.65,-3.31 -4,-8.15 -6.52,-8.53z"/>
   <path class="fil0" d="M82.94 85.34c0.73,-0.18 1.43,-0.79 2.48,-1.08 6.63,-1.82 15.84,6.33 18.61,11.38 1.69,3.08 3.14,6.87 -0.55,9.53 -1.44,1.04 -2.69,1.57 -5.2,1.43 -6.38,-0.37 -20.85,-11.04 -18.58,-21.68 1.07,-5.05 4.29,-6.13 5.82,-7.61 -2.36,-1.66 -6.91,-0.93 -9.05,0.38 -5.22,3.2 -7.18,9.56 -6.44,15.61 1.43,11.69 17.22,27.68 32,22.69 11.92,-4.02 16.06,-17.57 7.82,-28.53 -12.9,-17.17 -26.09,-8.98 -26.91,-2.12z"/>
   <path class="fil0" d="M240.86 9.14l0.69 14.37c0,3.07 -0.47,20.83 0.86,24.85 0.79,2.38 1.87,3.57 3.79,4.69 4.21,2.46 9.27,0.1 11.61,-3.58 -1.1,-0.95 -1.61,-0.39 -2.98,-2.92 -0.86,-1.58 -1.23,-2.55 -1.69,-4.44 -1.16,-4.83 -1.64,-14.25 -1.01,-19.58 0.2,-1.71 0.16,-5.26 0.6,-8.37 0.06,-0.39 0.12,-0.8 0.18,-1.25l0.18 -1.45c0.08,-0.68 0.24,-2.02 0.43,-2.55 -1.95,-0.11 -8.32,1 -12.66,0.23z"/>
   <path class="fil0" d="M245.21 437.66l1.01 -24.26c-2.06,-0.08 -3.42,0.2 -5.14,0.22l-10.87 -0.01c-1.63,-0.08 -2.95,-0.31 -4.91,-0.2 -0.17,3.13 0.94,17.49 0.9,21.68 -0.03,2.91 -0.82,2.85 5.67,2.82 1.31,-0.01 1.62,0.16 2.6,0.24l10.74 -0.49z"/>
   <path class="fil0" d="M246.06 437.43c2.77,0.08 11.61,-1.72 14.17,-2.77 1.07,-0.44 0.8,-0.59 0.97,-1.85 0.8,-5.94 2.01,-17.6 2.98,-22.5 -2.78,0.64 -5.41,1.35 -8.31,1.82 -2.92,0.46 -5.86,0.9 -8.86,1.03l-0.95 24.27z"/>
   <path class="fil0" d="M209.4 420.26c0.4,3.36 0.82,6.47 1.28,9.83 0.25,1.86 0.17,4.18 0.98,4.67 1.32,0.8 11.49,2.77 13.9,2.65l-1.04 -24.24c-3.44,-0.18 -9.17,-0.99 -12.66,-1.74 -1,-0.21 -2.76,-0.81 -3.78,-0.85l1.32 9.68z"/>
   <path class="fil0" d="M225.05 408.86c1.95,0.09 3.37,0.28 5.4,0.27l5.42 0.23c0.94,0 1.38,-0.23 2.59,-0.24l7.99 -0.26 0.49 -13.16 -22.44 0 0.55 13.16z"/>
   <path class="fil0" d="M247.24 408.85c0.65,-0.23 3.02,-0.37 3.96,-0.45 2.86,-0.24 8.52,-1.34 11.2,-2.01 1.79,-0.44 2.32,-0.06 2.51,-1.96 0.31,-3.16 1.41,-9.09 1.4,-11.57 -5.81,1.17 -12.08,2.4 -18.55,2.84l-0.52 13.15z"/>
   <path class="fil0" d="M223.81 395.7c-2.96,-0.22 -6.34,-0.63 -9.31,-1.07l-8.66 -1.52 1.77 12.9c4.6,0.96 7.42,1.84 12.48,2.37 1.09,0.11 3.37,0.2 4.24,0.46l-0.52 -13.14z"/>
   <path class="fil0" d="M285.46 0.61l-0.52 0c0.02,1.44 -0.97,4.03 -1.49,5.34 -0.69,1.72 -1.53,2.96 -2.22,4.55 5.09,3.08 9.41,5.78 16.7,4.02 5.01,-1.21 9.73,-6.15 10.6,-11.03 -4.35,1.86 -6.89,3.48 -12.94,3.01 -4.5,-0.34 -8.57,-2.72 -10.13,-5.89z"/>
   <path class="fil0" d="M204.99 409.57c-3.85,-1.27 -6.54,-3.12 -6.62,-3.14 -0.05,1.07 1.97,10.36 2.32,12.16l2.41 12.25c0.03,0.01 0.05,-0.04 0.06,-0.04 0.4,-0.29 -0.02,-0.53 1.19,0.4 1.84,1.42 3.9,2.2 6.01,3.14 0.06,-1.51 -1.95,-15.85 -2.2,-17.8 -0.95,-7.24 -0.26,-6 -3.17,-6.97z"/>
   <path class="fil0" d="M228.3 451.61l14.91 0c0.8,-0.53 0.56,0.04 1.38,-0.47l0.46 -8.98c-3.81,-0.01 -10.35,0.47 -14.14,0.25 -1.49,-0.09 -2.51,-0.36 -4.44,-0.21 0.15,2.8 0.41,6.04 0.45,8.94 0.83,0.52 0.57,-0.07 1.38,0.47z"/>
   <path class="fil0" d="M261.87 434.11c2.3,-1.05 4.61,-2.12 6.19,-3.65 0.84,-0.81 0.56,-0.53 0.8,-1.8l4.41 -22.11c-1.34,0.49 -2.47,1.37 -3.98,2.01 -1.38,0.58 -2.92,0.94 -4.15,1.51 -0.49,0.44 -2.27,15.37 -2.57,17.96 -0.2,1.71 -0.79,4.47 -0.7,6.08z"/>
   <path class="fil0" d="M80.11 288.3l-15.75 0.78c1.33,0.77 5.31,0.35 7.02,0.41l12.04 0.46c1.18,-0.01 2.36,0 3.54,-0.01l6.84 0.24c3.58,0 7.03,0.24 10.86,0.24 3.87,0 7.07,-0.25 11.09,-0.23 1.49,0 1.95,-0.24 3.29,-0.26l11.11 -0.21c2.58,-0.01 4.73,-0.25 7.07,-0.23 2.23,0.01 5.42,0.38 7.04,-0.44l-31.34 -1.46c-1.88,0.01 -3.16,-0.24 -4.71,-0.26 -3.21,-0.05 -6.48,-0.01 -9.7,0l-18.4 0.97z"/>
   <path class="fil0" d="M102.53 302.94c-0.42,0 -2.29,0.29 -2.55,0.4l12.23 0.29c0.97,0 1.73,0.26 3.06,0.25 1.03,-0.01 2.05,0 3.08,-0.01l21.2 0.68c1.29,-0.15 2.26,-0.2 3.81,-0.2l20.3 -0.47c1.84,0.01 2.76,-0.26 4.72,-0.25l11.51 -0.26c-1.35,-0.73 -15.77,-0.93 -19.54,-1.14 -1.29,-0.07 -2.15,-0.26 -3.77,-0.25l-15.81 -0.71 -38.24 1.67z"/>
   <path class="fil0" d="M260.42 439.09l-14.6 2.88 -0.47 9.36c2.5,0.11 12.08,-1.55 13.86,-2.55l1.21 -9.69z"/>
   <path class="fil0" d="M212.99 448.09c0.16,1.39 0.48,1.25 1.77,1.5 1.91,0.37 3.59,0.79 5.55,1.07 1.66,0.23 4.1,0.68 5.86,0.71 0.09,-1.96 -0.24,-2.85 -0.23,-4.71 0.02,-1.9 -0.15,-2.99 -0.24,-4.71 -1.92,-0.04 -5.3,-0.66 -7.23,-1.02l-6.62 -1.56 1.14 8.72z"/>
   <path class="fil0" d="M196.6 389.41c-0.97,-0.67 -1.27,-1.32 -2,-1.71l2.42 12.61c0.62,2.35 7.7,5.19 9.67,5.24l-1.72 -12.7c-1.31,-0.82 -5.61,-1.54 -8.37,-3.44z"/>
   <path class="fil0" d="M265.64 405.55c1.67,-0.74 3.54,-1.24 5.17,-2.08 2.81,-1.44 3.55,-2.05 3.97,-4.31l0.44 -2.36c0.36,-1.71 1.76,-8.11 1.68,-9.09 -2.31,1.97 -3.82,3.08 -7.18,4.05 -0.96,0.28 -1.99,0.46 -2.56,1.07l-1.52 12.72z"/>
   <path class="fil0" d="M38.57 343.02c0.02,0 0.2,-0.13 0.73,-0.21 0.03,0 0.65,-0.03 0.69,-0.03 0.59,0.01 0.82,0.07 1.3,0.15 1.16,0.19 1.48,0.28 2.46,0.61 10.44,3.52 10.69,17.69 1.91,22.17 -1.54,0.79 -2.51,1.31 -4.72,1.44 -3.88,0.24 -6.56,-0.74 -9.03,-2.8 -5.12,-4.26 -5.77,-11.78 -1.44,-17.14 1.01,-1.24 1.94,-2 3.38,-2.75 0.85,-0.44 1.03,-0.65 2.09,-0.98 1.04,-0.33 1.66,-0.23 2.63,-0.46zm-0.45 -0.93c-0.5,0.12 -0.84,-0.01 -1.52,0.16 -0.47,0.12 -0.75,0.25 -1.24,0.42 -5.58,1.9 -9.56,7.86 -8.62,14.11 0.58,3.87 2.41,6.6 4.72,8.49 12.82,10.5 30.29,-8.15 16.62,-20.39 -2.46,-2.2 -6.65,-3.57 -9.96,-2.79z"/>
   <path class="fil0" d="M39.05 289.95c-6.18,-0.04 -11.61,-6 -11.46,-12.24 0.16,-7.18 5.47,-12.08 12.64,-12.06 6.32,0.01 11.93,5.81 11.83,12.26 -0.12,6.81 -5.42,12.05 -13.01,12.04zm-12.51 -11.09c0.35,1.77 0.81,3.52 1.57,5.03 2.45,4.81 6.91,7.16 12.84,7.01 10.08,-0.26 17.03,-14.59 7.59,-22.95 -7.09,-6.29 -18.17,-3.14 -21.14,5.39 -0.37,1.06 -1.12,4.17 -0.86,5.52z"/>
   <path class="fil0" d="M419.72 276.73c0,-3.5 2.36,-6.91 5.18,-8.97 5.47,-4 14.25,-2.42 17.88,4.8 3.73,7.42 -1.43,15.56 -7.86,17.02 -8.39,1.91 -15.2,-4.25 -15.2,-11.19l0 -1.66zm9.93 -11.8c-1.08,0.27 -1.31,0.09 -2.51,0.58 -0.84,0.34 -1.59,0.67 -2.23,1.07 -7.19,4.53 -9.02,14.75 -1.23,21.53 8.31,7.24 23.27,-0.05 21.16,-12.42 -1.19,-6.96 -8.3,-12.5 -15.19,-10.76z"/>
   <path class="fil0" d="M429.38 304.55c1.39,-0.36 1.27,-0.2 2.85,-0.21 2.39,-0.01 5.17,0.8 6.9,2.31 9.83,8.54 3.36,20.22 -4.84,21.7 -7.43,1.35 -13.03,-3.39 -14.4,-9.31 -0.88,-3.8 0.42,-7.55 2.11,-9.81 2.24,-3.01 4.25,-3.88 7.38,-4.68zm1.43 -1.16c-1.74,0.44 -2.16,-0.15 -5.19,1.43 -4.29,2.22 -7.49,7.3 -6.9,12.54 2.04,17.86 27.44,15.16 26.22,-2.15 -0.37,-5.31 -4.18,-9.43 -8.63,-11.17 -1,-0.38 -1.53,-0.51 -2.67,-0.63 -0.78,-0.09 -0.9,-0.17 -1.47,-0.23 -1.07,-0.11 -1.36,0.21 -1.36,0.21z"/>
   <path class="fil0" d="M419.72 238.74c-0.02,-7.15 6.92,-12.32 12.72,-11.81 6.44,0.56 11.83,5.67 11.61,12.76 -0.34,10.49 -13.59,15.72 -21.09,7.84 -2.08,-2.19 -3.24,-4.67 -3.24,-8.79zm10.38 -12.51c-1.49,0.36 -2.37,-0.03 -5,1.61 -1.46,0.91 -2.52,1.83 -3.53,3.08 -2.38,2.93 -3.11,6.21 -2.79,9.94 0.92,10.6 15.17,15.98 23.17,6.66 1.97,-2.29 3.49,-5.78 2.95,-10.14 -0.63,-5.05 -4.62,-9.4 -9.04,-10.77 -1.38,-0.43 -3.85,-0.84 -5.24,-0.56l-0.52 0.18z"/>
   <path class="fil0" d="M27.5 239.21c0,-0.01 0.25,-2.18 0.3,-2.51 0.15,-0.85 0.44,-1.61 0.78,-2.3 6.4,-13.07 23.27,-7.31 23.48,4.57 0.06,3.5 -1.73,6.77 -3.44,8.62 -1.86,2.01 -4.88,3.68 -8.62,3.67 -3.79,-0.01 -6.19,-0.88 -8.8,-3.5 -2.17,-2.18 -3.69,-5.42 -3.7,-8.55zm25.47 -0.47c0.01,-9.67 -12.94,-18.23 -22.71,-8.56 -1.04,1.04 -2.04,2.34 -2.67,3.93 -2.19,5.52 -0.7,10.79 3.14,14.6 7.7,7.65 22.22,2.74 22.24,-9.97z"/>
   <path class="fil0" d="M419.72 354.38c0,-6.18 6.02,-11.9 12.5,-11.58 10.92,0.53 16.59,14.42 6.79,22.14 -4.21,3.31 -11.02,3.05 -15.34,-0.83 -3.1,-2.78 -3.95,-5.61 -3.95,-9.73zm25.23 0.94c0.02,-7.7 -5.94,-13.49 -13.2,-13.46 -7.21,0.03 -13.15,6.05 -13.15,13.22 0,10.88 13.48,17.96 22.33,9.42 2.17,-2.1 4.01,-5.03 4.02,-9.18z"/>
   <path class="fil0" d="M27.5 200.03c0,-0.02 0.38,-2.63 0.39,-2.66 2.39,-10.32 16.88,-14.07 23,-2.33 2.89,5.53 0.27,13.16 -6.11,16.15 -0.97,0.46 -3.79,1.17 -5.02,1.14 -5.03,-0.12 -9.27,-3.23 -11.1,-7.33 -0.23,-0.51 -0.65,-1.64 -0.8,-2.27 -0.03,-0.11 -0.36,-2.69 -0.36,-2.7zm-0.96 0c-0.01,7.07 6.06,13.25 13.22,13.23 7.25,-0.02 13.2,-5.99 13.21,-13.23 -0.01,-7.37 -6.09,-13.21 -13.45,-13.2 -6.92,0.01 -12.97,6.22 -12.98,13.2z"/>
   <path class="fil0" d="M431.03 187.97c0.04,-0.01 -0.16,-0.15 0.72,-0.19 0.41,-0.02 0.32,0.02 0.6,0.05 3.14,0.41 3.13,0.39 5.79,1.81 6.82,3.69 9.1,15.72 -0.72,21.25 -7.27,4.08 -17.45,-1.32 -17.71,-9.9 -0.16,-5.25 2.03,-9.5 6.6,-11.83 2.64,-1.35 3.77,-0.96 4.72,-1.19zm13.92 12.54c0.01,-7.67 -5.36,-13.3 -12.73,-13.69 -3.83,-0.2 -7.6,1.83 -9.5,3.71 -8.56,8.46 -2.68,22.12 8.56,22.71 7.31,0.39 13.67,-5.85 13.67,-12.73z"/>
   <path class="fil0" d="M39.99 304.35c3.81,0.01 6.73,1.59 8.63,3.64 10.08,10.96 -3.96,26.65 -15.85,18.44 -0.24,-0.16 -1.42,-1.15 -1.67,-1.4 -7.02,-6.96 -3.1,-20.69 8.89,-20.68zm-1.18 25.25l1.89 0c6.02,0 12.51,-6.05 12.28,-13.7 -0.12,-4.05 -2,-6.82 -4.07,-8.91 -1.08,-1.09 -2.2,-1.87 -3.79,-2.58 -10.61,-4.75 -21.83,5.67 -17.6,16.9 1.02,2.71 3.63,5.42 6.18,6.79 1.22,0.66 3.47,1.5 5.11,1.5z"/>
   <path class="fil0" d="M255.51 330.74c3.68,0.14 6.86,0.29 10.57,0.26 1.98,-0.01 3.12,0.26 5.19,0.25 4.49,-0.02 12.49,0.67 16.22,0.16l22.91 -0.71c-0.69,-0.31 -22.04,-1.32 -23.08,-1.32l-15.8 0.22c-2.93,0.26 -15.1,0.67 -16.01,1.14z"/>
   <path class="fil0" d="M204.22 435.14c-0.75,-1.43 0.54,0.51 -0.19,-0.4 -0.01,1.1 1.44,7.76 1.77,9.42 0.71,3.68 4.61,3.43 6.45,4.95 0.12,-3.16 -0.98,-7.07 -1.19,-10.22 -0.9,-0.12 -5.91,-2 -6.84,-3.75z"/>
   <path class="fil0" d="M259.96 448.76c2.42,-1.28 5.15,-1.46 5.79,-4.56 0.59,-2.85 1.31,-6.07 1.71,-8.61 -0.97,0.19 -3.87,2.72 -6.34,3.07 0.02,2.46 -1.27,7.89 -1.16,10.1z"/>
   <path class="fil0" d="M244.4 358.12l7.04 0.03c1.07,-1.91 2.24,-3.94 2.09,-6.1l-8.42 -0.02 -0.71 6.09z"/>
   <path class="fil0" d="M225.32 358.13l6.31 0.02c1.07,-1.24 2.14,-4.4 2.77,-6.09l-8.88 -0.03 -0.2 6.1z"/>
   <path class="fil0" d="M431.96 326.74l0.01 -1.12c-9.56,-0.33 -11.81,-10.64 -6.68,-15.71 5.1,-5.05 13.48,-2.61 15.34,3.73 0.28,0.97 0.27,2.35 0.56,2.96l0.93 0c-0.48,-9.82 -11.18,-13.61 -17.51,-7.36 -4.45,4.4 -4,11.68 1.47,15.64 2.08,1.5 3.19,1.31 5.88,1.86z"/>
   <path class="fil0" d="M431.98 287.83c-0.1,-0.83 0.05,-0.71 -0.97,-0.91 -0.73,-0.14 -0.97,-0.05 -1.65,-0.24 -4.56,-1.24 -7.58,-5.8 -6.55,-10.64 1.81,-8.55 12.36,-9.85 16.63,-3.45 0.58,0.87 0.83,1.25 1.15,2.38 0.27,0.93 0.35,2.4 0.61,2.93l0.92 -0.01c-0.25,-4.63 -2.79,-7.93 -6.12,-9.42 -4.42,-1.98 -8.87,-0.44 -11.5,2.19 -2.44,2.42 -4.11,7.61 -1.85,11.64 0.98,1.75 2.11,3.13 3.69,4.1 0.86,0.53 1.58,0.86 2.6,1.17 0.84,0.25 2.3,0.71 3.04,0.26z"/>
   <path class="fil0" d="M40 209.71c-0.61,-1.29 -1.52,0.4 -5.04,-1.8 -5.35,-3.35 -5.56,-10.29 -1.88,-14.31 2.09,-2.28 6.65,-3.71 10.42,-2.03 3.15,1.4 5.39,4.1 5.49,8.66l1.13 0.04c-0.76,-3.56 -0.76,-6.73 -5.9,-9.42 -1.59,-0.83 -4.33,-1.42 -6.68,-0.82 -6.62,1.72 -9.87,9.01 -6.94,14.44 1.59,2.94 4.54,5.42 7.77,5.72 1.9,0.17 1.52,-0.24 1.63,-0.48z"/>
   <path class="fil0" d="M432 209.71c-0.38,-0.81 -0.14,-0.37 -1.38,-0.52 -7.62,-0.88 -11.25,-10.85 -4.36,-16.54 0.96,-0.78 2.25,-1.35 3.57,-1.62 3.83,-0.78 7.76,0.78 9.77,3.99 1.72,2.74 1.12,4.19 1.59,5.25l0.94 -0.02c-0.26,-3.38 -1,-4.82 -2.69,-6.96 -0.59,-0.75 -1.74,-1.61 -2.59,-2.13 -1.84,-1.12 -3.25,-1.28 -5.1,-1.27 -6.05,0.02 -10.58,5.2 -10.14,10.84 0.52,6.63 7.09,9.96 9.66,9.46 1.05,-0.21 0.39,0.24 0.73,-0.48z"/>
   <path class="fil0" d="M422.54 239.21c0.01,-11.58 17.94,-12.94 18.44,-0.01l1.14 0c-0.45,-2.1 -0.27,-3.51 -1.93,-5.83 -7.34,-10.24 -22.88,-0.99 -17.56,10.25 0.81,1.71 2.23,3.14 3.66,4.12 0.87,0.6 3.16,1.49 4.34,1.62 1.12,0.12 1.08,0.14 1.37,-0.47 -0.36,-0.76 0.37,-0.23 -0.9,-0.53 -1.09,-0.26 -1.19,-0.04 -2.87,-0.67 -3.05,-1.16 -5.69,-4.74 -5.69,-8.48z"/>
   <path class="fil0" d="M39.98 287.83c-0.15,-1.31 0.11,-0.52 -2.43,-1.1 -7.06,-1.62 -9.21,-10.51 -4.46,-15.25 1.26,-1.26 2.27,-2.08 4.45,-2.62 1.96,-0.49 4.12,-0.35 5.9,0.41 1.52,0.64 3.04,2 3.91,3.17 1.08,1.47 1.56,3.1 1.65,5.44l1.09 0.02c-0.51,-1.27 0.29,-2.32 -1.79,-5.7 -3.14,-5.12 -10.76,-6.41 -15.69,-1.67 -2.81,2.72 -4.04,7.09 -2.05,11.63 1.87,4.29 7.85,6.63 9.42,5.67z"/>
   <path class="fil0" d="M39.95 325.62c-4.05,-0.17 -6.87,-1.77 -8.58,-5.33 -0.81,-1.68 -1.04,-3.96 -0.54,-5.99 2.12,-8.66 12.98,-8.98 16.62,-3.02 1.1,1.79 1.44,2.7 1.55,5.32l1.09 -0.02c-0.33,-0.79 -0.1,-1.28 -0.29,-2.22 -1.33,-6.92 -10.61,-11.61 -17.29,-4.99 -4.14,4.1 -3.76,11.13 0.4,14.56 2.8,2.31 2.94,2.06 7.08,2.8l-0.04 -1.11z"/>
   <path class="fil0" d="M40 248.89c-0.42,-0.92 0.02,-0.19 -2.51,-0.81 -0.83,-0.2 -1.87,-0.59 -2.54,-0.99 -0.6,-0.36 -0.46,-0.34 -0.93,-0.72 -8.36,-6.77 -0.37,-19.83 9.36,-15.74 3.2,1.35 5.45,4.18 5.62,8.54l1.09 0.02c-0.35,-0.85 0.02,-6.51 -6.16,-9.34 -8.52,-3.92 -17.53,5.3 -13.3,13.76 1.29,2.57 3.54,4.59 6.24,5.32 0.31,0.09 1.27,0.34 1.55,0.39 1.84,0.3 1.49,-0.24 1.58,-0.43z"/>
   <path class="fil0" d="M40 364.76c-0.56,-1.17 -2.03,0.14 -5.19,-1.89 -5.14,-3.31 -5.47,-10.39 -1.73,-14.22 5.68,-5.82 15.71,-2.27 15.91,6.43l1.1 -0.04c-0.28,-0.68 -0.29,-2.31 -0.62,-3.29 -0.26,-0.77 -0.82,-1.89 -1.29,-2.49 -8.3,-10.64 -22.72,-0.21 -17.54,10.23 2.24,4.54 8.56,6.95 9.36,5.27z"/>
   <path class="fil0" d="M432 364.76c-0.39,-0.8 -0.13,-0.36 -1.35,-0.54 -3.07,-0.48 -5.85,-2.22 -7.16,-5.12 -3.71,-8.19 4.58,-15.87 12.05,-12.52 3.61,1.62 5.34,4.47 5.44,8.5l1.15 0c-0.28,-1.26 -0.21,-2.14 -0.67,-3.33 -2.94,-7.66 -11.83,-8.96 -16.88,-3.84 -2.69,2.73 -4.04,7.13 -1.95,11.59 1.98,4.22 8.52,7.03 9.37,5.26z"/>
   <path class="fil0" d="M436.89 244.35c6.24,-6.08 -1.98,-14.13 -5.13,-12.22 0.19,1.48 0.8,0.19 3.3,1.65 3.76,2.21 3.93,7.17 1.28,9.78 -3.48,3.44 -10.55,2.31 -10.75,-4.57l-1.13 0.01c0.52,2.48 0.71,5.04 4.3,6.74 3.16,1.49 6.14,0.55 8.13,-1.39z"/>
   <path class="fil0" d="M47.06 317.3c0.46,-4.04 -2.55,-7.95 -7.3,-8.22l0.03 0.92c0.65,0.34 1.24,0.21 2.07,0.51 1.6,0.56 3.19,1.83 3.78,3.52 2.19,6.21 -4.26,10.62 -9.04,7.87 -4.03,-2.33 -1.79,-5.51 -4.13,-5.5 -0.14,4.74 4.94,8.27 9.04,7.15 2.74,-0.74 5.21,-3.35 5.55,-6.25z"/>
   <path class="fil0" d="M46.36 352.02c-1.09,-2.48 -5.07,-5.04 -6.59,-4.01 0.27,1.8 3.83,-0.01 5.74,4.4 1.28,2.97 0.39,5.48 -1.44,7.22 -1.86,1.78 -4.6,2.29 -7.24,0.98 -4.3,-2.14 -2.15,-5.47 -4.15,-5.77 -1.8,3.05 5.98,11.56 12.22,5.39 2.02,-2 2.89,-4.97 1.46,-8.21z"/>
   <path class="fil0" d="M436.89 360.22c6.45,-6.37 -2.4,-14 -5.13,-12.21 0.23,1.47 0.98,0.32 3.3,1.64 1.22,0.7 1.71,1.3 2.37,2.59 2.7,5.31 -2.77,10.99 -8.29,8.52 -3.84,-1.72 -3.32,-5.18 -3.76,-5.92l-0.91 0.04c0.27,6.56 7.72,9.98 12.42,5.34z"/>
   <path class="fil0" d="M433.7 270.77c-2.32,-0.61 -1.92,0.22 -1.96,0.3 0.63,0.64 -0.52,0.18 0.91,0.51 0.29,0.07 0.64,0.09 1.01,0.18 4.38,1.14 6.06,7.06 2.65,10.47 -1.68,1.69 -4.47,2.58 -7.24,1.2 -1.62,-0.81 -2.78,-2.06 -3.26,-3.82 -0.17,-0.64 -0.12,-1.41 -0.43,-1.93l-0.91 0.02c0.56,2.84 0.92,5.05 4.33,6.71 7.64,3.72 14.79,-7.56 6.86,-12.77 -0.61,-0.4 -1.19,-0.67 -1.96,-0.87z"/>
   <path class="fil0" d="M46.29 196.81c-1.4,-2.85 -5.13,-4.71 -6.52,-3.86 0.15,1.13 0.47,0.83 1.57,1.02 0.64,0.11 1.28,0.32 1.87,0.72 0.73,0.51 1.9,1.74 2.3,2.66 3.24,7.55 -7.32,12.67 -11.21,5.78 -1.34,-2.38 0.14,-3.09 -1.83,-3.08 0.09,3.06 2.04,5.67 4.38,6.66 1.42,0.61 3.12,0.81 4.75,0.36 4.3,-1.2 6.9,-5.77 4.69,-10.26z"/>
   <path class="fil0" d="M431.77 310c0.85,0.44 4.23,0.28 5.72,3.7 4.1,9.35 -11.48,13.13 -11.9,2.72l-1.12 -0.03c0.51,2.7 1.15,5.16 4.21,6.6 3.03,1.43 6.37,0.52 8.28,-1.4 4.62,-4.68 1.38,-12.24 -5.19,-12.5l0 0.91z"/>
   <path class="fil0" d="M46.4 236.11c-1.22,-2.67 -5.08,-4.93 -6.63,-3.98 0.22,1.76 3.85,0.01 5.74,4.4 2.44,5.67 -3.27,10.83 -8.68,8.2 -4.26,-2.06 -2.17,-5.48 -4.15,-5.76 -0.73,1.2 0.76,5.17 4.08,6.77 6.07,2.92 12.45,-3.52 9.64,-9.63z"/>
   <path class="fil0" d="M39.75 271.07c0.51,1.08 1.04,-0.06 3.37,1.35 6.8,4.14 0.88,14.75 -6.24,10.96 -1.64,-0.88 -2.87,-2.29 -3.19,-4.11 -0.19,-1.09 0.13,-1.43 -1.01,-1.59 -0.56,0.92 0.45,3.22 0.95,4 5.35,8.39 18.38,-0.37 11.67,-8.59 -0.85,-1.03 -2.13,-1.9 -3.41,-2.27 -0.25,-0.07 -0.93,-0.24 -1.22,-0.23 -1.56,0.05 -0.61,0.16 -0.92,0.48z"/>
   <path class="fil0" d="M438.29 196.8c-1.55,-3.1 -5.34,-4.58 -6.52,-3.85 0.14,1.12 0.42,0.82 1.56,1.02 1.84,0.32 3.22,1.55 4.1,3.22 2.77,5.29 -2.98,11.1 -8.17,8.64 -3.89,-1.84 -3.43,-5.04 -3.88,-5.8l-0.91 0.02c0.41,1.95 0.34,2.64 1.44,4.17 0.77,1.06 1.67,1.89 2.94,2.49 1.37,0.64 3.16,0.8 4.75,0.36 1.67,-0.47 2.29,-0.9 3.4,-2.02 2.01,-2.02 2.91,-5.03 1.29,-8.25z"/>
   <path class="fil0" d="M43.07 355.56c-0.87,4.68 -7.52,3.38 -6.57,-1.37 0.78,-3.94 7.41,-3.08 6.57,1.37zm-4.01 -4.74c-0.91,0.23 -0.89,0 -1.67,0.49 -3.83,2.36 -1.57,9 3.1,8.06 2.13,-0.43 4.25,-2.35 3.66,-5.13 -0.26,-1.24 -0.98,-2.15 -1.76,-2.73 -1.37,-1.03 -2.17,-0.98 -3.33,-0.69z"/>
   <path class="fil0" d="M38.56 313.28c4.27,-1.72 6.59,4.7 2.52,6.32 -4.16,1.66 -6.82,-4.59 -2.52,-6.32zm-3.27 3.1c0.01,1.91 1.72,4.49 4.47,4.49 5.86,0 5.83,-8.9 0.03,-8.82 -2.78,0.04 -4.5,2.63 -4.5,4.33z"/>
   <path class="fil0" d="M43.08 200.51c-0.4,1.94 -1.41,3.16 -3.64,2.89 -4.5,-0.53 -3.9,-7.41 1,-6.67 1.35,0.21 2.36,1.15 2.64,2.37 0.22,0.93 0.12,0.81 0,1.41zm-3.77 -4.73c-0.69,0.17 -1.88,0.1 -2.96,1.55 -2.64,3.58 0.78,7.67 4.02,7.1 4.09,-0.71 5.17,-5.56 2.13,-7.85 -0.5,-0.37 -0.75,-0.51 -1.42,-0.71 -1.15,-0.36 -1.16,-0.24 -1.77,-0.09z"/>
   <path class="fil0" d="M39.29 235.89c0.52,-0.13 -0.62,-0.15 0.66,-0.16 0.08,0 0.6,0.09 0.76,0.14 3.42,0.95 3.25,5.9 -0.07,6.6 -3.73,0.8 -5.29,-3.11 -3.53,-5.43 0.89,-1.17 0.81,-0.81 2.18,-1.15zm-4 3.32c0,0.01 0.44,1.64 0.52,1.82 1.88,4.01 8.29,3.02 8.42,-1.84 0.1,-3.74 -4.88,-6.07 -7.6,-3.11 -0.74,0.79 -1.34,2.42 -1.34,3.13z"/>
   <path class="fil0" d="M435.08 317.33c-1.5,4.43 -7.58,2.58 -6.56,-1.81 1,-4.3 8.02,-2.52 6.56,1.81zm-3.31 -5.22c-1.9,0.24 -1.87,0.1 -3.03,1.25 -0.87,0.87 -1.27,1.53 -1.25,3.26 0.08,5.81 9.08,5.43 8.75,-0.46 -0.14,-2.45 -2.31,-4.33 -4.47,-4.05z"/>
   <path class="fil0" d="M43.07 278.39c-0.47,1.87 -1.63,3.26 -3.96,2.79 -1.69,-0.33 -3.01,-1.85 -2.62,-4.16 0.7,-4.17 7.7,-3.08 6.58,1.37zm-4.49 -4.74c-1.03,0.31 -1.74,0.65 -2.5,1.76 -2.08,3.04 0.69,7.73 4.96,6.61 5.31,-1.38 3.32,-10.12 -2.46,-8.37z"/>
   <path class="fil0" d="M435.09 356.03c-1.51,4.31 -7.95,2.47 -6.46,-2.18 1.26,-3.95 7.94,-2.06 6.46,2.18zm-4.05 -5.21c-0.6,0.16 -1.66,0.17 -2.69,1.57 -2.43,3.29 0.43,7.78 4.33,6.94 6.08,-1.3 3.54,-9.84 -1.64,-8.51z"/>
   <path class="fil0" d="M435.08 240.15c-1.54,4.46 -7.99,2.19 -6.49,-2.21 0.55,-1.59 2.4,-2.63 4.31,-2.01 1.55,0.51 2.85,2.28 2.18,4.22zm-4.28 -5.2c-5.84,1.79 -3.38,9.67 2.07,8.46 3.68,-0.81 4.68,-5.64 1.38,-7.88 -0.37,-0.25 -0.97,-0.53 -1.46,-0.66l-1.45 -0.1c-1.11,0.2 0.09,-0.01 -0.54,0.18z"/>
   <path class="fil0" d="M435.08 278.86c-1.7,4.56 -7.91,1.89 -6.49,-2.22 0.54,-1.56 2.39,-2.73 4.4,-2.09 1.54,0.49 2.81,2.37 2.09,4.31zm0.93 0.23c0.87,-2.55 -0.91,-4.85 -2.8,-5.47 -2.56,-0.83 -5,0.83 -5.56,2.78 -1.66,5.78 6.5,8.14 8.36,2.69z"/>
   <path class="fil0" d="M431.3 196.72c0.06,-0.01 0.85,-0.02 0.91,-0.02 0.45,0.04 0.96,0.17 1.33,0.37 0.63,0.35 1.25,1.09 1.52,1.79 1.61,4.23 -4.9,6.48 -6.37,2.58 -0.72,-1.89 -0.21,-3.62 1.89,-4.5l0.72 -0.22zm4.71 4.49c0.91,-2.6 -1.09,-4.95 -3.09,-5.42 -2.41,-0.56 -4.74,0.94 -5.27,2.96 -1.44,5.46 6.32,8.31 8.36,2.46z"/>
  </g>
 </g>
</svg>
