<?xml version="1.0" encoding="UTF-8"?>
<!DOCTYPE svg PUBLIC "-//W3C//DTD SVG 1.1//EN" "http://www.w3.org/Graphics/SVG/1.1/DTD/svg11.dtd">
<!-- Creator: CorelDRAW 2021 (64-Bit) -->
<svg xmlns="http://www.w3.org/2000/svg" xml:space="preserve" width="93.101mm" height="14.95mm" version="1.1" style="shape-rendering:geometricPrecision; text-rendering:geometricPrecision; image-rendering:optimizeQuality; fill-rule:evenodd; clip-rule:evenodd"
viewBox="0 0 9310.1 1495"
 xmlns:xlink="http://www.w3.org/1999/xlink"
 xmlns:xodm="http://www.corel.com/coreldraw/odm/2003">
 <defs>
  <style type="text/css">
   <![CDATA[
    .fil0 {fill:#06506E;fill-rule:nonzero}
   ]]>
  </style>
 </defs>
 <g id="Слой_x0020_1">
  <metadata id="CorelCorpID_0Corel-Layer"/>
  <g id="_2956867979152">
   <path class="fil0" d="M180.53 967.14c127.39,-38 231.07,-62.59 444.22,21.48 5.05,1.98 10.34,3.95 15.38,5.86 -219.6,83.01 -366.29,19.58 -459.6,-27.34zm-182.16 -10.93l0 -0.02c0.44,-0.37 280.82,-233.64 664.38,-63.67 282.46,125.21 472.75,131.31 527.5,134.94l-6.13 103.4c-53.66,-3.35 -196.15,-17.07 -414.34,-89.67 -411.3,253.21 -770.98,-84.57 -771.41,-84.98z"/>
   <path class="fil0" d="M1736.46 598.89c-127.39,38 -231.07,62.59 -444.22,-21.48 -5.05,-1.98 -10.34,-3.95 -15.38,-5.89 219.6,-83.26 366.29,-19.86 459.6,27.37zm-1003.59 -163.72l-6.13 103.36c54.75,3.67 245.04,9.78 527.5,134.94 383.86,170.15 664.39,-63.68 664.39,-63.68 0,0 -359.87,-338.34 -771.42,-84.94 -218.19,-72.64 -360.68,-86.33 -414.34,-89.68z"/>
   <path class="fil0" d="M1675.27 813.45c-1.12,0.29 -42.19,7.27 -112.32,9.53 -120.4,3.91 -327.45,-7.02 -567.73,-92.75 -277.42,-99.2 -487.53,-113.73 -621.06,-106.75 70.1,-257.03 305.36,-446.47 584.2,-446.47 165.7,0 315.98,66.78 425.52,174.9 27.09,-3.35 54.19,-5.29 81.56,-5.29 22.37,0 43.85,1.38 65.09,3.6 -131.3,-172.93 -338.88,-284.97 -572.17,-284.97 -345.86,0 -635.07,246.16 -702.38,572.2 -7.83,38.28 -12.88,77.68 -14.54,117.9l0 0.28c1.13,-0.28 39.94,-12.56 113.14,-18.45 117.09,-9.21 322.16,-1.94 602.93,98.36 229.38,81.84 428.87,100.61 562.44,100.61 8.64,0 16.75,-0.32 24.83,-0.32 -67.87,260.42 -305.08,453.46 -586.42,453.46 -165.7,0 -315.98,-66.78 -425.52,-174.91 -27.09,3.36 -54.19,5.33 -81.56,5.33 -22.37,0 -43.89,-1.41 -65.13,-3.63 131.34,172.89 338.92,284.97 572.21,284.97 345.86,0 635.32,-246.13 702.66,-572.45 7.55,-37.18 12.6,-75.46 14.25,-114.3l0 -0.85z"/>
   <path class="fil0" d="M3724.31 1199.82l-318.48 -872 130.74 0 217.38 616.38 33.23 119.83 2.54 0c11.43,-48.61 22.61,-88.54 33.23,-119.83l218.48 -616.38 129.64 0 -318.8 872 -127.96 0z"/>
   <path class="fil0" d="M4448.49 757.54c0,98.07 30.44,179.95 91.37,245.88 60.89,65.94 138,98.89 231.07,98.89 92.18,0 168.73,-32.95 229.62,-98.89 60.93,-65.93 91.37,-147.81 91.37,-245.88 0,-94.72 -30.44,-174.06 -91.37,-237.74 -60.89,-63.71 -137.44,-95.85 -229.62,-95.85 -93.07,0 -170.18,31.86 -231.07,95.85 -60.93,63.96 -91.37,143.02 -91.37,237.74zm-126.01 0c0,-125.98 42.47,-231.6 127.14,-316.8 84.91,-85.23 191.94,-127.95 321.03,-127.95 128.51,0 234.95,42.72 319.89,127.95 84.92,85.2 127.11,190.82 127.11,316.8 0,129.36 -42.44,237.77 -127.11,325.51 -84.94,87.73 -191.38,131.58 -319.89,131.58 -128.52,0 -235.27,-43.85 -320.47,-131.58 -84.95,-87.74 -127.7,-196.15 -127.7,-325.51z"/>
   <polygon class="fil0" points="5516.88,1199.82 5516.88,327.82 5639.26,327.82 5639.26,1093.63 6030.67,1093.63 6030.67,1199.82 "/>
   <path class="fil0" d="M6254.2 890.83l0 -563 122.38 0 0 561.87c0,66.78 19.83,118.75 59.8,156.21 39.93,37.4 93.55,56.13 161.18,56.13 67.63,0 121,-18.73 160.66,-56.13 39.4,-37.46 59.23,-89.99 59.23,-157.58l0 -560.5 122.38 0 0 563.28c0,97.23 -31.29,175.44 -93.88,234.67 -62.58,59.23 -144.99,88.87 -246.98,88.87 -102.83,0 -186.09,-29.64 -249.48,-88.87 -63.43,-59.23 -95.29,-137.72 -95.29,-234.95z"/>
   <polygon class="fil0" points="7494.4,1199.82 7494.4,434.01 7194.33,434.01 7194.33,327.82 7915.72,327.82 7915.72,434.01 7615.69,434.01 7615.69,1199.82 "/>
   <polygon class="fil0" points="8755.58,1199.82 8755.58,327.82 9308.49,327.82 9308.49,434.01 8877.96,434.01 8877.96,721.77 9210.98,721.77 9210.98,827.96 8877.96,827.96 8877.96,1199.82 "/>
   <path class="fil0" d="M8337.33 188.17c45.54,124.88 76.27,226.87 5.05,444.75 -1.7,5.32 -3.39,10.65 -5.05,15.69 -96.13,-214.31 -41.34,-364.34 0,-460.44zm-0.3 -182.16l0.04 0c0.82,0.88 250.07,266.91 103.34,659.33 -108.12,289.2 -103.08,479.46 -103.36,534.49l-103.36 0c0.28,-53.94 5.29,-196.96 64.52,-418.78 -277.12,-395.2 38.11,-774.19 38.82,-775.04z"/>
   <path class="fil0" d="M2798.43 422.57c-89.68,0 -164.57,26.81 -224.9,80.15 -60.36,53.38 -96.41,122.66 -107.88,207.89l643.19 0c-11.47,-90.8 -46.68,-161.5 -105.06,-212.05 -58.95,-50.84 -127.14,-75.99 -205.35,-75.99zm0 -110.38c127.67,0 230.78,44.98 309.56,135.22 78.77,90.27 118.18,196.99 118.18,319.9 0,12.59 -1.13,30.48 -3.35,53.37l-757.17 0c11.47,87.49 48.61,156.78 111.2,207.89 62.62,51.12 139.98,76.8 231.91,76.8 65.66,0 122.1,-13.37 169.87,-40.5 47.76,-27.12 83.53,-62.3 107.84,-105.86l100.01 58.66c-37.99,60.89 -89.67,109.22 -155.04,144.71 -65.41,35.74 -140.27,53.34 -224.09,53.34 -135.5,0 -245.85,-42.44 -331.08,-127.67 -84.91,-84.91 -127.67,-193.04 -127.67,-324.06 0,-128.83 41.91,-236.11 125.73,-322.44 83.82,-86.32 191.95,-129.36 324.1,-129.36z"/>
  </g>
 </g>
</svg>
