<?xml version="1.0" encoding="UTF-8"?>
<!DOCTYPE svg PUBLIC "-//W3C//DTD SVG 1.1//EN" "http://www.w3.org/Graphics/SVG/1.1/DTD/svg11.dtd">
<!-- Creator: CorelDRAW 2021 (64-Bit) -->
<svg xmlns="http://www.w3.org/2000/svg" xml:space="preserve" width="472px" height="481px" version="1.1" style="shape-rendering:geometricPrecision; text-rendering:geometricPrecision; image-rendering:optimizeQuality; fill-rule:evenodd; clip-rule:evenodd"
viewBox="0 0 472 480.91"
 xmlns:xlink="http://www.w3.org/1999/xlink"
 xmlns:xodm="http://www.corel.com/coreldraw/odm/2003">
 <defs>
  <style type="text/css">
   <![CDATA[
    .fil2 {fill:#7ED959}
    .fil1 {fill:#8CD36B}
    .fil3 {fill:#A4CA88}
    .fil0 {fill:white}
   ]]>
  </style>
 </defs>
 <g id="Слой_x0020_1">
  <metadata id="CorelCorpID_0Corel-Layer"/>
  <g id="_2136604753888">
   <path class="fil0" d="M294.5 161.79c-4.57,1.43 -6.49,2.08 -9.63,5.39 -2.07,2.18 -4.43,5.73 -5.77,9.68 -7.05,20.87 10.37,58.85 38.35,50.91 32.16,-9.12 11.41,-76.66 -22.95,-65.98z"/>
   <path class="fil0" d="M93.98 266.14c-0.15,9.2 -1.77,30.84 1.69,37.62 4.74,0.96 10.85,1.02 15.2,0.09 5.42,-1.16 7.58,-3.81 11.81,-5.88 1.63,-5.01 3.3,-6 3.16,-13.55 -0.15,-8.42 -3.46,-9.84 -4.2,-13.5 -9.94,-4.81 -13.88,-7.41 -27.78,-5.71l0.12 0.93z"/>
   <path class="fil0" d="M21.91 235.81l1.67 -4.68c1.46,-10.74 0.94,-33.02 -1.74,-43.45 -2.73,-10.59 -10.51,-28.62 -17.35,-34.08 -0.19,11.79 2.56,33.07 4.1,45.62 1.41,11.51 6.69,30.68 13.32,36.59z"/>
   <path class="fil1" d="M158.08 268.33l8 -20.54c1.06,-1.87 0.72,-1.16 1.66,-2.01l10.01 24.68 0.54 5.08c-4.86,-0.26 -20.46,3.1 -20.93,-1.6l0.72 -5.61zm0.13 -6.76c-1.93,7.33 -5.09,14.02 -8.02,21.25 -2.36,5.84 -6.99,14.58 -8.46,19.31l-0.46 4.36 6.95 -0.43c-5.73,-8.94 -1.07,-10.34 4.47,-26.9l29.1 -0.04c2.38,7.4 10.84,19.51 7.8,26.56l14.49 0.64c-0.61,-2.14 -6.96,-9.46 -12.35,-24.95 -1.56,-6.11 -6.01,-14.45 -8.57,-20.96 -2.13,-5.44 -7.38,-15.73 -8.25,-20.6 -4.08,-3.82 -0.72,-4.85 -6.41,-4.37 -5.13,2.15 -3.04,0.68 -3.32,6.27 -0.22,4.46 -0.12,3.9 -1.71,7.64 -1.05,2.5 -4.18,11.12 -5.26,12.22z"/>
   <path class="fil2" d="M186.78 228.56c-1.96,2.34 0.08,1.73 4.28,1.74 3.31,0 6.94,-0.13 10.22,-0.46 -3.26,-4.95 -3.73,-2.83 -3.67,-15l0.43 -49.56c1.06,-4.83 2.15,-2.84 3,-5.84l-15.38 -0.1c0.12,2.94 1.57,0.85 2.93,5.04 1.19,3.64 0.63,24 0.63,28.62 0,8.98 2,30.31 -2.44,35.56z"/>
   <path class="fil2" d="M131.62 162.71l-0.87 2.77 1.51 50.39c-0.04,9.46 -0.23,8 -3.33,14.27l15.23 -0.04c-6.12,-8.08 -3.19,-21.81 -3.76,-37.53 27.39,-1.61 22.92,2.87 29.33,6.12l-1.47 -13.6c-8.54,6.91 -13.07,5.56 -27.44,5.24l-0.08 -29.33c9.14,-0.34 17.99,-0.48 26.61,0.73 -1.57,-1.18 2.62,-3.06 -3.3,-1.29l9.54 -1.03 3.22 4.5 -0.51 -4.8c-5.8,-0.98 -44.7,-1.3 -48.16,0.65 1.86,3.06 0.04,1.29 3.48,2.95z"/>
   <path class="fil0" d="M93.92 242.86l-0.11 20.35c12.08,1.82 23.85,-0.3 23.87,-13.08 0.02,-11.99 -11.68,-15.08 -23.78,-13.2l0.02 5.93z"/>
   <path class="fil0" d="M33.34 183.35l1.32 -2.3c0.11,-0.22 0.25,-0.53 0.36,-0.78 0.46,-1.06 0.77,-2.14 1.11,-3.15 8.61,-25.55 9.26,-36.57 9.1,-63.09l-0.56 -6.12c-0.69,-2.2 -0.33,-1.32 -1.3,-2.61 -4.01,9.81 -6.8,24.27 -8.86,35.86 -1.23,6.96 -1.52,12.39 -2.13,19.61 -0.35,4.04 -0.56,7.35 -0.65,11.45 -0.09,4.09 -0.64,7.82 1.61,11.13z"/>
   <path class="fil0" d="M158.08 268.33l-0.72 5.61c0.47,4.7 16.07,1.34 20.93,1.6l-0.54 -5.08 -10.01 -24.68c-0.94,0.85 -0.6,0.14 -1.66,2.01l-8 20.54z"/>
   <path class="fil2" d="M216.26 162.87c5.98,-1.21 6.97,-2.19 14.39,-1.35l0.16 63.54c-1.49,1.65 -3.21,3.52 -4.18,5.6l17.12 -0.08c-1.91,-3.64 -2.29,-1.98 -3.2,-6.58 -1.02,-5.15 -1.23,-58.62 0.38,-62.28 3.56,-1.16 7.54,-0.19 11.6,0.12 6.79,3.25 4.48,4.63 9.35,8.23l-0.15 -9.28 0.38 -1.69c-6.68,-1.05 -20,-0.69 -27.23,-0.55l-19.8 -0.07c-5.42,0.1 -5.17,0.8 -6.31,2.19l-0.21 8.96 3.62 -3.46c2.28,-2.95 0.77,-1.78 4.08,-3.3z"/>
   <path class="fil2" d="M93.98 266.14l-0.12 -0.93 -0.05 -2 0.11 -20.35c-4.17,-3.35 -1.05,-4.62 -5.52,-5.1 -1.63,1.8 -0.51,-0.69 -1.22,2.27l0.8 27.77c0,5.19 -0.02,10.39 0,15.58 0.03,7.35 -1.11,10.78 0,14.59 0.08,0.28 0.22,0.69 0.42,0.99 5.36,-0.8 4.58,3.84 4.44,-14.54 -0.02,-3.11 0.06,-6.29 -0.15,-9.36l-0.06 -6.18c0.58,-2.27 0.24,-1.48 1.35,-2.74z"/>
   <path class="fil0" d="M336.7 295.5c-1.8,4.81 -0.11,6.82 1.25,10.97l-10.97 -0.25c2.19,-6.13 3.79,-0.98 8.73,-13.33 2.29,-5.74 4.52,-9.9 5.84,-15.62 -6.23,4.19 1.87,-1.71 -2.12,1.32l-3.79 4.39 -1.98 -1.68c-3.16,-2.36 1.76,-1.25 -3.21,-1.69 -0.25,0.72 -0.64,2.29 -0.87,2.72 -1.12,2.14 -0.8,1.62 -2.25,2.95 -2.26,-2.93 -1.2,-2.26 -2.07,-5.38 -2.09,6.12 1.77,9.75 0.39,14.93 -2.01,7.47 -2.06,6.37 1.82,7 -2.65,2.71 -2.7,1.75 -2.15,4.96l-0.36 4.93c6.78,0.05 7.62,-1.59 8.48,-1.93 0.18,-0.08 0.51,-0.2 0.69,-0.26l3.06 -0.45c0.72,2.15 3.85,2.92 -0.71,2.58l4.31 -0.23c-4.64,-14.9 2.26,-13.82 -4.09,-15.93z"/>
   <path class="fil2" d="M218.85 249.2l14.18 18.6c1.94,4.12 27.86,38.11 30.74,39.45 1.27,-9.65 0.14,-43.94 0.26,-58.2 0.02,-2.89 0.03,-5.93 0.85,-8.42 1.28,-3.95 1.83,-2.3 3.17,-5.58l-11.96 0.14c1.22,3.07 4.3,2.3 5.6,8.95 1.08,5.51 0.58,40.88 0.25,46.61 -3.35,-2.2 -18.27,-21.16 -20.21,-26.06 -1.83,-0.33 -3.22,-4.46 -7.37,-7.25 -0.38,-1.51 -0.17,-0.96 -1.13,-2.56 -1.59,-2.64 -3.43,-3.56 -4.17,-6.57 -2.05,-1.32 -0.58,0 -2.7,-2.11 -8.36,-8.34 -2.9,-11.69 -17.89,-11.22l3.44 4.09c1.65,9.45 1.27,40.15 1.09,52.64 -0.06,4.2 0.17,7.12 -1.65,10.71 -0.12,0.23 -0.29,0.46 -0.42,0.69l-1.79 3.23 11.59 -0.07c0.92,-1.49 1.3,3.01 0.68,-1.99 -8.32,-3.45 -6.41,-15.83 -6.4,-26.09 0,-10.52 -0.34,-21.29 0.36,-31.75 1.58,2.37 1.19,1.56 3.48,2.76z"/>
   <path class="fil2" d="M121.64 270.92c0.74,3.66 4.05,5.08 4.2,13.5 0.14,7.55 -1.53,8.54 -3.16,13.55l-0.11 2.38 2.08 0.12c4.69,-1.09 7.04,-5.42 8.94,-8.37 1.18,-5.84 2.7,-9.73 0.31,-15.78 -1.18,-2.98 -4.01,-7.43 -8.08,-8.03 -3.28,-0.78 -2.33,-0.97 -5.75,-0.02 1.45,0.6 0.13,-2.59 1.57,2.65z"/>
   <path class="fil1" d="M341.55 277.27c-1.32,5.72 -3.55,9.88 -5.84,15.62 -4.94,12.35 -6.54,7.2 -8.73,13.33l10.97 0.25c-1.36,-4.15 -3.05,-6.16 -1.25,-10.97l6.42 -15.93 27.54 0.08c3.05,1.96 4.43,8.24 6.25,12.36 2.73,6.18 4.51,7.35 2.35,14.18l14.77 -0.05c-1.4,-3.5 -3.69,-3.51 -9.21,-16.87 -2.59,-6.27 -5.11,-13.08 -7.46,-18.41l-15.8 -36.34 -4.21 1.39 -3.01 1.47c1.33,9.15 -1.83,13.22 -5.11,21.29 -1.87,4.6 -5.43,15.19 -7.68,18.6zm4.37 -4.46l9.28 -23.91c2.35,-3.81 0.58,-1.46 3.2,-2.94l5.2 15.19 -0.4 1.58c0.88,2.62 1.49,4.82 2.54,7.08 1.97,4.27 1.94,1.65 2.52,6.64 -6.89,0.01 -10.32,-0.36 -17.29,0.31 -2.24,0.15 -1.67,1.15 -3.84,-0.33 -3,-2.05 -1,0.14 -1.21,-3.62z"/>
   <path class="fil0" d="M345.92 272.81c0.21,3.76 -1.79,1.57 1.21,3.62 2.17,1.48 1.6,0.48 3.84,0.33l-0.33 -8.61c2.44,-1.06 2.23,-0.8 5.27,-1.43 0.96,-0.19 2.6,-0.67 3.06,0.62 0.02,-6.67 0.05,-3.23 1.61,-5.08l2.62 0.47 0.4 -1.58 -5.2 -15.19c-2.62,1.48 -0.85,-0.87 -3.2,2.94l-9.28 23.91z"/>
   <path class="fil0" d="M350.97 276.76c6.97,-0.67 10.4,-0.3 17.29,-0.31 -0.58,-4.99 -0.55,-2.37 -2.52,-6.64 -1.05,-2.26 -1.66,-4.46 -2.54,-7.08l-2.62 -0.47c-1.56,1.85 -1.59,-1.59 -1.61,5.08 -0.46,-1.29 -2.1,-0.81 -3.06,-0.62 -3.04,0.63 -2.83,0.37 -5.27,1.43l0.33 8.61z"/>
   <path class="fil2" d="M125.8 253.65c3.19,-4.06 1.06,-13.19 -4.36,-14.33 -1,-1.26 -0.25,-0.69 -1.69,-1.75 -3.74,-2.79 -12.42,-2.58 -16.79,-2.61 -6.3,-0.05 -15.24,-0.94 -21.11,0.36 0.52,1.91 2.07,1.87 3.02,5.73 1.02,4.16 0.52,41.57 0.52,48.57 0,17.25 -1.48,9.55 -3.46,17.16 7.82,-0.98 16.19,-0.21 24.17,-0.52 3.9,-0.16 6.91,-0.81 10.69,-1.79 3.33,-0.85 5.77,-1.49 7.86,-4l-2.08 -0.12 0.11 -2.38c-4.23,2.07 -6.39,4.72 -11.81,5.88 -4.35,0.93 -10.46,0.87 -15.2,-0.09 -3.46,-6.78 -1.84,-28.42 -1.69,-37.62 -1.11,1.26 -0.77,0.47 -1.35,2.74l0.06 6.18c0.21,3.07 0.13,6.25 0.15,9.36 0.14,18.38 0.92,13.74 -4.44,14.54 -0.2,-0.3 -0.34,-0.71 -0.42,-0.99 -1.11,-3.81 0.03,-7.24 0,-14.59 -0.02,-5.19 0,-10.39 0,-15.58l-0.8 -27.77c0.71,-2.96 -0.41,-0.47 1.22,-2.27 4.47,0.48 1.35,1.75 5.52,5.1l-0.02 -5.93c12.1,-1.88 23.8,1.21 23.78,13.2 -0.02,12.78 -11.79,14.9 -23.87,13.08l0.05 2c13.9,-1.7 17.84,0.9 27.78,5.71 -1.44,-5.24 -0.12,-2.05 -1.57,-2.65 3.42,-0.95 2.47,-0.76 5.75,0.02 -2.71,-2.96 -6.51,-3.28 -10.73,-4.32l7.59 -4.39 -0.28 0.35c0.15,-0.26 0.38,-0.56 0.49,-0.74l2.91 -5.54z"/>
   <path class="fil1" d="M411.15 407.01l0.32 0.18c-5.68,-1.87 -13.18,-0.13 -8.83,6.43 2.71,4.1 9.56,3.53 8.51,-6.61z"/>
   <path class="fil2" d="M433.49 384.6l1.18 0.23c0.86,-2.53 1.27,-4.23 0.33,-7.61 -7.42,-3.7 -10.83,2.25 -6.14,8.02l4.63 -0.64z"/>
   <path class="fil2" d="M31.27 222.13c1.62,-22.27 27.26,-40.65 42.01,-58.8 1.44,-1.77 1.8,-2.49 3.02,-4.2l4.25 -4.05c-0.73,16.66 -10.62,30.82 -18.92,39.19l-22.51 21.11c-2.37,2.66 -4.79,4.96 -7.85,6.75zm73.01 -133.4l6.45 -2.41c43.43,-6.86 50.78,-1.96 80.49,-5.16 -11.98,14.52 -56.42,10.7 -72.73,11.15 -8.88,0.25 -15.17,2.78 -22.4,3.53l8.19 -7.11zm-99.79 64.87c6.84,5.46 14.62,23.49 17.35,34.08 2.68,10.43 3.2,32.71 1.74,43.45l-1.67 4.68c-6.63,-5.91 -11.91,-25.08 -13.32,-36.59 -1.54,-12.55 -4.29,-33.83 -4.1,-45.62zm28.85 29.75c-2.25,-3.31 -1.7,-7.04 -1.61,-11.13 0.09,-4.1 0.3,-7.41 0.65,-11.45 0.61,-7.22 0.9,-12.65 2.13,-19.61 2.06,-11.59 4.85,-26.05 8.86,-35.86 0.97,1.29 0.61,0.41 1.3,2.61l0.56 6.12c0.16,26.52 -0.49,37.54 -9.1,63.09 -0.34,1.01 -0.65,2.09 -1.11,3.15 -0.11,0.25 -0.25,0.56 -0.36,0.78l-1.32 2.3zm28.47 -43.92c-4.26,3.17 -1.09,1.3 -5.41,2.67l-0.2 -5.2c0.58,-0.22 -0.52,-0.49 2.14,-0.72 5.76,-0.5 3.53,2.71 3.47,3.25zm0 0c4.03,-0.84 17.91,-13.27 28.71,-19.13 8.64,-4.69 22.18,-11.2 32.75,-12.97 -10.12,10.37 -15.96,16.05 -28.46,23.5 -4.73,2.83 -31.92,14.2 -36.99,15.24 1.72,-4.33 0.45,-0.93 2.08,-3.4l1.91 -3.24zm-4.23 -4.65c-2.48,-23.74 23.56,-47.83 27.07,-86.16 4.72,15.8 2.73,37.76 -3.3,51.1 -4.38,9.68 -17.73,30.29 -23.77,35.06zm47.79 -55.56c2.01,-16.38 21.23,-27.97 31.93,-35.68 17.57,-12.66 18.36,-11.58 31.83,-20.18 3.23,-2.07 6.87,-5.76 9.22,-6.82 -12.02,31.14 -54.16,39.31 -72.98,62.68zm74.2 -69.61c3.5,-0.22 1.11,-0.72 3.14,0.56 0,2.86 0.37,0.64 -0.43,3.25l-1.42 1.93c-3.76,-1.68 -2.43,-0.34 -2.7,-3.3 -1.78,0.85 -1.22,0.29 -3.25,1.69 -2.78,4.29 -19.35,13.79 -25.88,17.55 -8.83,5.08 -18.8,12.37 -26.31,18.38 -28.37,22.69 -17.42,32.21 -26.05,40.43l-11.16 10.14c1.16,-5.64 3.26,-9.38 4.15,-16.28 1.41,-10.97 -0.18,-42.37 -3.57,-51.71l-0.81 -1.68c-2.54,1.24 -1.42,-0.14 -2.52,2.93 -0.14,0.39 -0.49,4.05 -0.53,4.69l-3.78 25.45c-4.92,20.88 -16.66,35.78 -22.93,56.07 -4.21,13.62 3.89,21.42 -8.33,30.69 0.16,-11.26 3.64,-54.84 0.76,-62.23 -3.22,1.44 -2.46,0.88 -4.13,5.27 -24.63,64.56 -10.92,101.03 -15.67,112.61 -1.35,-5.35 -1.57,-13.92 -3.07,-20.37 -1.47,-6.3 -3.3,-11.07 -6.03,-16.81 -3.5,-7.34 -13.47,-24.39 -19.81,-25.65 -0.49,4.81 1.42,13.97 2.14,19.27 2.78,20.3 1.13,34.27 7.91,56.63 5.34,17.63 13.24,20.25 13.56,28.87 0.56,14.93 0.26,25.64 2.28,40.49 15.42,113.64 120.44,200.82 234.93,191.86 14.7,-1.15 24.09,-1.67 37.7,-5.17l24.96 -7.31c3.88,-1.28 4.54,-1.05 5.6,-4.77 -5.2,-0.66 -27.9,7.39 -35.39,9.03 -131.64,28.83 -261.68,-68.99 -266.43,-210.53 -1.24,-36.85 3.91,-32.04 30.38,-57.52 13.5,-13 27.71,-29.99 27.42,-50.55 -0.09,-6.05 -0.42,-6.33 -2.13,-8.6 -3.77,1.57 -3.72,4.21 -5.89,7.97 -6.99,12.11 -20.54,23.49 -31.11,35.31 -2.79,3.12 -9.42,12.88 -12.01,14.74 1.14,-9.9 8.16,-26.74 11.68,-34.83 5.99,-13.8 7.24,-16.23 23.37,-22.19 22.14,-8.16 28.66,-10.35 44.77,-23.82 3.72,-3.11 8.62,-8.9 12.03,-10.41 2.73,-5.53 4.4,-3.25 6.16,-9.07 -1.42,-0.71 -1.49,-1.23 -4.63,-0.45 -13.57,3.36 -35.85,13.4 -47.28,21.4 -2.76,1.94 -4.67,2.59 -7.51,4.96 -2.33,1.96 -4.29,3.31 -7.1,4.93 1.52,-3.34 10.61,-15.75 13.65,-19.09 5.8,-6.36 7.39,-11.22 17.78,-14.44 14.52,-4.5 51.84,-6.21 61.89,-3.38 0.23,-0.14 0.57,-0.27 0.74,-0.33l6.84 -1.53c14.91,-2.29 39.84,-12.46 41.41,-24.37 -13.19,1.11 0.84,8.35 -42.72,8.24 -17.76,-0.04 -32.18,1.55 -49.38,2.74 2.33,-4.67 9.77,-8.6 13.8,-11.1 50.48,-31.34 113.35,-43.44 172.64,-27.63l14.65 4.26c1.59,0.5 2.07,0.66 3.71,1.29 5.23,2.03 10.65,3.98 16.31,6.49 105.09,46.57 159.34,169.3 117.92,278.55 -2.39,6.3 -13.57,28.31 -13.15,33.14 4.04,-1.14 5.45,-6.27 7.29,-10.06 15.52,-31.87 22.86,-63.27 23.12,-99.87 0.81,-113.96 -87.38,-211.07 -196.91,-222.55 -31.88,-2.99 -61.66,-1.36 -90.32,7.39 -22.53,6.88 -33.02,12.32 -52.05,22.77 -5.06,2.78 -10.27,7.07 -14.96,9.35 20.23,-16.43 45.32,-24.86 60.24,-47.14 2.54,-3.79 9.48,-16.91 9.12,-22.28 -0.37,-5.6 0.08,-1.81 -1.26,-3.85 -3.27,2.52 -4.23,5.88 -5.44,9.55z"/>
   <path class="fil2" d="M382.13 437.13c0.68,-6.33 -6.29,-7.43 -8.07,-3.7 -0.34,0.42 -2.55,-0.16 -1.14,4.49 0.41,1.39 1.7,2.37 2.81,2.8 4.5,1.73 5.43,-1.43 6.4,-3.59z"/>
   <path class="fil1" d="M167.35 161.73c2.02,1.38 3.31,1.78 5,3.46 2.91,2.88 1.34,3.2 4.77,4.76l-0.31 -6.04 -3.22 -4.5 -9.54 1.03c5.92,-1.77 1.73,0.11 3.3,1.29z"/>
   <path class="fil2" d="M332.53 170.97l0.03 -2 -1.76 0.13c-1.87,-3.21 -0.26,-1.47 -3.44,-4.19 -1.45,-1.24 -1.39,-1.09 -3.16,-2.07 -8.42,-4.63 -17.85,-5.72 -27.55,-3.66 -12.36,2.63 -20.05,9.83 -24.31,19.48 -10.31,23.31 3.79,50.57 26.81,52.09 7.69,1.44 12.44,0.65 18.77,-1.52 6.68,-2.29 7.77,-4.55 14,-7.46 0.32,-0.73 0.01,-0.25 0.95,-1.6 0.15,-0.21 0.65,-0.86 0.82,-1.09 8.39,-10.76 9.96,-25.18 6.01,-37.32 -1.57,-4.81 -3.21,-8.29 -7.17,-10.79zm-38.03 -9.18c34.36,-10.68 55.11,56.86 22.95,65.98 -27.98,7.94 -45.4,-30.04 -38.35,-50.91 1.34,-3.95 3.7,-7.5 5.77,-9.68 3.14,-3.31 5.06,-3.96 9.63,-5.39z"/>
   <path class="fil1" d="M340.84 454.79c0.01,-0.01 2.28,-3 5.51,-0.86 1.7,1.13 0.88,1.22 1.65,3.95l-6.52 0.85 -0.64 -3.94zm-1.06 3.79c2.75,2.08 2.25,2.16 6.25,2.04 5.51,-4.07 4.19,-11 -4.86,-8.59l-1.39 6.55z"/>
   <path class="fil2" d="M340.84 454.79l0.64 3.94 6.52 -0.85c-0.77,-2.73 0.05,-2.82 -1.65,-3.95 -3.23,-2.14 -5.5,0.85 -5.51,0.86z"/>
   <path class="fil2" d="M61.81 139.43c0.06,-0.54 2.29,-3.75 -3.47,-3.25 -2.66,0.23 -1.56,0.5 -2.14,0.72l0.2 5.2c4.32,-1.37 1.15,0.5 5.41,-2.67z"/>
   <path class="fil2" d="M276.43 239.76l-0.08 -0.01c0.98,1.97 0.98,2.55 2.15,4.19 1.76,2.43 0.64,0.97 2.46,2.23 0.4,5.69 10.56,19.4 13.28,25.64 1.68,3.86 2.45,26.79 -0.56,31.8 -0.12,0.18 -0.33,0.45 -0.44,0.62l14.36 1.91 -1.84 -3.22c-2.93,-5.66 -2.13,-28 0.15,-32.59 2.56,-5.16 12.59,-22.78 14.63,-25.06 2.56,-6.86 7.53,-7.71 8.36,-10.34l-10.52 0.27c1.06,3.82 3.48,3.65 0.67,9.6l-5.62 7.68c-0.18,3.33 -7.57,15.96 -10.17,18.2l-14.39 -24.7c-1.31,-3.45 -2.45,-6.04 -2.34,-11.19l-14.6 0.05c0.14,3.16 0.94,2.83 4.5,4.92z"/>
   <path class="fil2" d="M178.16 12.05c0.27,2.96 -1.06,1.62 2.7,3.3l1.42 -1.93c0.8,-2.61 0.43,-0.39 0.43,-3.25 -2.03,-1.28 0.36,-0.78 -3.14,-0.56 -0.15,0.1 -0.43,0.06 -0.46,0.29 -0.03,0.23 -0.36,0.29 -0.4,0.36 -0.75,1.46 -0.32,0.22 -0.55,1.79z"/>
   <path class="fil3" d="M141.27 306.49l0.46 -4.36c-3.05,1.24 -3.47,1.32 -4.68,4.01l4.22 0.35z"/>
  </g>
 </g>
</svg>
