<?xml version="1.0" encoding="UTF-8"?>
<!DOCTYPE svg PUBLIC "-//W3C//DTD SVG 1.1//EN" "http://www.w3.org/Graphics/SVG/1.1/DTD/svg11.dtd">
<!-- Creator: CorelDRAW 2021 (64-Bit) -->
<svg xmlns="http://www.w3.org/2000/svg" xml:space="preserve" width="58.34mm" height="29.995mm" version="1.1" style="shape-rendering:geometricPrecision; text-rendering:geometricPrecision; image-rendering:optimizeQuality; fill-rule:evenodd; clip-rule:evenodd"
viewBox="0 0 5834 2999.5"
 xmlns:xlink="http://www.w3.org/1999/xlink"
 xmlns:xodm="http://www.corel.com/coreldraw/odm/2003">
 <defs>
  <style type="text/css">
   <![CDATA[
    .fil3 {fill:#050505}
    .fil1 {fill:#1DBF00}
    .fil4 {fill:#422F23}
    .fil0 {fill:#F6C26E}
    .fil2 {fill:white}
   ]]>
  </style>
 </defs>
 <g id="Слой_x0020_1">
  <metadata id="CorelCorpID_0Corel-Layer"/>
  <g id="_2957008699296">
   <path class="fil0" d="M1045.81 2209.89c85.22,6.52 133.1,42.92 147.52,110.43 7.05,32.96 6.41,79.85 -4.06,109.55 -14.02,39.79 -38.22,51.23 -70.57,67.03 -177.96,147.68 -364.81,-257.06 -72.89,-287.01zm286.94 796.91l-32.48 0c-59.13,-0.58 -83.86,-7.81 -89.37,-76.06 -6.41,-79.19 49.42,-126.01 -16.29,-145.11 -7.02,-2.03 -309.05,12.6 -373.76,9.16l-46.16 0c32.01,88.41 38.93,81.94 13.53,182.03 -8.52,14.79 -19.04,24.42 -30.64,29.98l-60.18 0c-29.97,-10.76 -58.49,-34.16 -74.76,-56.71 -39.81,-55.15 -56.6,-107.58 -56.83,-198.24l44.99 -104.98c48.09,-32.08 52.43,-58.16 135.07,-59.98 -5.46,-65.58 -40.3,-104 -54.67,-171.38 -29.93,-140.56 87.4,-345.22 249.64,-410.3 184.05,-27.97 325.81,49.99 392.94,158.78 129.2,209.45 -0.28,291.6 -15.09,449.96l42.07 16.78c46.6,26.76 60.7,19.18 88.36,61.13 18.7,76.93 15.37,111.2 -11.2,181.86 -36.7,97.6 -44.51,84.04 -101.18,133.08l-3.99 0z"/>
   <path class="fil0" d="M5505.43 2316.93c-41.37,56.81 -54.93,49.11 -127.07,42.07 -34.47,-36.45 -76.77,-68.16 -51.89,-139.76 15.01,-43.15 68.66,-80.82 121.55,-52.29 46.64,19.29 51.41,4.57 71.78,57.57 14.03,36.47 5.21,60.26 -14.37,92.41zm-265.54 599.89c67.21,-61.31 70.57,-59.78 122.31,-153.01 36.53,-65.81 53.73,-119.02 124.32,-146.83l-16.57 74.88c0.36,133.42 12.28,230.49 139.16,239.96 88.37,-54.48 112.48,-56.4 135.74,-189.3 14.42,-82.39 23.13,-206.74 25.19,-290.29 6.62,-268.66 -53.12,-321.27 -200.96,-450.24l-44.9 -23.99c-70.79,-22.67 -130.98,-23.95 -197.79,0.07 -76.12,27.37 -141.52,85.79 -190.07,140.1 -135.94,152.07 -103.89,319.99 63.79,408.72 -44.8,84.65 -106.69,134.31 -136.72,239.91 -39.64,139.46 117.18,181.64 176.5,150.02z"/>
   <path class="fil0" d="M4030.3 2484.56c134.36,-6.47 154.22,130.08 91.81,177.31 -20.74,24.48 -38.79,47.44 -104.7,30.32 -77.18,-20.03 -133.35,-154.67 12.89,-207.63zm53.41 -167.63c-81.54,73.96 -216.41,-135.15 -23.4,-171.25 48.67,12.63 74.82,24.57 84.81,71.97 6.29,29.85 2.29,37.5 -6.61,55.11 -34.56,68.37 -7.77,30.02 -54.8,44.17zm251.35 419.92c19.72,-278.7 -49.95,-272.08 -136.94,-341.09 183.32,-136.41 135.17,-235.88 60,-363.78 -217.14,-165.91 -708.19,-38.34 -629.35,506.51 35.82,247.48 251.59,453.7 539.02,365.84 99.09,-30.27 130.43,-72.16 167.27,-167.48z"/>
   <path class="fil0" d="M3257.16 2241.93c62.42,21.38 86.01,91.23 85.08,180.15 -1.3,122.14 -29.78,120.93 -136.79,142.65 -149.18,-47.95 -133.2,-250.93 -46.76,-335.76 31.26,-3.85 30,-7.23 61.59,-2.85 26.48,3.66 25.88,9.28 36.88,15.81zm-411.75 60l0 15c0.53,204.33 -9.94,302.75 69.72,440.29 28.96,50.01 80.47,102.12 125.16,129.81 86.97,53.88 115.32,37.19 214.12,29.79 35.22,-24.23 65.72,-27.54 105.77,-55.27 221.99,-153.63 261.4,-554.54 79.32,-795.67l-13.89 -18.9c-25.19,-48.68 -100.24,-67.7 -168.93,-82.35 -113.44,-24.2 -276.62,47.74 -339.91,153.59 -20.47,34.24 -22.53,41.75 -35.97,84.02l-35.39 99.69z"/>
   <path class="fil0" d="M2605.46 787.19l0 75 45.08 59.98c52.43,0 109.79,5.15 159.19,-6.02 205.9,-46.57 97.62,-70.11 80.61,245.91 -20.42,379.32 237.74,327.93 310.13,285.01 3.05,-2.6 7.97,-10.25 9.43,-7.45l41.61 -36.62c9.49,-11.3 25.04,-38.9 32,-57.88 67.23,-183.52 -46.58,-366.94 -46.05,-481.72l57.98 -3.03c50.9,14.8 39.32,13.41 104.01,18.81 72.63,6.04 36.88,3.56 108.69,-2l39.02 -43.33c9.91,-142.56 -45.59,-146.99 -121.71,-211.62l-220.74 -44.25c-129.72,-10.17 -370.2,-8.03 -479.39,59.04 -67.08,41.2 -83.53,82.03 -119.86,150.17z"/>
   <path class="fil0" d="M3895.32 822.78c59.54,-8.61 92.52,-4.22 120.93,23.31 37.11,35.94 27.32,55.05 31.52,121.07 -30.05,90.75 -137.3,128.18 -205.98,53.46 -67.95,-73.92 -27.65,-169.32 53.53,-197.84zm-300.05 -20.59l0 15.01 -14.88 29.99c-10.87,130.55 -42.17,137.77 -15.6,285.47 77.85,432.9 507.76,365.32 580.7,224.43 84.5,-144.9 126.28,-256.21 90.24,-459.44 -14.87,-83.82 -46.27,-154.83 -88.75,-211.69 -59.66,-79.85 -80.53,-63.22 -171.25,-108.73 -193.76,0 -261.37,65.97 -353.71,191.61l-26.75 33.35z"/>
   <path class="fil0" d="M1885.68 607.15l-15 0c-18.47,79.52 -83.55,212.62 55.76,364.24 69.35,75.5 222.31,130.31 349.17,100.76 0,73.88 -0.25,63.54 -17,119.97l-6.11 34.28c-160.88,-21.12 -158.61,-133.01 -336.83,-105.8 -87.52,50.55 -41.11,196.39 18.51,247.99 53.39,46.21 182.12,96.71 281.44,91.43 308.83,-11.71 371.06,-402.38 344.21,-626.88 -13.55,-113.3 -44.48,-149.31 -94.04,-225.92 -52.19,-30.66 -117.94,-15.71 -148.34,26.8 -21.34,29.85 -38.72,124.88 -39.61,168.17l-28.35 74.3c-162.54,0.69 -96.37,-152.64 -203.53,-269.27 -27.09,-21.43 -95.66,-15 -130.29,-15.07l-15 0 -14.99 15z"/>
   <path class="fil0" d="M1825.69 2548.17c-183.98,-22.46 -147.34,-254.55 -49.95,-334.21 54.93,-0.79 29.26,-8.78 62.42,12.99 41.7,10.27 48.6,21.15 66.23,56.5 13.36,26.82 25.49,74.24 24.39,107.24 -2.99,90.89 -27.07,124.53 -103.09,157.48zm134.25 308.65c47.03,-76.93 77.25,-106.54 109.47,-221.22 43.93,-156.29 72.85,-384.95 -22.16,-525.76 -57.38,-85 -97.9,-82.33 -173.68,-137.86l-35.5 -12.22c-54.03,-10.06 -123.64,-3.9 -172.28,17.3 -172.59,75.22 -362.44,542.89 -54.15,853.87 47.82,48.23 75.88,75.19 155.81,84.95 94.41,11.53 157.7,-9.37 192.49,-59.06z"/>
   <path class="fil0" d="M2485.57 2149.91c55.99,7.87 63.97,18.53 73.42,64.85 12.24,59.87 -2.42,92.09 -19.43,132.16l-38.99 28.03c-114.34,-20.39 -90.19,-131.39 -63.8,-213.28l48.8 -11.76zm-315.05 287l0 15c3.61,144.58 12.56,417.47 168.44,462.27 65.78,18.9 121.37,16.49 172.86,-12.36 66.34,-90.43 72.72,-183.75 -10.64,-281.33 20.3,-32.82 -7.57,-6.96 29.38,-18.74l106.27 -14.86c44.87,-49.9 87.43,-59.38 116.16,-137 123.22,-333.03 -173.32,-468.82 -173.89,-470.63 -1.54,-5.07 -6.4,-4.71 -9.42,-7.28 -41.58,-25.74 -229.5,-54.13 -318.53,95.53 -90.06,151.41 -55.51,246.47 -66.28,323.64l-14.35 45.76z"/>
   <path class="fil0" d="M4675.2 2504.34c116.66,-22.49 136.64,36.81 109.77,127.54 -16.33,24.02 -14.05,38.9 -65.89,40.95 -27.58,1.1 -56.09,-12.09 -70.89,-28.85 -54.01,-61.04 -13.52,-111.84 27.01,-139.64zm191.75 382.49c103.96,-88.04 208.26,-172.95 137.01,-388.81 -52.89,-160.33 -133.73,-218.6 -328.16,-195.42 50.29,-156.04 100.72,-187.85 -12.31,-330.62 -93.35,-51.97 -199.7,14.47 -240.73,167.5 -33.9,126.44 -36.93,257.43 -33.1,418 7.15,301.06 254.43,451.29 477.29,329.35z"/>
   <path class="fil0" d="M4765.18 738.98c37.29,30.16 58.57,35.16 61.84,94.13 3.65,65.61 -15.64,83.46 -69.95,89.06 -19.31,11.09 32.86,19.86 -47.45,11.57 -47.05,-4.86 -125.54,-65.08 -25.48,-192.59l81.04 -2.17zm-465.01 288.18l0 15c0.26,101.96 10.63,211.46 35.57,294.45 10.98,36.49 34.2,86.16 60.03,104.97 37.55,27.37 82.63,20.5 140.68,20.5 55.21,-47.47 99.78,-60.12 114.52,-158.1 14.22,-94.64 -21.28,-156.71 -37.36,-240.05l27.79 23.22c23.6,0 18.8,-6.53 18.8,14.99 79.35,6.61 81.6,46.66 207.21,12.22 24.18,-6.62 10.04,-0.53 32.7,-11.07 28.46,-13.27 11.88,-4.64 24.16,-16.14 164.36,-163.88 170.35,-206.61 35.16,-434.94 -71.08,-101.46 -517.64,-163.19 -631.49,252.63l-27.77 122.32z"/>
   <path class="fil0" d="M115.97 2035.66c-65.09,33.23 -89.98,86.09 -89.98,191.29 184.43,123.5 105.93,24.9 224.96,14.98 22.44,96.33 30.98,54.05 -39.2,110.89 -38.67,31.32 -62.53,83.4 -9.62,116.96 54.68,34.7 103.31,-20.31 133.65,49.3 17.98,41.26 -4.78,146.08 -94.61,108.69 -54.38,-22.64 -102.26,-91.97 -175.02,-62.51 -35.8,14.49 -61.42,53.28 -70.15,100.44l0 72.82c14.93,83.23 82.39,168.24 230.68,188.13 52.01,6.98 142.16,-20.07 183.96,-45.47l45.49 -39.34c273.53,-387.45 7.21,-420.24 -59.56,-494.92 50.29,-96.87 112.63,-168.03 4.57,-270.11 -77.69,-73.37 -180.55,-79.55 -285.17,-41.15z"/>
   <path class="fil1" d="M1465.75 461c138.64,-33.62 328.51,-178.1 490.61,-192.46 -63.79,35.67 -94.84,74.41 -163.51,96.71l-202.79 196.98 52.63 32.72c98.15,39.75 145.16,31.72 227.99,12.2l15 0 14.99 -15 15 0c89.67,-77.57 133.08,-129.65 182.33,-252.51 25.4,-63.4 100.88,-253.83 102.61,-332.31 -100.06,23.32 -258.97,92.2 -361.6,103.31 -53.14,5.76 -105.47,-1.93 -159.76,5.23 -225.64,29.68 -308.84,138.25 -213.5,345.13z"/>
   <path class="fil2" d="M1792.85 365.25c8.3,-18.84 2.9,-22.24 2.85,-23.31 -134.61,42.02 -263.51,117.59 -381.27,183.96 -86.39,48.68 -92.94,32.24 -79.53,118.31 -132.41,-31.16 -135.85,51.14 -278.02,152.62 23.65,59.13 23.88,26.82 45.47,84.53 -143.92,2.21 -148.35,22 -253.85,188.13 -7.26,11.43 -22.53,34.56 -27.81,48.29l-3.29 66.64 161.44 -12.33c-6.33,90.67 -119.36,117.44 -162.63,133.81l-43.81 21.2c28.26,163.39 219.05,210.74 299.58,71.65 143.09,-247.17 -19.05,-294.29 -54.6,-344.83 59.91,-36.33 89.19,-29.53 164.97,-13.97 52.29,-112.84 103.06,-118.26 69.31,-260.69 141.75,10.5 65.1,14.66 161.83,-74.33 48.91,-44.99 70.75,-66.57 85.72,-159 136.55,36.39 129.52,-126.31 293.64,-180.68z"/>
   <path class="fil3" d="M1437.96 1073.64c-40.29,-180.33 -121.34,-165.13 -32.79,-241.46 -49.6,-32.8 -27.44,0.45 -39.66,-43.11l34.88 -53.67c62.1,30.38 108.77,101.94 150.28,146.03 -6.15,34.96 -0.38,5.4 -17.29,34.1 -2.61,4.41 -8.26,1.43 -22.04,34.13 98.77,0.87 114.86,31.64 152.23,104.56 29.96,58.46 57.29,110.89 68.34,184.37l-133.45 -2.79c34.63,67.23 62.99,74.77 117.88,109.23l16.97 12.06c-59.21,119.57 -187.21,124.01 -237.82,0.23 -68.55,-167.57 7.56,-184.13 75.02,-272.03l-132.55 -11.65zm-362.25 -541.29l-35.26 -62.6c58.59,22.39 183.05,97.37 212.65,136.53l-57.31 39.61c-81.92,-55 -42.69,-88.2 -120.08,-113.54zm717.14 -167.1c-164.12,54.37 -157.09,217.07 -293.64,180.68 -14.97,92.43 -36.81,114.01 -85.72,159 -96.73,88.99 -20.08,84.83 -161.83,74.33 33.75,142.43 -17.02,147.85 -69.31,260.69 -75.78,-15.56 -105.06,-22.36 -164.97,13.97 35.55,50.54 197.69,97.66 54.6,344.83 -80.53,139.09 -271.32,91.74 -299.58,-71.65l43.81 -21.2c43.27,-16.37 156.3,-43.14 162.63,-133.81l-161.44 12.33 3.29 -66.64c5.28,-13.73 20.55,-36.86 27.81,-48.29 105.5,-166.13 109.93,-185.92 253.85,-188.13 -21.59,-57.71 -21.82,-25.4 -45.47,-84.53 142.17,-101.48 145.61,-183.78 278.02,-152.62 -13.41,-86.07 -6.86,-69.63 79.53,-118.31 117.76,-66.37 246.66,-141.94 381.27,-183.96 0.05,1.07 5.45,4.47 -2.85,23.31zm-327.1 95.75c-21.77,24.72 -156.57,105.76 -194.98,117.1 -109.25,-42.85 -222.39,-164.38 -361.41,-200.2l166.35 154.45 82.85 119.86c8.59,41.56 -23.44,49.04 -54.38,72.91 -118.01,91.02 -464.54,498.82 -322.99,701.62 44.58,63.87 269.14,175.66 348.92,-105.33 27.63,-97.31 71.17,-367.57 185.66,-444.23 155.5,113.93 79.14,480.02 222.6,573.33 152.62,99.25 441.02,-129.54 -39.13,-666.83 -28.27,-31.63 -40.01,-36.41 -63.48,-71.47 41.94,-48.27 98.98,-118.77 154.3,-149.98l202.79 -196.98c68.67,-22.3 99.72,-61.04 163.51,-96.71 -162.1,14.36 -351.97,158.84 -490.61,192.46z"/>
   <path class="fil1" d="M1158.56 652.21l-82.85 -119.86 -166.35 -154.45c139.02,35.82 252.16,157.35 361.41,200.2 29.36,-57.36 74.84,-124.3 25.12,-205.74 -37.2,-60.94 -101.67,-78.49 -175.98,-94.18 -281.67,-59.5 -163.64,-45 -346.04,-118.88 -42.3,-17.13 21.69,-10.36 -57.99,-16.99 2,89.97 65.33,329.93 99.71,395.21 68.16,129.4 185.23,173.04 342.97,114.69z"/>
   <path class="fil2" d="M1365.51 789.07c12.22,43.56 -9.94,10.31 39.66,43.11 -88.55,76.33 -7.5,61.13 32.79,241.46l132.55 11.65c-67.46,87.9 -143.57,104.46 -75.02,272.03 50.61,123.78 178.61,119.34 237.82,-0.23l-16.97 -12.06c-54.89,-34.46 -83.25,-42 -117.88,-109.23l133.45 2.79c-11.05,-73.48 -38.38,-125.91 -68.34,-184.37 -37.37,-72.92 -53.46,-103.69 -152.23,-104.56 13.78,-32.7 19.43,-29.72 22.04,-34.13 16.91,-28.7 11.14,0.86 17.29,-34.1 -41.51,-44.09 -88.18,-115.65 -150.28,-146.03l-34.88 53.67z"/>
   <path class="fil4" d="M5609.11 2931.82c201.17,0 219.58,-178.19 220.89,-375.72l0 -93.22 0 -99.47c-1.19,-82.06 -8.93,-136.62 -50.66,-205.79 -42.67,-70.75 -111.6,-148.6 -210.26,-155.63 147.84,128.97 207.58,181.58 200.96,450.24 -2.06,83.55 -10.77,207.9 -25.19,290.29 -23.26,132.9 -47.37,134.82 -135.74,189.3z"/>
   <path class="fil4" d="M4866.95 2886.83c147.09,-31.09 245.23,-187.71 202.16,-363.71 -41.55,-169.75 -113.24,-281.19 -318.93,-281.19 25.08,-107.64 60.26,-256.47 -86.69,-269.95 113.03,142.77 62.6,174.58 12.31,330.62 194.43,-23.18 275.27,35.09 328.16,195.42 71.25,215.86 -33.05,300.77 -137.01,388.81z"/>
   <path class="fil4" d="M115.97 2035.66c104.62,-38.4 207.48,-32.22 285.17,41.15 108.06,102.08 45.72,173.24 -4.57,270.11 66.77,74.68 333.09,107.47 59.56,494.92l109.68 -89.99 44.99 -104.98c8.86,-103.03 32.84,-95.39 -14.2,-195.63 -38.64,-82.34 -60.62,-79.61 -135.67,-119.32 171.13,-323.41 -250.99,-458.96 -344.96,-296.26z"/>
   <path class="fil4" d="M1959.94 2856.82c45.4,-11.83 57.32,-27.77 85.08,-65.62 109.15,-148.87 105.91,-308.2 125.5,-339.29l0 -15c0.37,-139.39 -2.22,-229.15 -56.22,-318.62 -45.19,-74.85 -128.87,-143.6 -240.73,-146.31 75.78,55.53 116.3,52.86 173.68,137.86 95.01,140.81 66.09,369.47 22.16,525.76 -32.22,114.68 -62.44,144.29 -109.47,221.22z"/>
   <path class="fil4" d="M940.84 2005.21c184.05,-27.97 325.81,49.99 392.94,158.78 129.2,209.45 -0.28,291.6 -15.09,449.96l42.07 16.78c3.83,-44.37 244.55,-505.32 -162.56,-646.19 -75.21,-26.04 -149.84,-36.95 -228.4,2.02 -25.72,12.75 -11.67,4.2 -28.96,18.65z"/>
   <path class="fil4" d="M3254.41 2916.82c299.96,-7.46 395.92,-415.17 331.85,-665.75 -21.47,-83.98 -76.54,-184.69 -160.65,-204.09l13.89 18.9c182.08,241.13 142.67,642.04 -79.32,795.67 -40.05,27.73 -70.55,31.04 -105.77,55.27z"/>
   <path class="fil4" d="M2215.62 1460.02c5.74,4.15 10.93,32.01 98.82,12.31 249.6,-55.92 291.62,-376 291.02,-610.14l0 -75c-2,-3.15 -4.17,-12.22 -4.84,-10.11 -0.67,2.12 -3.72,-8.01 -4.64,-10.33l-35.14 -84.79c-38.11,-64.62 -57.01,-65.95 -95.05,-74.74 49.56,76.61 80.49,112.62 94.04,225.92 26.85,224.5 -35.38,615.17 -344.21,626.88z"/>
   <path class="fil4" d="M2636.83 2586.89c101.39,-8.77 162.59,-89.38 184.61,-174.06 6.75,-25.95 4.41,-29.42 9.28,-50.71l14.69 -45.19 0 -15c-1.76,-89.61 -27.87,-174.92 -71.73,-228.12 -22.55,-27.34 -50.68,-47.08 -83.75,-66.16 -39.2,-22.6 -68.14,-31.93 -120.25,-35.67 3.02,2.57 7.88,2.21 9.42,7.28 0.57,1.81 297.11,137.6 173.89,470.63 -28.73,77.62 -71.29,87.1 -116.16,137z"/>
   <path class="fil4" d="M4145.49 1357.09c35.09,-19.45 31.94,-14.49 59.56,-50.54l90.55 -254.01c0.78,-2.44 2.55,-7.19 4.57,-10.38l0 -15c-0.75,-37.89 -14.62,-129.37 -23.38,-171.51 -12.85,-61.89 -25.87,-98.16 -53.78,-141.17 -51.99,-80.17 -118.1,-137.25 -247.28,-137.25 90.72,45.51 111.59,28.88 171.25,108.73 42.48,56.86 73.88,127.87 88.75,211.69 36.04,203.23 -5.74,314.54 -90.24,459.44z"/>
   <path class="fil4" d="M3200.47 1447.07c109.28,-21.96 151.51,-114.23 155.95,-239.93 1.7,-48.34 -11.4,-127.73 -22.1,-173.89 -14.95,-64.58 -37.25,-96.34 -38.88,-172.88l-57.98 3.03c-0.53,114.78 113.28,298.2 46.05,481.72 -6.96,18.98 -22.51,46.58 -32,57.88l-41.61 36.62c-1.46,-2.8 -6.38,4.85 -9.43,7.45z"/>
   <path class="fil4" d="M4335.06 2736.85c21.63,-44.67 42.6,-130.6 32.53,-186.36 -20.22,-111.74 -51.68,-119.43 -97.32,-143.57 44.48,-66.45 91.45,-75.73 91.45,-194.97 0,-90.52 -36.22,-160.14 -103.6,-179.97 75.17,127.9 123.32,227.37 -60,363.78 86.99,69.01 156.66,62.39 136.94,341.09z"/>
   <path class="fil4" d="M1118.7 2496.9c-78.1,-6.91 -98.77,-42.12 -147.87,-75 0,-136.83 4.06,-132.28 60.01,-195.73l14.97 -16.28c-291.92,29.95 -105.07,434.69 72.89,287.01z"/>
   <path class="fil4" d="M3205.45 2564.73c-26.09,-52.19 -54.93,-97 -44.39,-186.65 10.24,-87.1 28.54,-107.89 96.1,-136.15 -11,-6.53 -10.4,-12.15 -36.88,-15.81 -31.59,-4.38 -30.33,-1 -61.59,2.85 -86.44,84.83 -102.42,287.81 46.76,335.76z"/>
   <path class="fil4" d="M4924.27 1087.15c85.06,-16.68 166.19,-99.39 171.95,-195.08 3.47,-57.51 -15.86,-106.21 -35.52,-145.44 -24.07,-48.02 -47.93,-80.49 -101.27,-94.42 135.19,228.33 129.2,271.06 -35.16,434.94z"/>
   <path class="fil4" d="M5239.89 2916.82c165.76,0 148.99,-131.15 230.06,-224.96l16.57 -74.88c-70.59,27.81 -87.79,81.02 -124.32,146.83 -51.74,93.23 -55.1,91.7 -122.31,153.01z"/>
   <path class="fil4" d="M4047.77 967.16c-43.05,20.76 -69.76,32.72 -122.44,44.99 -81.68,-54.68 -100.51,-109.48 -30.01,-189.37 -81.18,28.52 -121.48,123.92 -53.53,197.84 68.68,74.72 175.93,37.29 205.98,-53.46z"/>
   <path class="fil4" d="M1825.69 2548.17c-45.69,-53.61 -76.42,-68.11 -76.47,-171.26 -0.04,-94.84 20.05,-132.51 88.94,-149.96 -33.16,-21.77 -7.49,-13.78 -62.42,-12.99 -97.39,79.66 -134.03,311.75 49.95,334.21z"/>
   <path class="fil4" d="M4536.45 1462.08c95.65,-7.19 135.1,-52.01 153.59,-135.9 12.42,-56.31 9.87,-55.48 2.57,-105.31 -11.25,-76.66 -18.76,-60.1 -32.41,-118.73l-18.8 -14.99 -27.79 -23.22c16.08,83.34 51.58,145.41 37.36,240.05 -14.74,97.98 -59.31,110.63 -114.52,158.1z"/>
   <path class="fil4" d="M5505.43 2316.93l-95.37 0c-18.56,-35.09 -25.75,-39.04 -29.98,-89.98 21.84,-32.61 27.19,-45.84 67.94,-60 -52.89,-28.53 -106.54,9.14 -121.55,52.29 -24.88,71.6 17.42,103.31 51.89,139.76 72.14,7.04 85.7,14.74 127.07,-42.07z"/>
   <path class="fil4" d="M2277.84 802.19c-21.36,15.54 -17.23,-24.72 -17.23,29.99 -86.67,-1.93 -86.78,-24.8 -110.78,-99.17 -23.28,-72.15 -30.52,-108.8 -103.87,-125.79 107.16,116.63 40.99,269.96 203.53,269.27l28.35 -74.3z"/>
   <path class="fil4" d="M4122.11 2661.87c-74.25,0 -74.18,-4.8 -121.8,-29.99l0 -104.99 29.99 -42.33c-146.24,52.96 -90.07,187.6 -12.89,207.63 65.91,17.12 83.96,-5.84 104.7,-30.32z"/>
   <path class="fil4" d="M1915.67 1120.6c178.22,-27.21 175.95,84.68 336.83,105.8l6.11 -34.28c-88.96,-2.09 -106.5,-43.08 -172.78,-80.17 -70.38,-39.36 -120.45,-69.74 -170.16,8.65z"/>
   <path class="fil4" d="M3508.14 877.18c60,-5.41 26.91,0.37 72.25,-29.99l14.88 -29.99 0 -15.01c-1.08,-55.88 -9.24,-94.62 -41.36,-123.51 -0.39,-0.36 -52.27,-35.55 -53.44,-36.21 -30.8,-17.34 -32.82,-17.16 -75.02,-20.24 76.12,64.63 131.62,69.06 121.71,211.62l-39.02 43.33z"/>
   <path class="fil2" d="M1075.71 532.35c77.39,25.34 38.16,58.54 120.08,113.54l57.31 -39.61c-29.6,-39.16 -154.06,-114.14 -212.65,-136.53l35.26 62.6z"/>
   <path class="fil4" d="M2511.82 2901.82c161.76,-38.46 73.67,-217.58 18.74,-300.07 -36.95,11.78 -9.08,-14.08 -29.38,18.74 83.36,97.58 76.98,190.9 10.64,281.33z"/>
   <path class="fil4" d="M4757.07 922.17c-66.87,-14.19 -66.87,-4.18 -66.87,-134.98 69.92,-36.98 35.36,-7.56 74.98,-48.21l-81.04 2.17c-100.06,127.51 -21.57,187.73 25.48,192.59 80.31,8.29 28.14,-0.48 47.45,-11.57z"/>
   <path class="fil4" d="M2539.56 2346.92c-37.66,-3.77 -35.6,-7.22 -68.99,-15 -7.37,-88.69 -25.03,-92.04 15,-182.01l-48.8 11.76c-26.39,81.89 -50.54,192.89 63.8,213.28l38.99 -28.03z"/>
   <path class="fil4" d="M1336.74 3006.8c147.02,-26.58 175.28,-208.55 145.52,-270.98l-33.14 -43.96c18.7,76.93 15.37,111.2 -11.2,181.86 -36.7,97.6 -44.51,84.04 -101.18,133.08z"/>
   <path class="fil4" d="M4784.97 2631.88l-64.78 0 -63.32 -56.67c6.83,-45.45 8.64,-39.16 18.33,-70.87 -40.53,27.8 -81.02,78.6 -27.01,139.64 14.8,16.76 43.31,29.95 70.89,28.85 51.84,-2.05 49.56,-16.93 65.89,-40.95z"/>
   <path class="fil4" d="M4083.71 2316.93c-72.03,-7.35 -99.15,-77.58 -31.46,-161.9 1.75,-2.18 5.51,-6.13 8.06,-9.35 -193.01,36.1 -58.14,245.21 23.4,171.25z"/>
   <path class="fil4" d="M788.22 2976.82c70.47,-46.17 50.57,-100.03 32.63,-182.03l-46.16 0c32.01,88.41 38.93,81.94 13.53,182.03z"/>
  </g>
 </g>
</svg>
