<?xml version="1.0" encoding="UTF-8"?>
<!DOCTYPE svg PUBLIC "-//W3C//DTD SVG 1.1//EN" "http://www.w3.org/Graphics/SVG/1.1/DTD/svg11.dtd">
<!-- Creator: CorelDRAW 2021 (64-Bit) -->
<svg xmlns="http://www.w3.org/2000/svg" xml:space="preserve" width="45mm" height="40.053mm" version="1.1" style="shape-rendering:geometricPrecision; text-rendering:geometricPrecision; image-rendering:optimizeQuality; fill-rule:evenodd; clip-rule:evenodd"
viewBox="0 0 4500 4005.3"
 xmlns:xlink="http://www.w3.org/1999/xlink"
 xmlns:xodm="http://www.corel.com/coreldraw/odm/2003">
 <defs>
  <style type="text/css">
   <![CDATA[
    .fil0 {fill:#2B2A29;fill-rule:nonzero}
   ]]>
  </style>
 </defs>
 <g id="Слой_x0020_1">
  <metadata id="CorelCorpID_0Corel-Layer"/>
  <g id="_2956929903472">
   <path class="fil0" d="M1566.79 440.27c-69.14,48.28 -126.92,115.78 -126.92,207.85 0,52.26 59.99,79.63 119.29,79.63 230.87,0 576.08,-269.87 580.19,-512.37 0.79,-60.47 -16.78,-108.74 -52.08,-143.38 -50.78,-49.68 -138.16,-71.66 -268.55,-67.59 -274.27,9.39 -950.91,270.57 -950.91,629.79 0,163.48 200.14,213.63 412.04,266.67 37.06,9.31 74.48,18.69 111.12,28.78 235.26,64.7 344.83,138.16 344.83,230.91 0,247.99 -882.08,758.56 -1427.93,758.56 -76.26,0 -146.81,-7.19 -146.81,-59.45 0,-135.41 394.22,-537.12 1023.74,-716.16 0,0 8.45,-4.34 11.94,-22 3.91,-19.95 -27.74,-11.27 -29.37,-10.84 -436.21,110.83 -757.71,269 -1020.9,526.13 -98.61,96.3 -148.6,182.65 -148.6,256.66 0,158.25 176.61,214.65 341.86,214.65 569.73,0 1551.35,-434.86 1551.35,-880.03 0,-245.46 -272.54,-320.25 -471.53,-374.85l-16.06 -4.46c-185.43,-51.33 -360.53,-99.75 -360.53,-196.67 0,-188.74 569.52,-512.76 819.71,-540.13 25.27,-1.96 181.79,-21.84 171.28,54.67 -23.14,168.62 -402.3,385.97 -474.79,385.97 -1.01,0 -10.59,1.55 -20.27,-1.16 -43.74,-12.33 33.43,-70.75 41.7,-79.57 9.42,-10.03 -5.68,-37.29 -13.8,-31.61z"/>
   <path class="fil0" d="M2539.88 659.82c16.19,-13.46 43.72,-58.15 113.46,8.29 29.58,28.17 71.81,99.7 59.78,111.72 -0.46,0.47 -2.77,-1.4 -5.59,1.35 -36.01,35.14 -124.47,137.72 -210.83,248.32 -35.12,43.2 -151.15,210.59 -151.15,210.59 234.77,-256.43 739.48,-623.45 874.42,-577.61 35.11,13.53 129.53,116.08 129.53,156.6 0,242.82 -528.95,890.51 -898.72,890.51 -105.23,0 -222.59,-69.63 -224.81,-158.63 -1.01,-41.35 33.65,-35.51 33.31,-31.41 -2.36,26.81 21.52,101.03 78.22,101.03 272.54,0 843.72,-798.74 790.7,-850.16 -40.51,0 -568.27,278.04 -944.57,709.83 -261.3,302.84 -642.29,949.95 -709.73,1349.37 -10.14,50.58 -16.88,99.8 12.85,115.35 21.75,11.39 -0.99,28.55 -18.44,29.6 -102.9,6.2 -188.32,-90.61 -169.87,-231.31 56.72,-453.39 596.49,-1298.06 1006.67,-1824.36 72.84,-91.75 180.78,-215.9 234.77,-259.08z"/>
   <path class="fil0" d="M4056.96 1560.65c0,-21.59 10.8,-53.98 26.98,-91.75 80.96,-172.73 296.92,-437.98 337.4,-439.94 10.79,-32.38 -81.07,-180.79 -135.02,-153.8 -67.43,37.78 -242.82,207.77 -291.46,250.95 -140.36,118.75 -518.16,391.36 -607.2,421.01 -8.13,2.73 -13.46,2.73 -18.94,0 -24.23,-13.46 178.21,-353.5 434.56,-572.15 175.44,-148.39 372.42,-261.72 528.95,-269.85 80.96,-5.33 125.56,25.88 124.5,106.84 -0.47,36.14 -16.24,57.59 -29.7,81.84 -7.51,10.06 5.68,42.56 19.49,28.44 26.9,-35.05 47.64,-82.13 47.64,-128.04 0,-126.8 -134.93,-169.97 -237.49,-169.97 -496.57,0 -1114.63,601.77 -1114.63,895.99 0,53.97 70.24,156.45 118.74,180.77 5.48,2.73 18.92,8.06 24.34,8.06 113.34,0 639.65,-453.39 720.53,-534.28 -51.24,67.43 -124.06,191.56 -156.44,291.46 -10.82,40.44 -21.61,72.83 -21.61,99.82 0,48.59 51.24,105.29 89.02,126.88 18.94,10.79 32.4,16.12 45.85,16.12 78.86,0 223.77,-107.2 378.72,-246.5 10.46,-8.51 -0.67,-46.55 -22.52,-33 -99.64,78.45 -197.9,121.55 -261.71,131.1z"/>
   <path class="fil0" d="M386.74 3615.77c-22.75,14.9 -62.01,33.02 -128.01,33.02l-101.61 0 0 -240.32 147.68 0c44.85,0 82.44,12.02 108.56,38.75 23.12,23.71 35.54,53.2 29.14,90.96 -7.62,44.9 -37.11,65.4 -55.76,77.59zm29.97 92.54c15.41,-5.04 36.51,-9.82 67.41,-26.65 60.25,-32.82 96.85,-93.97 96.85,-169.52 0,-55.87 -19.88,-102.68 -59.62,-140.44 -39.73,-37.78 -87.9,-56.69 -144.47,-56.69l-379.01 0 30.53 52.45 0 641.81 128.72 0 0 -269.88 129.18 0 202.16 269.88 159.65 0 -231.4 -300.96z"/>
   <path class="fil0" d="M3417.49 3615.77c-22.75,14.9 -62.01,33.02 -128.01,33.02l-101.61 0 0 -240.32 147.66 0c44.87,0 82.46,12.02 108.57,38.75 23.13,23.71 35.55,53.2 29.14,90.96 -7.62,44.9 -37.1,65.4 -55.75,77.59zm29.97 92.54c15.41,-5.04 36.51,-9.82 67.41,-26.65 60.25,-32.82 96.85,-93.97 96.85,-169.52 0,-55.87 -19.9,-102.68 -59.62,-140.44 -39.73,-37.78 -87.91,-56.69 -144.49,-56.69l-379 0 30.52 52.45 0 641.81 128.74 0 0 -269.88 129.17 0 202.17 269.88 159.65 0 -231.4 -300.96z"/>
   <polygon class="fil0" points="940.31,4009.26 811.58,4009.26 811.58,3367.46 781.06,3315.02 940.31,3315.02 "/>
   <polygon class="fil0" points="1785.66,3315.02 1472.03,4009.25 1378.59,4009.25 1064.97,3315.02 1205.67,3315.02 1440.83,3825.1 1655,3367.45 1634.98,3315.02 "/>
   <polygon class="fil0" points="2064.45,4009.26 1935.72,4009.26 1935.72,3367.46 1905.2,3315.02 2064.45,3315.02 "/>
   <polygon class="fil0" points="2847.21,3915.8 2810.96,4009.26 2337.01,4009.26 2337.01,3367.46 2306.5,3315.01 2847.21,3315.01 2810.96,3408.47 2465.74,3408.47 2465.74,3603.96 2847.21,3603.96 2810.96,3697.43 2465.74,3697.43 2465.74,3915.8 "/>
   <path class="fil0" d="M3978.33 3725.08l120.29 -248.39 120.29 248.39 -240.58 0zm186.98 -410.07l-139.73 0 22.77 51.51 -305.38 642.74 151.63 0 -19.98 -52.35 61.27 -138.38 323.32 0 94.2 190.73 140.75 0 -328.85 -694.25z"/>
   <path class="fil0" d="M2937.45 2113.56c-231.23,16.11 -490.61,44.68 -798.47,97.84 -1095.86,187.15 -1965.26,520.08 -1951.75,714.5 1.85,26.31 35.13,35.4 -0.74,46.18 -57.06,17.12 -169.83,-71.75 -178.11,-152.94 -29.27,-306.92 1238.29,-606.35 1957.19,-709.26 209.12,-30.38 439.96,-51.75 676.43,-68.23 404.63,-28.17 816.02,-35.68 1126.54,-12.38 223.2,15.43 496.76,38.12 665.87,79.81 76.14,18.79 67.88,20.8 55.19,34.49 -58.02,30.1 -115.02,-26.73 -808.92,-44.12 -247.45,-6.21 -462.1,-5.45 -743.23,14.11z"/>
  </g>
 </g>
</svg>
