<?xml version="1.0" encoding="UTF-8"?>
<!DOCTYPE svg PUBLIC "-//W3C//DTD SVG 1.1//EN" "http://www.w3.org/Graphics/SVG/1.1/DTD/svg11.dtd">
<!-- Creator: CorelDRAW 2021 (64-Bit) -->
<svg xmlns="http://www.w3.org/2000/svg" xml:space="preserve" width="472px" height="472px" version="1.1" style="shape-rendering:geometricPrecision; text-rendering:geometricPrecision; image-rendering:optimizeQuality; fill-rule:evenodd; clip-rule:evenodd"
viewBox="0 0 472 472"
 xmlns:xlink="http://www.w3.org/1999/xlink"
 xmlns:xodm="http://www.corel.com/coreldraw/odm/2003">
 <defs>
  <style type="text/css">
   <![CDATA[
    .fil0 {fill:#134A5F}
    .fil21 {fill:#134B62}
    .fil3 {fill:#144B60}
    .fil6 {fill:#16495D}
    .fil9 {fill:#164A5A}
    .fil11 {fill:#19495E}
    .fil2 {fill:#1A495A}
    .fil1 {fill:#1B4454}
    .fil10 {fill:#1C4955}
    .fil17 {fill:#1D495A}
    .fil4 {fill:#23434C}
    .fil8 {fill:#234553}
    .fil5 {fill:#284448}
    .fil7 {fill:#2A444C}
    .fil22 {fill:#647678}
    .fil23 {fill:#6D7373}
    .fil13 {fill:#75878B}
    .fil18 {fill:#787E82}
    .fil26 {fill:#7B949B}
    .fil19 {fill:#84979B}
    .fil16 {fill:#8C9293}
    .fil24 {fill:#CFEBF3}
    .fil25 {fill:#DDF2F5}
    .fil20 {fill:#E4F3F4}
    .fil12 {fill:#ECF4F4}
    .fil14 {fill:#EEF9FA}
    .fil15 {fill:#F1F9F9}
   ]]>
  </style>
 </defs>
 <g id="Слой_x0020_1">
  <metadata id="CorelCorpID_0Corel-Layer"/>
  <g id="_1704997182496">
   <path class="fil0" d="M368.38 239.27c-0.35,-1.6 -7.79,-11.21 -9.56,-13.65 -1.98,-2.73 -3.27,-4.56 -5.05,-6.92 -1.17,-1.56 -3.81,-5.85 -5.1,-6.44 -0.05,0.08 -0.18,0.18 -0.22,0.21 -0.04,0.02 -0.19,0.16 -0.24,0.18 -2.64,0.99 -0.78,-0.07 -3.57,-3.15 -1.91,-2.12 -2.26,-1.81 -3.49,-4.86l-3.95 0 -1.04 1.98 -3.14 0.01c-0.59,-2.39 0.76,-2.81 -2.72,-3.08 -1.36,-0.11 -3.9,0.15 -5.52,0.38l-0.6 0.11c0,4.33 0.07,8.64 0.11,12.96 0,0.89 0.07,1.93 -0.16,2.73 -0.58,2.1 -0.27,-0.76 -0.81,1.98 -0.37,1.89 0.48,10.97 -0.12,16.7 -0.47,4.48 0.41,8.21 0.42,12.49 -2.95,0.72 0.71,-0.53 -2.27,0.53l0.12 0.31c0.03,1.47 1.06,2.74 -0.38,4.39 0.09,7.16 -1.52,17.73 -0.48,24.41 2.2,0.73 15.38,0.69 19.23,0.51l2.02 -0.29c0.17,-0.04 0.34,-0.12 0.47,-0.16 0.14,-0.04 0.32,-0.1 0.47,-0.17 2.13,-7.83 -1.68,-31.08 -0.2,-41.02 -1.08,-1.39 -1.68,1.96 -0.74,-2.06l3.17 -0.54 1.75 3.55c2.09,2.4 -0.61,-0.57 0.67,0.79l1.76 0.88c0.51,1.55 0.16,2 1.22,2.94 3.9,3.46 -0.46,0.58 3.03,3.62 5.43,4.75 0.76,4.74 6.83,6.35 -0.6,1.01 0.27,2.56 1.18,4.06l3.07 4.18c0.03,0.06 0.09,0.19 0.12,0.24l4.53 5.14c1.76,2.53 2,4.57 4.93,6.62 2.95,2.07 3.23,3.3 8.58,0.74 -0.63,1.38 -0.38,1.76 0.19,2.94 3.62,0.93 9.98,-0.13 11.24,-0.27l0.98 -45.96c0.2,-3.56 1.05,-8.64 -0.03,-11.87 -0.79,-2.76 -0.43,-6.06 -0.43,-9.02 0.01,-10.15 2,-8.95 -18.43,-7.82 -0.05,0.81 -0.01,2.3 -0.16,2.99 -0.29,1.42 -1.63,2.41 -0.92,4.56 0.7,2.11 0.16,-0.57 1.08,1.91 1.02,2.75 0.58,13.22 0.27,16.6 -0.46,5.08 0.79,10.45 0.16,12.26 -0.68,1.99 -1.33,1.28 -1.85,3.96 -3.23,-0.1 -4.2,-0.73 -5.52,-2.78 -0.2,-0.3 -2.41,-4.3 -2.83,-2.96 0.11,-0.44 -0.52,-0.1 0.54,-0.72 0.03,-0.02 0.18,-0.09 0.22,-0.1 1.59,-0.43 1.95,0.8 0.78,0.81l0.39 -1.18z"/>
   <path class="fil1" d="M185.54 384.15c50.36,-1.73 56.27,-21.07 109.29,-13.5 2.58,0.37 4.97,0.8 7.48,1.31l7.28 2.25 -12.8 6c-25.53,10.75 -53.02,14.76 -80.78,11.22 -7.14,-0.91 -25.73,-4.34 -30.47,-7.28zm6.15 -50.49c0.22,-1.87 0.04,-1.36 1.55,-2.85l1.31 3.14c0.85,0.63 1.18,1.41 1.86,2.38 0.26,0.38 0.8,1.08 1.06,1.54 0.46,0.8 0.38,0.55 0.55,1.32l1.69 1.55c-2.41,3.65 -10.81,4.37 -15.56,4.55 0.57,-2.57 3.83,-6.78 5.29,-9.23 0.22,-0.35 0.88,-1.41 1.03,-1.57 0.77,-0.82 0.44,-0.49 1.22,-0.83zm8.68 12.18c0.07,-2.83 0.41,-4.02 0.55,-5.59l3.62 0.18c0.03,0.03 -0.02,0.1 -0.02,0.11 0.08,2 0.03,-0.57 1.77,1.5l-2.49 2.39c-0.78,1.19 -0.86,0.95 -3.43,1.41zm-17.78 -25.47c0.05,2.04 0.1,3.54 0.54,5 0.47,0.89 2.66,0.54 4.73,0.36 4.31,-0.37 1.51,0.58 4.59,0.91 -1.23,5.55 0.25,3.25 -3.96,5.22 0.72,2.94 1.86,2.2 -1.24,3.81l-1.28 0.77c-0.56,-2.01 0.45,0.32 -0.18,-0.95 -0.97,-1.91 0.7,-0.48 -1.28,-0.98 -0.32,2.96 -1.54,5.65 -2.81,8.4 -1.72,3.69 -1.63,4.25 -6.36,4.69 -14.43,1.36 -26.53,0.55 -40.21,-3.78 -7.58,-2.4 -12.42,-5.28 -15.95,-6.4l0.05 2.27 0.31 0.05c1.09,1.02 0.92,0.73 2.18,1.31 0.51,0.23 0.96,0.4 1.42,0.7 0.76,0.5 0.35,0.26 0.85,0.82 1.51,0.01 11.94,4.13 17.44,5.39 6.78,1.55 13.1,2.38 20.28,2.71 29.46,1.35 52.98,-8.34 78.97,-12.89 18,-3.15 24.88,-0.8 41.16,2.3 6.25,2.51 25.86,4.08 33.43,3.33 11.45,-0.38 23.03,-2.46 33.49,-6.25 3.17,-1.15 6.4,-2.89 9.24,-3.71 -2.93,4.41 -17.33,20.24 -21.58,21.96 -0.23,0.4 0.04,0.16 -0.56,0.75 -5.82,5.65 -27.06,3.82 -36.27,-0.89 -6.91,-1.22 -12.91,-3.09 -20.48,-3.82 -39.6,-3.81 -74.15,9.39 -110.07,6.55 -19.85,-1.58 -23.19,-4.22 -39.7,-8.59l-0.75 1.8c1.05,0.42 3.07,-0.09 4.4,1.63 4.3,3.43 32.17,7.28 39.71,7.73 33.71,2.03 73.95,-11.76 110.77,-6.18 3.25,0.49 14.96,2.55 18.16,4.29 0.08,0.05 0.29,0.35 0.35,0.24 0.06,-0.11 0.24,0.16 0.35,0.26l12.94 2.79c5.54,0.2 9.86,-0.67 14.34,-0.64l-9.26 6.43c-6.61,4.44 -6.66,4.64 -10.6,3.54 -8.39,-2.37 -18.31,-3.73 -27.52,-4.36 -37.01,-2.52 -49.58,10.06 -81.01,13.79 -9.54,1.13 -20.81,2.28 -28.97,-1.48 -12.82,-5.91 -26.06,-13.68 -36.62,-22.89 -1.33,-1.16 -0.79,-0.93 -2.14,-1.26l-1.32 1.59c-0.05,0.05 -0.41,1.13 -0.05,-0.02 -1.83,0.12 -1.84,-0.79 -2.41,-1.49 -0.04,-0.04 -0.11,-0.16 -0.14,-0.19 -0.16,-0.18 -0.55,-0.63 -1.11,-0.67 -1.86,-0.16 -0.7,-1.18 -1.55,0.68 16.51,14.98 37.61,28.52 65.61,36.44 49.37,13.96 100.73,2.73 140.66,-27.03 13.8,-10.29 27.09,-24.59 37.01,-39.78 5.19,-7.96 14.45,-24.67 16.82,-34.02l0.67 -4.06c-5.5,-3.12 -4.5,3.86 -10.79,16.62 -3.68,7.47 -11.1,23.02 -17.99,26.87 -3.55,1.99 -5.97,3 -10.03,4.61 -15.1,5.97 -35.84,7.69 -52.18,5.82 -9.09,-1.03 -16.23,-3.35 -24.7,-4.97 -24.75,-4.72 -33.91,1.96 -51.89,4.22 1.91,-2.05 4.48,-3.42 5.35,-6.73 -2.8,0.88 -0.58,1.98 -7.25,5.25 -1.89,0.93 -6.41,2.73 -8.75,2.81 2.95,-1.61 7.44,-5.95 8.19,-10.28 -2.34,0.86 -9.29,7.95 -14.14,8.4 -1.59,-1.77 -2.55,-4.15 -3.58,-6.88 -0.98,-2.61 -1.21,-5.3 -3.6,-6.24l-3.85 -1.69c-1.45,-0.45 -3.13,-0.14 -4.65,0.03 -4.12,0.46 -6.46,1.06 -5.23,-4.02z"/>
   <path class="fil0" d="M184.36 219.67c0.4,1.77 7.54,10.12 9.31,12.34 1.72,2.17 2.91,3.84 4.67,6.27 3.35,4.64 0.45,3.84 0.1,7.26 0.51,0.9 0.39,2.12 -0.09,2.83 -0.3,0.44 -2.37,1.73 -3.99,4.82 -2.57,4.94 -1.79,0.74 -4.26,5.29 -0.56,1.02 -1.13,1.93 -1.71,2.65 -1.26,1.56 1.17,-1.04 -0.71,0.72 -2.21,2.06 -1.25,2.3 -2.85,4.34 -1.16,0.11 -0.88,-0.24 -0.89,-0.41l0.23 -0.25c-0.19,4.02 -0.52,3.07 0.02,6.29l0.46 5.18c0.03,0.15 0.06,0.29 0.1,0.44 0.94,3.91 8.73,1.29 14.51,1.88 2.77,-1.32 10.66,-15.48 14.16,-19.28 2.65,1.38 8.71,12.79 10.36,13.33 0.84,-0.27 0.44,-0.21 1.33,0.2 0.06,0.03 0.21,0.11 0.27,0.15l2.21 2.23c0.61,0.52 0.4,0.3 0.81,0.58 1.02,0.69 -0.18,-0.16 0.87,0.57 0.82,0.56 0.49,0.97 2.87,0.67 0.06,-0.01 0.22,-0.02 0.28,-0.03 0.04,-0.01 0.2,-0.03 0.24,-0.04 2.75,-0.49 0.31,0.42 0.61,-0.16 -2.29,0.7 -0.77,-0.33 -0.91,2.4l8.19 -0.9c1.48,-2.29 0.33,-0.84 2.08,-1.61 2.96,-1.28 1.79,-8.18 1.47,-11.34 -0.4,-0.24 -0.9,-0.6 -1.24,-0.8l-1.57 -0.99c-2.22,-2.15 1.08,-0.71 -2.58,-2.42 0.16,-3.75 1.51,-0.48 -1.5,-4.09l-6.85 -9.09c-0.83,-1.25 0.86,0.74 -0.4,-0.46 0,0 -1.48,-0.86 -1.64,-2.7 -0.21,-2.65 -0.01,-0.93 0.49,-1.35 -0.3,-1.5 -0.77,-1.53 -1.32,-3.21 0.47,-0.89 1.14,-1.62 1.14,-2.55 -0.04,-2.22 0.37,-3.43 1.34,-4.27 3.13,-2.71 4.14,-5.34 5.48,-6.7 1.69,-1.72 1.29,-1.34 2.73,-3.35 1.11,-1.55 4.06,-4.46 5.19,-8.04l0.59 -11.91c-3.51,-1.38 -9.75,-1.69 -13.32,-0.06 -2.95,1.36 -4.16,6.6 -7.82,7.4 -1.22,0.62 -0.54,0 -1.08,1.41 2.84,-1.26 0.6,-0.49 1.36,0.39 -2.76,5.48 -4.69,4.98 -4.76,9.31 0.43,-0.4 2.24,1.04 0.99,-2.21 -0.32,3.72 0.34,2.23 -2.91,3.1 -3.24,0.88 -1.11,1.08 -2.25,0.15 -1.81,-1.5 -0.92,0.6 -2.93,-0.91l-3.1 -4.63c-1.08,-1.42 -1.92,-2 -0.81,-4.15 -2.63,-3.89 -5.8,-8.82 -8.17,-11.31 -1.21,1.01 0.51,0.46 -4,0.42l-12.29 0.2c1.37,1.55 1.08,0.06 1.38,1.68l-0.24 10.4c0.14,1.46 0.08,0.85 0.47,2 0.67,1.97 1.02,1.13 -0.12,2.32z"/>
   <path class="fil0" d="M274.8 281.87l1.3 -0.71c0.13,-0.12 0.31,-0.46 0.4,-0.34 0.16,0.23 0.07,-0.62 2.18,-1.03l10.47 -0.14c18.05,-0.05 19.54,2.89 20.34,-4.12 0.52,-4.59 0.68,-7.38 0.68,-12.66 -2.48,-0.32 -4.43,-0.06 -6.94,0.02 -5.31,0.17 -2.88,1.06 -5.74,1.54l-13.56 0.53c-3.25,-0.79 -0.1,-0.85 -2.61,-2.04 -4.94,0 -5.25,-1.43 -5.22,-7.86 0,-0.75 -0.15,-3.72 -0.08,-4.2 0.47,-2.97 1.71,-2.41 0.59,-3.61 0.31,0.16 3.86,0.32 5.23,0.52 0.42,-1.28 -0.18,-1.27 -0.22,-1.28 -1.44,-0.47 -0.25,0.05 -0.3,0.22 1.51,-0.55 2.98,-0.85 4.64,-0.26 0.76,0.27 -1.21,0.68 2.64,0.79 2.3,0.07 2.16,-0.41 2.9,-0.59 3.78,-0.9 9.21,0.25 9.98,-2.01 0.87,-2.53 -1.99,-0.14 2.31,-4.75l0.57 -0.66c0.07,-0.08 0.19,-0.22 0.29,-0.34l-0.95 -3.13c1.79,-0.58 3.42,-0.68 3.21,-2.8 -1.21,-0.81 -11.64,0.05 -13.69,0.18 -10.58,0.66 -3.89,1.51 -15.03,-0.15 1.55,-1.73 -2.08,-1.19 3.13,-1.42 -3.16,-0.64 -3.47,-2.23 -3.58,-5.68 -0.12,-3.32 -0.54,-5.97 3.06,-6.18 1.27,-1.72 -0.29,-0.31 1.53,-0.95 1.67,-0.59 8.47,-0.1 12.23,-0.45 2.07,-0.2 8.92,0.26 12.81,0.22 1.63,-3.2 1.51,-7.83 0.6,-11.65 -1.22,0.87 -1.74,0.8 -3.15,0.79 -0.32,-1.5 -0.3,-2.35 -1.26,-3.34 -1.3,-1.33 -3.19,-1.1 -4.85,-0.85 -0.62,1.11 -0.59,1.91 -0.41,3.36 0.2,1.5 0.3,1.98 0.3,3.73l3.21 0.03c-0.46,1.45 -7.77,0.62 -10.62,0.62l0 -7.16c-11.32,-0.11 -16.66,-2.44 -17.61,1.91 -1.26,5.8 3.41,5.82 -7.44,5.82l0.04 -8.77c-2.83,-0.08 -6.13,-0.55 -8.73,0.44l-0.13 6.41c0.77,0.46 0.4,0.31 1.46,0.67 0.47,0.16 0.68,0.14 1.13,0.15 -0.12,2.18 0,-0.02 -0.42,1.29 -1.61,5.05 0.84,5.16 -1.32,8.49 -0.07,0.11 -0.19,0.21 -0.25,0.33 -1.78,3.11 0.24,22.19 0.82,26.02 0.11,0.74 0.1,1.72 0.11,2.5l-1.07 13.06c-1.5,5.76 -0.37,9.61 -0.37,16.58 3.28,0 6.57,-0.01 9.85,0 3.71,0.02 4.06,1.2 8.31,1.2 -1.22,4.34 0.47,0.06 -0.77,1.71z"/>
   <path class="fil2" d="M143.4 104.43c-1.19,1.7 -1.17,1.38 -2.88,2.54 -4.18,2.85 -19.15,16.39 -19.73,16.69l-0.16 0.15 -5.95 6.96c-1.84,1.98 -4.37,5.53 -5.87,6.46 -0.3,1.25 -5.7,8.35 -7.24,10.71 -2.34,3.59 -4.66,7.12 -6.9,11.38 -3,5.7 -10.35,20.23 -11.07,25.61l4 2.56c0.12,-0.13 0.56,-0.4 0.64,-0.45 0.09,-0.06 0.49,-0.3 0.6,-0.37 0.74,-0.47 -0.42,0.75 1.32,-0.96l-1.79 -0.42c1.43,-5.6 5.2,-13.92 7.92,-18.7 -1.3,-0.81 -0.4,-0.4 1.03,-1.53l1.2 -0.91c-0.9,-0.37 -1.71,0.7 0.51,-3.08 1.37,-2.33 5.84,-9.33 5.76,-10.44 2.24,-1.82 4.41,-5.59 6.15,-7.96 2.02,-2.76 4,-5.23 6.29,-7.79 3.56,-3.98 9.91,-11.59 14.03,-13.85 1.46,-3.58 27.29,-21.49 34.45,-23.72 1.55,-1.5 15.65,-7.7 18.44,-7.61 1.89,-1.84 8.85,-3.28 11.36,-3.96 21.82,-5.87 44.1,-6.73 66.51,-3.02 10.79,1.8 17.17,4.61 23.61,5.85l-1.54 0.71c-1.43,0.67 -0.14,-0.18 -0.91,0.46l4.53 -0.19c-0.08,0.16 -0.53,1 -0.65,1.26 10.13,-2.21 41.75,20.95 44.22,21.99 -1.28,1.42 0.97,0.21 -1.28,1.43 0.05,0.01 9.49,2.04 4.69,1.19 1.27,1.87 4.53,4.44 6.47,6.18l11.93 12.08c1.8,1.98 3.53,4.64 5.58,6.56 1.33,0.75 1.26,1.86 2.09,3.61 1.1,0.82 0.63,0.35 1.58,1.49 1.95,2.33 7.42,10.39 7.72,12.43 1.26,2.7 1.83,0.23 1.04,2.18 1.55,1.01 6.22,10.03 7.15,12.91 0.82,2.48 0.73,1.02 -0.13,1.62 -0.03,0.02 -0.69,0.78 -0.77,0.87 -0.85,0.98 0.6,0.16 -0.86,0.87 2.38,1.47 2.89,-0.1 4.21,2.41 0.69,1.31 1.5,4.1 1.82,5.42 2.5,-0.9 1.85,-0.36 3.74,-2.54 0.08,-0.1 0.19,-0.28 0.32,-0.39 -7.44,-19.03 -19.27,-40.31 -33.71,-54.51l-13.09 -12.48c-0.49,-0.42 -0.73,-0.57 -1.14,-1l-1.09 -1.33 -1.68 -1.29c-1.91,-0.96 -13.18,-9.38 -19.68,-13.03 -47.39,-26.64 -104.12,-29.29 -152.64,-4.59l-19.05 11.23c-1.29,0.56 0.62,0.05 -1.1,0.31z"/>
   <path class="fil3" d="M96.22 253.65l-0.84 0.39c-1.41,-0.63 -0.97,-0.01 0.52,-0.52l-1.12 -1.51c-0.32,-0.46 -0.54,-0.61 -0.96,-1.62 0.95,-0.79 0.35,-0.7 2.05,-1.03l9.16 0.87c1.56,-0.08 -1,1.51 1.32,-0.38 1.71,-1.4 0.54,0.14 1.04,-1.55 -1.36,-1.14 -2.02,-1.14 -4.74,-1.08 -1.21,0.02 -2.4,0.04 -3.61,0.03l-0.14 -1.22c2.48,0 5.43,-0.22 7.7,0.21 3.52,0.68 5.17,1.08 7.06,-1.6 -2.49,-0.96 -3.27,-1.18 -6.79,-0.96 1.4,0.77 0.38,0.39 0.52,-1.65 -3.64,-1.2 -0.7,-1.32 -3.5,-1.42 -2.16,0.22 -6.02,0.6 -7.12,-0.32 -0.41,-0.34 -1.59,-0.23 -1.33,-2.21 0.74,-5.8 0.47,-3.75 0.47,-10.68 0.01,-15.79 -1.95,-3.45 -2.1,-8.35 5.23,-0.14 -1.73,-2.43 12.84,-2.63 0.64,-1.11 0.33,-1.18 0.98,-2.29l3.54 0.54c0.88,-0.46 2.03,-0.67 3.06,-0.32 3.15,1.08 -1.79,1.34 3.61,1.56 0.81,-0.98 0.37,-0.04 0.86,-1.5 0.27,-0.77 0.19,-0.85 0.19,-1.63 2.38,0 3.08,-0.5 5.04,-1 2.84,-0.72 2,-0.05 3.49,-1.29l1.92 -1.37c-0.54,-0.29 -0.93,-1.07 -2.1,-1.28l-3.42 -1.87c-2.57,1.14 -4.66,0.64 -8.16,0.64l0.06 -3.48c-5.93,0.19 -12.07,0.08 -18.25,0.23 -3.11,0.07 -6.28,0.02 -9.4,0.02l-6.26 0.1c-0.88,0.36 -2,0.13 -2.04,4.02 -0.06,5.52 0.46,2.09 -0.62,4.91l-0.34 35.36c-0.02,2.83 -0.43,4.92 0.91,6.7 1.81,-0.81 0.65,0.29 1.34,-1.46 0.6,-1.5 -0.37,-12.11 0.22,-14.78l0.1 18.52 -2.61 -0.52c-0.81,2.29 -1.44,15.17 -1.48,18.73 -0.02,3.25 -0.58,4.51 2.95,4.31 0.09,-0.13 0.19,-0.49 0.22,-0.41 0.5,1.3 0.6,-14.73 0.82,-15.6 0.44,1.68 0.62,13.06 0.62,15.75l9.83 -0.05c-0.34,-0.44 -0.72,0.36 -0.52,1.01 4.12,-0.33 6.26,1.34 5.26,-9.81 -0.47,-5.21 -1.11,-11.31 -0.25,-16.51z"/>
   <path class="fil4" d="M172.87 155.23c-0.78,1.12 0.93,0.89 -0.79,1.02l-1.27 0.45c-1.6,1.23 -1.9,0.89 -4.05,1.02 -1,-1.47 0.09,-0.47 -1.44,-0.9l-3.16 0.08c0.34,-2.2 -0.68,-0.2 1.08,-2.13l9.65 -8.37c0.66,-1.63 -0.99,-0.36 1.94,-1.47 3.11,-1.16 -0.27,-0.61 3.71,-2.52l1.17 -0.63c0.11,-0.06 0.66,-0.45 0.81,-0.55 1.93,1.5 1.8,0.92 2.72,3.04 1.74,0.63 0.65,0.05 1.75,1.56l1.34 -0.37 0.75 1.32c1.81,1.29 3.39,2.8 5.1,4.19 1.54,1.24 2.92,2.97 4.74,4.24 -0.11,0.12 -0.25,0.28 -0.33,0.36l-0.9 0.88c-0.29,0.24 -0.44,0.27 -0.73,0.49l-2.33 1.27 -3.89 -0.09c-1.24,-0.01 -0.75,-0.13 -1.84,0.48 -3.02,-0.05 -3.83,-0.2 -4.75,-2.48l-1.3 0.35c-0.96,0.86 -1.83,1.7 -3.38,1.08l-1.31 -0.2 -3.29 -2.12zm-7.71 -5.33l-1.17 1.96c-0.47,0.5 -0.87,0.79 -1.37,1.24 -6.57,6.03 1.43,5.56 5.36,6.32 2.12,0.04 2.61,-0.31 4.18,-1.37 1.69,0.53 0.64,0.71 2.73,1.19 1.34,0.31 1.55,0.08 3.39,0.66l-0.03 7.24c-6.06,0 -15.06,-1.64 -21.42,-2.3 -7.25,-0.76 -15.02,-0.93 -22.15,-1.86l0.07 -8.58c-1.89,1.77 -0.29,-0.63 -0.62,1.45 -0.38,2.39 1.59,3 -0.3,5.89 -2.06,3.14 -0.82,-1.05 -0.84,0.9 -0.13,-1.42 -0.35,-2.24 -0.4,-3.66 -0.11,-3.47 0.98,-2.49 -0.8,-3.28l0.11 7c-10.11,1 -23.5,-1.43 -33.38,1.45l-1.2 0.91c-1.43,1.13 -2.33,0.72 -1.03,1.53 2.79,0.09 24.39,-3.56 35.6,-1.25l-0.2 12.98c5.11,1.67 2.21,-3.07 3.08,-12.81 5.3,-0.29 40.12,2.87 43.13,4.41l0.47 2.61c0.02,0.95 -0.13,2.37 -0.07,3.24 0.18,2.76 0.91,2.6 2.92,1.92l-0.25 0.09 0.18 -7.62c5.67,0.35 12.41,1.61 18.08,2.45 2.96,0.44 6,0.94 9.07,1.43 1.57,0.25 2.9,0.47 4.5,0.72l2.66 0.51c0.13,0.04 0.32,0.13 0.42,0.16l0.81 0.38c-10.17,0.67 -20.02,2.06 -29.61,4.4 -8.77,2.15 -18.54,5.73 -27.45,7.06 -6.61,2.53 -27.3,4.43 -35.5,4.52 -6.29,0.07 -12.91,-0.35 -18.88,-1.4 -3.29,-0.58 -14.01,-3 -15.09,-4.68 -1.74,1.71 -0.58,0.49 -1.32,0.96 -0.11,0.07 -0.51,0.31 -0.6,0.37 -0.08,0.05 -0.52,0.32 -0.64,0.45l2.38 1.02c25.86,12.28 64.93,2.84 90.72,-4.26 24.07,-6.62 45.97,-8.26 70.73,-3.19 3.91,0.8 18.81,4.01 20.92,5.82l1.37 0.16c7.22,1.32 15.74,4.6 23.24,6.47 20.45,5.09 44.9,5.61 65.62,0.74 4.21,-0.99 8.19,-2.46 12.22,-3.43 1.01,-0.88 2.36,-1.24 3.82,-1.29 2.1,-2.27 6.27,-3.15 8.89,-5.51l-0.93 -2.9c-0.13,0.11 -0.24,0.29 -0.32,0.39 -1.89,2.18 -1.24,1.64 -3.74,2.54 -1.04,2.37 -16.2,6.91 -20.28,7.79 -16.45,3.58 -35.24,4.56 -51.95,1.97 -4.09,-0.64 -7.94,-1.4 -11.77,-2.38 -1.88,-0.47 -9.55,-1.97 -10.73,-3.35 -3.8,0.19 -15.48,-4.12 -20.2,-5.48 -6.61,-1.89 -13.78,-3.63 -20.75,-4.81 -6.24,-1.06 -40.95,-5.85 -43.92,-7.3l8.1 -0.25 -5.21 -2.09c-0.88,-0.91 -0.74,1.67 -0.74,-1.08 -0.71,2.42 -4.04,2.06 -5.89,1.59 -6.37,-0.75 -10.75,0.47 -18.08,-1.03l0.07 -8.98c1.52,0.67 1.69,1.65 3.98,1.69 4.59,0.08 10.9,-0.77 14.23,-3.97 -1.3,-3.69 -14.32,-13.98 -18.86,-16.7 -2.51,0.65 -6.11,3.4 -8.13,4.92 -1.9,1.43 -4.99,4.93 -7.23,5.31z"/>
   <path class="fil0" d="M127.24 207.84c1.17,0.21 1.56,0.99 2.1,1.28l-1.92 1.37c-1.49,1.24 -0.65,0.57 -3.49,1.29 -1.96,0.5 -2.66,1 -5.04,1 0,0.78 0.08,0.86 -0.19,1.63 -0.49,1.46 -0.05,0.52 -0.86,1.5 -5.4,-0.22 -0.46,-0.48 -3.61,-1.56 -1.03,-0.35 -2.18,-0.14 -3.06,0.32 -2.1,0.83 -1.9,0.3 -2.11,2.29 6.26,2.2 7.36,1.3 7.41,1.28 0.39,-0.09 -0.4,-0.32 1.48,-0.34 0,2.57 1.09,3.33 2.17,5.15 1.29,2.18 1.39,9.53 0.05,11.86l-2.54 4.38 -1.35 -0.65c-3.87,0.62 -0.94,0.24 -2.09,-0.8l-2.73 1.16c2.4,1.2 -1.3,-1.92 0.95,0.5l-0.31 0.95c-2.38,0.23 -6.24,1.19 -8.21,0.16 2.8,0.1 -0.14,0.22 3.5,1.42 -0.14,2.04 0.88,2.42 -0.52,1.65 3.52,-0.22 4.3,0 6.79,0.96 -1.89,2.68 -3.54,2.28 -7.06,1.6 -2.27,-0.43 -5.22,-0.21 -7.7,-0.21l0.14 1.22c1.21,0.01 2.4,-0.01 3.61,-0.03 2.72,-0.06 3.38,-0.06 4.74,1.08 -0.5,1.69 0.67,0.15 -1.04,1.55 -2.32,1.89 0.24,0.3 -1.32,0.38l-9.16 -0.87c-1.7,0.33 -1.1,0.24 -2.05,1.03 0.42,1.01 0.64,1.16 0.96,1.62l1.12 1.51c-1.49,0.51 -1.93,-0.11 -0.52,0.52l0.84 -0.39 2.13 0.15c2.56,0.43 5.61,-0.08 7.84,0.48 2.58,0.65 2.44,2.31 3.8,3.63 1.28,0.24 0.74,-0.18 1.86,0.37 1.72,0.85 0.38,-0.55 1.32,1.22 0.34,0.63 1.17,1.64 -0.03,2.38 0.16,0.1 0.37,0.08 0.47,0.32 0.32,0.83 2.96,0.95 3.04,0.98l0.63 3.02 1 -3.34 5.71 -0.81c-0.31,-10.65 -1.88,-10.21 1.17,-9.58 0,2.67 -0.24,4.24 0.52,6.27 1.26,-0.2 3.32,1.33 2.45,-4.46 -0.44,-2.92 -0.88,-2.9 -0.88,-6.5 2.36,-0.61 0.51,-0.26 2.92,-1.96 2.57,-1.82 5.94,-3.26 6.73,-7.9 0.62,-3.69 0.84,-0.94 0.27,-5.29 2.35,0.61 1.67,-0.65 2.61,1.57 0,-3.22 -0.17,-0.27 0.97,-1.45 1.96,-3.27 0.79,-16.4 -5.4,-22.85 -1.41,-1.47 -3.61,-3.48 -5.53,-3.69 -1.73,1.13 1.49,-0.67 -0.77,1.15 -1.21,0.98 0.32,0.14 -1.81,0.48z"/>
   <path class="fil5" d="M205.81 168.15l0.21 -17.62 9.54 -1.03 0 17.84 -9.75 0.81zm12.31 -18.92l2.31 0.06c1.65,-1.12 6.58,-1.33 8.98,-1.14l-0.05 17.01c-0.52,2.89 -9.96,2.3 -12.59,1.95l0.03 -17.52 1.32 -0.36zm-12.13 -0.69c0.66,-1.6 -1.28,-0.78 1.91,-1.41l7.32 -0.38c0.07,-0.12 0.24,0.15 0.35,0.22 -0.49,1.67 1.21,0.92 -1.65,1.49 -1.53,0.31 -6.48,1.06 -7.93,0.08zm10.85 -1.04c0.43,-1.98 -0.26,-1.42 2.68,-1.78l9.96 -0.76c-0.18,1.97 0.32,1.65 -1.91,2.04 -1.83,0.33 -9.24,1.24 -10.73,0.5zm35.61 -12.77l-0.02 5.4 -3.78 0.29 -0.09 -5.31 3.89 -0.38zm1.69 -0.33l3.87 -0.28c0,0.88 0.07,2.15 0.02,2.98l-0.51 2.49 -3.32 0.09 -0.06 -5.28zm54.8 -6.51l-0.23 8.85c-2.49,-0.4 -5.11,-1.07 -7.75,-1.61 -3.51,-0.72 -5.26,0.13 -8.68,0.15l0.06 -5.98 16.6 -1.41zm-83.91 -12.43c-1.42,0.84 -4.74,3.75 -6.47,4.06 -1.12,1.52 -2.12,2 -3.79,3.22l-11.11 8.98c0.55,0.18 0.35,0.09 1.4,0.01l0.06 0.29c2.06,-1.3 16.34,-2.77 19.75,-2.75l0.06 14.1 -19.81 2.32 -0.9 0.04 0.01 22.38c-1.54,0.02 -4.14,-0.17 -5.05,0.55 1.85,0.47 5.18,0.83 5.89,-1.59 0,2.75 -0.14,0.17 0.74,1.08l5.21 2.09 21.4 -1.66 -1.69 -1.85c-0.1,-0.1 -0.25,-0.25 -0.37,-0.37 0.85,-5.11 -0.64,-14.31 0.57,-18.58l1.81 -0.11 0.01 -0.15 -1.05 -1.07c-1.73,-0.23 -0.88,0.59 -1.01,-1.57 2.48,-1.55 7.38,-1.01 10.41,-1.72 0.83,-0.84 -0.1,-0.62 1.53,-0.78 1.89,-0.18 0.36,-0.11 1.83,0.27 1.97,0.2 4.38,-0.32 6.56,-0.58 7.35,-0.85 5.16,-1.12 6.05,0.73 -0.87,1.33 0.7,0.73 -2.31,1.22l-7.55 0.78 1.02 0.57c2.01,0.82 6.46,0 8.83,-0.58l1.18 -0.22 8.46 -0.84c1.01,0.33 0.2,0.05 0.32,-1.08 -1.53,0.14 -3.17,0.23 -4.67,0.42 -5.67,0.73 -3.29,0.3 -4.11,-0.27 0.28,-2.1 -0.71,-1.51 2.35,-1.91 2.9,-0.38 7.79,-0.54 10.07,-1.36l1.2 -0.39 3.26 -0.07 6.93 -0.56c0.31,-0.17 0.07,-0.26 1.34,-0.57 1.08,-0.27 0.39,-0.09 1.61,-0.05l0.75 -0.14 7.58 -0.71c0.98,-0.9 0.35,-0.71 2.1,-1 1.59,-0.27 1.48,0.27 3.57,0.42l2.15 0.36c0.16,0.05 0.39,0.11 0.53,0.24 1.93,0.51 4.51,0.95 6.43,1.38 6.8,1.54 5.36,0.13 5.7,2.79 -0.43,0.19 -0.27,0.26 -1.12,0.34l-3.96 -0.65c-2.09,-0.39 -3.55,-0.77 -5.55,-0.58l-2.54 0.48c1.3,0.19 2.31,0.33 3.57,0.53l3.38 1.05 1.93 0.02 3.43 0.12c3.32,-0.75 0.8,-0.14 1.79,0.78l-0.01 15.16c-0.01,0.73 -0.05,2.01 0.02,2.69 0.4,3.85 0.39,1.44 0.51,1.47 -0.3,-0.23 -0.9,0.62 -0.43,-1.15 0.58,-2.13 -0.33,-0.55 1.13,-1.61 3.34,0.91 35.56,-2.5 42.13,-2.88 -4.01,-1.52 -0.51,-0.12 -2.09,-1.67 4.95,1.76 1.78,0.74 2.88,-0.24l-43.27 3.43 -0.08 -20.19c-3.87,-1.24 -4.85,0.23 -4.87,-3.83 -0.01,-2.83 0.05,-5.7 0.03,-8.68l-20.09 1.84 -0.22 7.98 -30.62 3.6 -0.11 -7.23 -12.77 1.51 0.06 7.28 -20.3 2.2 0.06 -14c3.56,-0.85 13.43,-2.36 16.61,-1.79 1.14,-0.95 7.05,-1.35 8.82,-1.58 2.95,-0.37 5.86,-0.74 8.81,-1.1 6.38,-0.78 7.76,-5.71 12.77,-7.94l1.31 -1.48c0.74,-0.68 1.1,-0.94 1.72,-1.43 1.17,-0.92 2.33,-2.16 3.57,-2.48 1.22,-1.94 9.72,-8.67 11.45,-9.48 2.33,1.88 6.44,4.3 9.3,6.22 3.38,2.27 5.7,3.75 9.03,6.1 5.22,3.68 4.01,3.45 11.44,2.59 4.16,-0.48 9.52,-1.39 13.16,-1.21 4.8,0.85 -4.64,-1.18 -4.69,-1.19 -4.15,-0.54 -8.67,0.95 -12.94,1.15 -4.08,0.19 -21.23,-14.55 -25.82,-15.82 -2.99,1.87 -15.89,13.04 -18.91,15.44 -1.97,1.57 -7.86,6.97 -9.86,7.5 -3.15,0.83 -12.02,1.65 -15.62,1.96l-37.71 4.78 23.94 -17.43c4.17,-3.05 20.96,-15.38 24.21,-17.02l-0.04 0.17c0.72,-0.74 -0.16,-0.33 1.31,-0.86l28.5 -3.29c0.12,-0.26 0.57,-1.1 0.65,-1.26l-4.53 0.19c-4.28,-0.41 -14.21,1.29 -19.1,1.89 -9.18,1.12 -6.02,0.23 -14.58,6.27 -8.79,6.2 -16.04,11.54 -24.47,17.56z"/>
   <path class="fil6" d="M171.88 280.89l0.09 0.04c-4.89,-2.93 -11.99,0.61 -16.86,-2.86 0.9,-19.36 -1.23,-35.67 0.34,-55.34 0.4,-5.02 -0.09,-12.91 -0.09,-18.34 1.83,-0.2 2.63,-2.41 2.6,4.31l6.43 0c0,-3.61 0.15,-3.34 1.5,-4.8 2.01,2.43 0.77,6.06 0.78,9.42 0.01,2.9 0.74,5.85 0.69,9.39 -0.08,6.06 -0.85,22.69 -0.22,28.38 0.2,1.8 -0.58,21.89 -0.17,28.2 4.6,1.11 2.79,0.1 5.73,0.86l-0.18 -18.95c-0.36,-9.87 -0.51,-20.29 -0.16,-30.15 0.22,-6.14 1.9,-24.31 0.72,-29.16l-23.07 0.25c-1.57,3.57 0.38,32.58 0.32,39.37 -0.08,7.05 -2.16,34.78 -1.06,39.09 4.75,1.55 17.27,1.02 22.61,0.29z"/>
   <path class="fil2" d="M259.91 287.52c-2.82,2.73 -31.35,10.54 -38.63,12.04 -3.23,0.66 -11.61,1.67 -13.93,2.49 -1.24,-1.48 0.13,0.63 -0.55,-1.09l-0.69 -2.57c-0.97,0.3 -9.22,7.1 -20.9,7.58 -2.6,-0.12 -1.44,-0.08 -2.1,-0.75 0.13,-2.65 -0.05,-1.52 2.31,-2.81 -0.13,-5.33 0.34,-9.19 -5.89,-8.5 -1.05,0.99 -1.74,1.73 -2.3,3.83 -0.31,1.14 -0.43,1.53 -0.26,2.68 0.33,2.23 0.48,0.18 0.98,2.71 -1.82,2.32 -2.65,0.49 -5.1,7.59 -1.11,3.22 -2.15,7.1 -2.84,10.69 0.17,-0.02 0.98,-0.13 1.11,-0.13l1.41 0.14c-0.2,1.53 -1.44,0.75 1.73,-3.08 0.97,-1.17 0.08,0.12 0.68,-0.86 1.14,-1.88 1.29,-5.46 1.56,-7.57 0.15,-1.23 0.18,-1.6 0.77,-2.7 0.51,-0.94 0.05,-0.22 0.71,-1l0.97 -0.98c3.8,3.01 0.14,1.12 2.9,2.4l-1.04 1.44c-1.26,2.27 0,3.92 -0.71,7.03 -0.98,4.26 -1.61,2.73 -0.25,7.01 2.87,-0.68 -0.45,0.6 3.28,2.26 -0.44,-1.46 -0.49,-2.96 -0.54,-5 0.75,-4.16 1.44,-4.64 1.41,-9.63 6.56,-2.01 8.13,-2.06 14.68,-5.14 0.07,-0.03 2.06,-1.03 2.09,-1.04 0.87,-0.26 1.08,-0.38 2.37,0.79 0.92,-3.29 2.79,-2.47 8.16,-3.34 21.93,-3.56 43.97,-10.5 63.5,-20.14 1.24,-1.65 -0.45,2.63 0.77,-1.71 -4.25,0 -4.6,-1.18 -8.31,-1.2 -3.28,-0.01 -6.57,0 -9.85,0 0,-6.97 -1.13,-10.82 0.37,-16.58l1.07 -13.06c-0.01,-0.78 0,-1.76 -0.11,-2.5 -0.58,-3.83 -2.6,-22.91 -0.82,-26.02 0.06,-0.12 0.18,-0.22 0.25,-0.33 2.16,-3.33 -0.29,-3.44 1.32,-8.49 0.42,-1.31 0.3,0.89 0.42,-1.29 -0.45,-0.01 -0.66,0.01 -1.13,-0.15 -1.06,-0.36 -0.69,-0.21 -1.46,-0.67l0.13 -6.41c2.6,-0.99 5.9,-0.52 8.73,-0.44l-0.04 8.77c10.85,0 6.18,-0.02 7.44,-5.82 0.95,-4.35 6.29,-2.02 17.61,-1.91l0 7.16c2.85,0 10.16,0.83 10.62,-0.62l-3.21 -0.03c0,-1.75 -0.1,-2.23 -0.3,-3.73 -0.18,-1.45 -0.21,-2.25 0.41,-3.36 1.66,-0.25 3.55,-0.48 4.85,0.85 0.96,0.99 0.94,1.84 1.26,3.34 1.41,0.01 1.93,0.08 3.15,-0.79 0.91,3.82 1.03,8.45 -0.6,11.65 -3.89,0.04 -10.74,-0.42 -12.81,-0.22 -3.76,0.35 -10.56,-0.14 -12.23,0.45 -1.82,0.64 -0.26,-0.77 -1.53,0.95 5.3,-0.14 27.79,1.62 30.19,0.87 0.16,-3.99 -0.71,-15.3 -2.01,-18.17 -4.32,-1.84 -20.5,-0.36 -26.62,-0.37 -7.77,-0.01 -20.24,-1.14 -27.28,-0.25 -0.56,2.99 0.98,32.84 0.97,39.72 -0.02,11.23 -2.52,28.95 -1.18,38.97 3.21,1.27 14.76,0.51 19.17,0.67 -2.09,2 -11.03,5.69 -14.13,6.37z"/>
   <path class="fil3" d="M171.97 280.93l0.76 0 -0.21 -19.73 0.18 18.95c-2.94,-0.76 -1.13,0.25 -5.73,-0.86 -0.41,-6.31 0.37,-26.4 0.17,-28.2 -0.63,-5.69 0.14,-22.32 0.22,-28.38 0.05,-3.54 -0.68,-6.49 -0.69,-9.39 -0.01,-3.36 1.23,-6.99 -0.78,-9.42 -1.35,1.46 -1.5,1.19 -1.5,4.8l-6.43 0c0.03,-6.72 -0.77,-4.51 -2.6,-4.31 0,5.43 0.49,13.32 0.09,18.34 -1.57,19.67 0.56,35.98 -0.34,55.34 4.87,3.47 11.97,-0.07 16.86,2.86z"/>
   <path class="fil7" d="M286.06 141.64l9.68 -0.73 2.21 -0.41 -0.12 21.52c-1.97,0.7 -10.24,0.71 -12.27,0.01l0.5 -20.39zm-1.47 0.39l-0.09 20.02 -12.42 0.79 0.23 -19.61 12.28 -1.2zm1.16 -4.28l-0.75 0.14c-0.09,2.15 0.43,2.1 -0.8,2.77l-9.48 0.84c-1.3,0.85 -1.66,0.71 -3.11,0.24l0.25 -2.6 -1.2 0.39 0.04 2.66 -3.68 0.46c-0.12,1.13 0.69,1.41 -0.32,1.08l4.01 -0.17 0.11 15.44c0.1,4.88 0.04,3.69 -0.99,4.11l-2.7 -0.13c-1.8,1.13 -6.19,0.92 -8.87,1.06l-0.02 -19.47 -1.18 0.22 -0.01 19.39 -12.6 0.87 -0.03 -17.5c0.3,-1.59 -0.31,-0.8 1.44,-1.42l2.37 -0.76 -1.02 -0.57 -2.64 0.11 -0.11 -2.26c-1.47,-0.38 0.06,-0.45 -1.83,-0.27 -1.63,0.16 -0.7,-0.06 -1.53,0.78l1.82 0.36c0.1,-0.13 0.21,0.21 0.32,0.32 -0.48,2.28 -2.3,1.64 -4.92,1.91 -2.22,0.24 -4.42,0.51 -6.62,0.7l1.05 1.07 6.98 -0.35c1.11,-0.72 1.94,-0.58 3.54,-0.65l0.04 18.86 -12.95 0.98c0.12,0.12 0.27,0.27 0.37,0.37l1.69 1.85c24.74,-1.84 50.09,-5.45 74.99,-3.77 12.28,0.83 23.86,2.34 35.8,4.35 5.51,0.93 11.18,2.12 16.61,3.28 4.93,1.06 12.24,3.37 16.67,3.78 1.46,-0.71 0.01,0.11 0.86,-0.87 0.08,-0.09 0.74,-0.85 0.77,-0.87l-17.36 -4.36 -0.13 -12.84 10.47 2.67c0.79,-1.95 0.22,0.52 -1.04,-2.18l-9.41 -2.53 0.11 -11.39c-0.83,-1.75 -0.76,-2.86 -2.09,-3.61l0.21 14.85c-1.1,0.98 2.07,2 -2.88,0.24 1.58,1.55 -1.92,0.15 2.09,1.67 1.23,0.34 0.66,-0.37 0.8,1.46l0 11.15c-5,-0.17 -15.52,-2.81 -21.19,-3.74l-20.79 -2.76c-1.24,-0.31 -0.53,-0.05 -1.37,-0.48l0.42 -2.75c-1.46,1.06 -0.55,-0.52 -1.13,1.61 -0.47,1.77 0.13,0.92 0.43,1.15 -0.12,-0.03 -0.11,2.38 -0.51,-1.47 -0.07,-0.68 -0.03,-1.96 -0.02,-2.69l0.01 -15.16c-0.99,-0.92 1.53,-1.53 -1.79,-0.78 0.59,0.77 0.56,0.56 0.8,1.81l0.1 7.85c0,3.52 0.01,7.06 -0.01,10.63l-14.43 -0.75 -0.01 -20.85c0.74,-0.46 -1.02,-0.8 1.24,-0.41l2.54 -0.48c-2.6,-1.8 -3.37,0.63 -3.82,-2.77 0.88,-0.73 -1.51,-1.05 2.32,-0.51 -0.14,-0.13 -0.37,-0.19 -0.53,-0.24l-2.15 -0.36c-2.09,-0.15 -1.98,-0.69 -3.57,-0.42 -1.75,0.29 -1.12,0.1 -2.1,1l4.35 -0.28c-0.18,3.52 -0.84,2.58 -4.88,3.02 -2.33,0.25 -4.66,0.56 -7.01,0.68l-0.04 -2.71z"/>
   <path class="fil6" d="M109.99 257.91c0.66,3.14 2.74,7.19 4.07,10.45 3.93,9.66 3.1,12.25 7.5,12.67 2.11,0.2 4.6,0.21 6.73,0.22 4.84,0.02 9.26,-0.08 14.1,-0.36l-0.29 0.4c0.89,-3.42 -4.24,-12.33 -5.9,-15.79 -8.77,-18.22 -8.68,-13.87 -3.19,-18.74 4.16,-3.71 7.2,-7.84 7.74,-14.01 -1.14,1.18 -0.97,-1.77 -0.97,1.45 -0.94,-2.22 -0.26,-0.96 -2.61,-1.57 0.57,4.35 0.35,1.6 -0.27,5.29 -0.79,4.64 -4.16,6.08 -6.73,7.9 -2.41,1.7 -0.56,1.35 -2.92,1.96 0,3.6 0.44,3.58 0.88,6.5 0.87,5.79 -1.19,4.26 -2.45,4.46 -0.76,-2.03 -0.52,-3.6 -0.52,-6.27 -3.05,-0.63 -1.48,-1.07 -1.17,9.58l-5.71 0.81 -1 3.34 -0.63 -3.02c-0.08,-0.03 -2.72,-0.15 -3.04,-0.98 -0.1,-0.24 -0.31,-0.22 -0.47,-0.32 1.2,-0.74 0.37,-1.75 0.03,-2.38 -0.94,-1.77 0.4,-0.37 -1.32,-1.22 -1.12,-0.55 -0.58,-0.13 -1.86,-0.37z"/>
   <path class="fil2" d="M98.35 253.8l-2.13 -0.15c-0.86,5.2 -0.22,11.3 0.25,16.51 1,11.15 -1.14,9.48 -5.26,9.81 -0.2,-0.65 0.18,-1.45 0.52,-1.01l-9.83 0.05c0,-2.69 -0.18,-14.07 -0.62,-15.75 -0.22,0.87 -0.32,16.9 -0.82,15.6 -0.03,-0.08 -0.13,0.28 -0.22,0.41 -3.53,0.2 -2.97,-1.06 -2.95,-4.31 0.04,-3.56 0.67,-16.44 1.48,-18.73l2.61 0.52 -0.1 -18.52c-0.59,2.67 0.38,13.28 -0.22,14.78 -0.69,1.75 0.47,0.65 -1.34,1.46 -1.34,-1.78 -0.93,-3.87 -0.91,-6.7l0.34 -35.36c1.08,-2.82 0.56,0.61 0.62,-4.91 0.04,-3.89 1.16,-3.66 2.04,-4.02l6.26 -0.1c3.12,0 6.29,0.05 9.4,-0.02 6.18,-0.15 12.32,-0.04 18.25,-0.23l-0.06 3.48c3.5,0 5.59,0.5 8.16,-0.64l3.42 1.87c2.13,-0.34 0.6,0.5 1.81,-0.48 2.26,-1.82 -0.96,-0.02 0.77,-1.15 -1,-1.27 -0.95,-1.1 -2.61,-1.79 -0.82,-0.34 -1.7,-0.68 -2.61,-1.01 -9.26,-3.37 -42.77,-2.12 -49.21,-0.68 -0.01,6.56 0.77,12.96 0.89,19.45 0.12,6.59 0.23,13.25 0.17,19.85 -0.05,6.53 -2.39,34.89 -0.57,38.31 3.1,1.75 18.69,1.15 23.28,0.42 0.16,-7.7 -2.35,-20.78 -0.81,-26.96z"/>
   <path class="fil8" d="M221.46 32.59l4.81 11.58 -8.37 0.53 3.56 -12.11zm-15.8 -2.61c-3.92,0.38 -3.48,0.74 -6.96,6.71 -1.55,2.66 -3.62,6.27 -5.48,8.7l-2.79 -12.44 -2.46 0.37c-0.57,3.34 2.58,14.6 3.15,19.12 0.64,2.04 1.55,5.41 1.25,7.62l3.13 0.02c0.61,-2.99 -1.64,-9.82 -1.96,-13.4 1.29,0.53 11.76,8.37 13,10.21l0.37 0.15c2.49,0.49 4.94,-0.18 7.41,-0.59l2.52 -8.64 10.68 -0.64c0.94,1.39 1.85,3.42 2.45,4.87 1.33,3.18 0.73,3.36 4.7,3.34 -0.89,-3.06 -11.21,-25.58 -12.37,-26.92 -4.02,-0.02 -3.92,4.23 -6.51,12.79 -1.4,4.6 -2.77,10.26 -4.46,14.59 -1.93,-0.63 -12.53,-9.03 -14.16,-10.71 1.81,-4.66 6.79,-10.27 8.49,-15.15z"/>
   <path class="fil0" d="M170.01 321.41c-2.23,4.22 -0.59,9.03 1.68,11.97 3.18,4.14 10.84,-0.53 12.82,1.13 1.98,0.5 0.31,-0.93 1.28,0.98 0.63,1.27 -0.38,-1.06 0.18,0.95l1.28 -0.77c3.1,-1.61 1.96,-0.87 1.24,-3.81 4.21,-1.97 2.73,0.33 3.96,-5.22 -3.08,-0.33 -0.28,-1.28 -4.59,-0.91 -2.07,0.18 -4.26,0.53 -4.73,-0.36 -3.73,-1.66 -0.41,-2.94 -3.28,-2.26 -1.36,-4.28 -0.73,-2.75 0.25,-7.01 0.71,-3.11 -0.55,-4.76 0.71,-7.03l1.04 -1.44c-2.76,-1.28 0.9,0.61 -2.9,-2.4l-0.97 0.98c-0.66,0.78 -0.2,0.06 -0.71,1 -0.59,1.1 -0.62,1.47 -0.77,2.7 -0.27,2.11 -0.42,5.69 -1.56,7.57 -0.6,0.98 0.29,-0.31 -0.68,0.86 -3.17,3.83 -1.93,4.61 -1.73,3.08l-1.41 -0.14c-0.13,0 -0.94,0.11 -1.11,0.13z"/>
   <path class="fil2" d="M99.01 321.75c1.47,1.11 2.37,3.28 3.77,5.32 0.85,1.23 1.21,1.74 1.95,2.74 1.03,1.41 1.55,1.73 1.87,3.19 2.01,1.3 4.07,4.61 5.64,6.55 1.45,1.81 4.19,5.48 6.32,6.57 -0.03,-0.21 -0.05,-0.7 -0.07,-0.62 -0.02,0.08 -0.04,-0.42 -0.07,-0.57 -0.02,-0.14 -0.14,-0.81 -0.19,-0.96l-0.27 -0.64c-0.93,-2.03 -2.21,-1.99 -3.08,-3.16 -0.99,-1.33 0.26,-2.03 -1.47,-2.84l-0.79 -0.25c2.15,-0.7 0.91,-0.24 2.21,-0.12 3.07,0.26 2.53,1.21 4.4,2.73l-0.05 -2.27c-2.75,-3.21 -3.88,1.99 -17.5,-20.75 -3.87,-6.45 -10.61,-18.79 -12.7,-27.11 -1.35,-1.89 -0.99,-3.38 -4.51,-2.01 -1.32,3.55 4.34,14.52 5.95,17.91 2.24,4.71 6.92,11.88 8.59,16.29z"/>
   <path class="fil9" d="M281.32 231.57c-5.21,0.23 -1.58,-0.31 -3.13,1.42 11.14,1.66 4.45,0.81 15.03,0.15 2.05,-0.13 12.48,-0.99 13.69,-0.18 0.21,2.12 -1.42,2.22 -3.21,2.8l0.95 3.13c-0.1,0.12 -0.22,0.26 -0.29,0.34l-0.57 0.66c-4.3,4.61 -1.44,2.22 -2.31,4.75 -0.77,2.26 -6.2,1.11 -9.98,2.01 -0.74,0.18 -0.6,0.66 -2.9,0.59 -3.85,-0.11 -1.88,-0.52 -2.64,-0.79 -1.66,-0.59 -3.13,-0.29 -4.64,0.26 0.05,-0.17 -1.14,-0.69 0.3,-0.22 0.04,0.01 0.64,0 0.22,1.28 -1.37,-0.2 -4.92,-0.36 -5.23,-0.52 1.12,1.2 -0.12,0.64 -0.59,3.61 -0.07,0.48 0.08,3.45 0.08,4.2 -0.03,6.43 0.28,7.86 5.22,7.86l0 -1.07c-1.98,-1.2 -2.92,-0.63 -3.41,-3.72 -0.31,-2.04 -0.51,-5.86 0.27,-7.64 5.08,-2.29 27.14,1.03 29.14,-0.21l1.59 -14.72c1.02,-8.09 1.28,-3.84 -27.59,-3.99z"/>
   <path class="fil8" d="M242.5 51.54l5.11 0.62 -0.07 4.27 2.98 0.14 0.29 -3.85c3.82,-0.91 5.49,0.04 8.55,-2.39 7.68,-6.12 2.82,-20.07 -6.61,-18.14l0.88 2.43c4.1,1.69 7.1,2.48 6.17,8.83 -0.67,4.49 -3.35,6.39 -8.72,6.23l0.76 -12.18 -0.81 -2.29c-2.72,-0.42 -1.02,-0.53 -1.05,-0.76 -1.16,1.83 -0.52,1.15 -0.75,1.8l-0.29 0.91c-0.03,-0.07 -0.08,0.3 -0.15,0.44l-0.83 11.72c-4.44,-0.19 -7.53,-2.3 -7.74,-6.85 -0.24,-5.07 1.9,-7.29 6.24,-8.04 0.58,-1.19 -0.61,-1 2.1,-1.62 1.68,-0.39 2.39,0.26 2.46,0.31 -0.78,1.03 -2.58,-0.85 -2.61,-0.88l-0.29 0.7c-1.66,1.3 -1.71,-0.07 -2.32,-1.4l-1.03 0.25c-4.73,1.13 -7.47,4.04 -7.76,9.22 -0.37,6.51 2.71,7.7 4.78,9.66 0.89,0.84 0.27,0.05 0.71,0.87z"/>
   <path class="fil5" d="M128.5 137.52c0.72,-1.74 0.7,-1.59 2.31,-2.67 1.11,-0.76 1.64,-0.85 3.04,-1.42 1.65,0.38 1.08,0.59 2.24,1.77 1.84,-0.04 2.02,-0.71 1.72,0.86l1.34 0.69c1.25,0.55 1.08,-0.67 1.13,0.55l0.41 1.11c3.34,2 12.31,9.74 14.42,12.74 -0.11,0.1 -0.29,0.2 -0.38,0.25l-1.9 1.47 -0.95 0.46c-0.14,0.06 -0.31,0.13 -0.46,0.18 -0.86,0.3 -0.36,0.02 -1.31,0.27 -1.58,0.39 -3.39,0.97 -5.21,0.25l-2.03 0.78c-3.42,-0.7 -2.56,1.22 -6.24,-1.57 -0.12,-0.15 -0.27,-0.32 -0.4,-0.42 -0.12,-0.1 -0.31,-0.24 -0.44,-0.33l-0.98 -0.28c-1.21,1.36 -1.93,1.87 -4.41,1.7 -0.15,-0.09 -1.21,-0.56 -1.37,-0.66 -2.9,1.57 -2.83,-1.26 -2.99,-3.59l-1.5 0.64c-1.44,2.3 -3.9,4.1 -7.7,3.09 -0.54,-0.34 -0.58,-0.23 -1.26,-0.73 -1.62,0.26 -3.07,0.45 -4.43,-0.06 0.13,-3.01 14.25,-14.2 16.27,-15.03 -1.36,2.32 -3.78,3.69 -4.57,5.93 0.82,-0.29 4.87,-5.14 5.65,-5.98zm-19.08 16.06c3.98,1.9 3.37,0.62 7.58,1.62 3.15,0.75 4.98,-0.29 7.11,-1.58 0.75,0.34 2.25,2.55 7.68,2.08 1.78,0.79 0.69,-0.19 0.8,3.28 0.05,1.42 0.27,2.24 0.4,3.66 0.02,-1.95 -1.22,2.24 0.84,-0.9 1.89,-2.89 -0.08,-3.5 0.3,-5.89 0.33,-2.08 -1.27,0.32 0.62,-1.45 2.55,0.76 2.35,3 6.6,2.16 2.01,-0.44 12.26,-0.01 16.33,-4.89 -2.57,-4.49 -6.68,-6.03 -8.18,-9.04l0.2 0.15 -10.66 -8.13c-5.41,-4.14 -4.92,-4.16 -11.01,0.04 -10.31,7.13 -16.34,14.3 -19.17,16.35l0.56 2.54z"/>
   <path class="fil2" d="M321.35 251.43c2.98,-1.06 -0.68,0.19 2.27,-0.53 -0.01,-4.28 -0.89,-8.01 -0.42,-12.49 0.6,-5.73 -0.25,-14.81 0.12,-16.7 0.54,-2.74 0.23,0.12 0.81,-1.98 0.23,-0.8 0.16,-1.84 0.16,-2.73 -0.04,-4.32 -0.11,-8.63 -0.11,-12.96l0.6 -0.11c1.62,-0.23 4.16,-0.49 5.52,-0.38 3.48,0.27 2.13,0.69 2.72,3.08l3.14 -0.01 1.04 -1.98 3.95 0c1.23,3.05 1.58,2.74 3.49,4.86 2.79,3.08 0.93,4.14 3.57,3.15 0.05,-0.02 0.2,-0.16 0.24,-0.18 0.04,-0.03 0.17,-0.13 0.22,-0.21 -1.08,-2.24 -6.79,-10.39 -8.86,-11.69l-19.12 1.89c-0.89,5.29 0.19,18 0.44,23.92 0.35,8.37 0.45,16.58 0.22,25.05z"/>
   <path class="fil8" d="M267.26 58.7c2.7,-0.93 10.47,2.2 14.06,2.2l0.39 -0.63 0.11 -1.92c-3.26,-0.83 -9.08,-1.59 -11.28,-2.8l1.8 -9.01c3.25,-0.97 7.68,1.83 11.32,1.42l0.18 -2.45 -10.71 -2.23 1.75 -8.36c3.67,-0.29 8.59,2.55 11.84,1.58l0.36 -1.82c-2.14,-1.75 -5.51,-0.83 -8.15,-2.69l0.29 0.4 -4.7 -0.98c-2.82,0.05 -2.01,-1.08 -2.79,2.19 -1.2,5.06 -4.9,22.27 -4.47,25.1z"/>
   <path class="fil2" d="M342.6 239.41l0.42 -0.77c3.38,4.48 7.05,8.73 10.44,13.25 3.55,4.76 6.53,8.72 10.1,13.39 3.17,4.15 6.76,9.08 10.03,13.47 2.11,2.82 5.02,2.25 9.56,2.45 3.04,0.14 9.03,0.35 11.5,-0.67l0.46 -47.9 -0.98 45.96c-1.26,0.14 -7.62,1.2 -11.24,0.27 -0.57,-1.18 -0.82,-1.56 -0.19,-2.94 -5.35,2.56 -5.63,1.33 -8.58,-0.74 -2.93,-2.05 -3.17,-4.09 -4.93,-6.62l-4.53 -5.14c-0.03,-0.05 -0.09,-0.18 -0.12,-0.24l-3.07 -4.18c-0.91,-1.5 -1.78,-3.05 -1.18,-4.06 -6.07,-1.61 -1.4,-1.6 -6.83,-6.35 -3.49,-3.04 0.87,-0.16 -3.03,-3.62 -1.06,-0.94 -0.71,-1.39 -1.22,-2.94l-1.76 -0.88c-1.28,-1.36 1.42,1.61 -0.67,-0.79l-1.75 -3.55 -3.17 0.54c-0.94,4.02 -0.34,0.67 0.74,2.06z"/>
   <path class="fil2" d="M368.38 239.27l-0.39 1.18c1.17,-0.01 0.81,-1.24 -0.78,-0.81 -0.04,0.01 -0.19,0.08 -0.22,0.1 -1.06,0.62 -0.43,0.28 -0.54,0.72 0.42,-1.34 2.63,2.66 2.83,2.96 1.32,2.05 2.29,2.68 5.52,2.78 0.52,-2.68 1.17,-1.97 1.85,-3.96 0.63,-1.81 -0.62,-7.18 -0.16,-12.26 0.31,-3.38 0.75,-13.85 -0.27,-16.6 -0.92,-2.48 -0.38,0.2 -1.08,-1.91 -0.71,-2.15 0.63,-3.14 0.92,-4.56 0.15,-0.69 0.11,-2.18 0.16,-2.99 20.43,-1.13 18.44,-2.33 18.43,7.82 0,2.96 -0.36,6.26 0.43,9.02 0.07,-0.13 0.15,-0.48 0.17,-0.41l0.47 -18.51c-2.75,-0.45 -20.48,-0.22 -21.72,0.69 -1.65,1.45 -0.7,7.9 -0.58,9.98 0.39,6.84 2.3,28.47 0.34,31.75 -1.71,-0.51 -1.52,-0.56 -2.68,-2.13 -0.44,-0.59 -0.55,-0.86 -1.12,-1.49l-1.58 -1.37z"/>
   <path class="fil2" d="M103.89 240.61c1.97,1.03 5.83,0.07 8.21,-0.16l0.31 -0.95c-2.25,-2.42 1.45,0.7 -0.95,-0.5 -3.65,0.97 -10.68,1.3 -13.52,-0.6 -1.51,-3.28 -0.63,-14.73 -0.13,-18.83 3.36,-2.28 18.74,-1.78 19.31,4.1 0.93,0.83 1.33,1.58 1.59,3.3 0.24,1.58 0.26,3.52 0.01,5.1 -0.48,2.97 -1.98,4.9 -4.53,5.77 1.15,1.04 -1.78,1.42 2.09,0.8l1.35 0.65 2.54 -4.38c1.34,-2.33 1.24,-9.68 -0.05,-11.86 -1.08,-1.82 -2.17,-2.58 -2.17,-5.15 -1.88,0.02 -1.09,0.25 -1.48,0.34 -0.05,0.02 -1.15,0.92 -7.41,-1.28 0.21,-1.99 0.01,-1.46 2.11,-2.29l-3.54 -0.54c-0.65,1.11 -0.34,1.18 -0.98,2.29 -14.57,0.2 -7.61,2.49 -12.84,2.63 0.15,4.9 2.11,-7.44 2.1,8.35 0,6.93 0.27,4.88 -0.47,10.68 -0.26,1.98 0.92,1.87 1.33,2.21 1.1,0.92 4.96,0.54 7.12,0.32z"/>
   <path class="fil10" d="M281.32 261.85l0 1.07c2.51,1.19 -0.64,1.25 2.61,2.04l13.56 -0.53c2.86,-0.48 0.43,-1.37 5.74,-1.54 2.51,-0.08 4.46,-0.34 6.94,-0.02 0,5.28 -0.16,8.07 -0.68,12.66 -0.8,7.01 -2.29,4.07 -20.34,4.12l-10.47 0.14c-2.11,0.41 -2.02,1.26 -2.18,1.03 -0.09,-0.12 -0.27,0.22 -0.4,0.34l33.41 0.45c1,-1.88 4.81,-18.91 2.63,-19.74l-2.54 -0.52c-3.66,-0.47 -9.27,0.71 -13.29,0.9 -5.01,0.24 -10.05,0.18 -14.99,-0.4z"/>
   <path class="fil10" d="M223.78 273.37l-0.13 1.29 1.71 1.39c1.9,2.28 2.38,4.67 5.8,5 4.32,0.41 10.21,1.02 14.05,-0.5 1.17,-2.95 0.87,-6.92 0.75,-10.33 -0.19,-5.34 -1.37,-5.33 -2.94,-8.86l0.17 0.08c-2.41,-1.53 -5.64,-6.43 -7.48,-8.8 -1.54,-1.98 -5.04,-7.3 -6.9,-8.45 -0.5,0.42 -0.7,-1.3 -0.49,1.35 0.16,1.84 1.64,2.7 1.64,2.7 1.26,1.2 -0.43,-0.79 0.4,0.46l6.85 9.09c3.01,3.61 1.66,0.34 1.5,4.09 3.66,1.71 0.36,0.27 2.58,2.42l1.57 0.99c0.34,0.2 0.84,0.56 1.24,0.8 0.32,3.16 1.49,10.06 -1.47,11.34 -1.75,0.77 -0.6,-0.68 -2.08,1.61l-8.19 0.9c0.14,-2.73 -1.38,-1.7 0.91,-2.4 -0.3,0.58 2.14,-0.33 -0.61,0.16 -0.04,0.01 -0.2,0.03 -0.24,0.04 -0.06,0.01 -0.22,0.02 -0.28,0.03 -2.38,0.3 -2.05,-0.11 -2.87,-0.67 -1.05,-0.73 0.15,0.12 -0.87,-0.57 -0.41,-0.28 -0.2,-0.06 -0.81,-0.58l-2.21 -2.23c-0.06,-0.04 -0.21,-0.12 -0.27,-0.15 -0.89,-0.41 -0.49,-0.47 -1.33,-0.2z"/>
   <path class="fil10" d="M224.44 209.12c-1.05,0.55 -1.1,0.97 -1.62,2.38 3.66,-0.8 4.87,-6.04 7.82,-7.4 3.57,-1.63 9.81,-1.32 13.32,0.06l-0.59 11.91c-1.13,3.58 -4.08,6.49 -5.19,8.04 -1.44,2.01 -1.04,1.63 -2.73,3.35 -1.34,1.36 -2.35,3.99 -5.48,6.7 -0.97,0.84 -1.38,2.05 -1.34,4.27 2.03,-1.44 6.75,-7.86 8.81,-10.52l2.08 -2.61c0.82,-0.69 0.43,-0.43 1.3,-0.77 0.32,-1.81 1.16,-2.43 2.5,-4.29 1.19,-1.65 2.02,-2.45 2.23,-4.81 0.23,-2.7 0.17,-11.01 -0.25,-13.56 -2.35,-0.38 -11.82,-0.56 -14.16,-0.26 -2.9,0.36 -5.61,5.07 -6.7,7.51z"/>
   <path class="fil10" d="M195.41 248.25l-0.16 0.35c-1.03,2.29 -3.37,4.86 -4.97,6.84 -8.27,10.23 -9.54,9.42 -8.1,24.71 2.31,1.12 5.84,1.06 8.78,1.1 3.79,0.05 6.96,0.85 8.3,-1.93 -5.78,-0.59 -13.57,2.03 -14.51,-1.88 -0.04,-0.15 -0.07,-0.29 -0.1,-0.44l-0.46 -5.18c-0.54,-3.22 -0.21,-2.27 -0.02,-6.29l-0.23 0.25c0.01,0.17 -0.27,0.52 0.89,0.41 1.6,-2.04 0.64,-2.28 2.85,-4.34 1.88,-1.76 -0.55,0.84 0.71,-0.72 0.58,-0.72 1.15,-1.63 1.71,-2.65 2.47,-4.55 1.69,-0.35 4.26,-5.29 1.62,-3.09 3.69,-4.38 3.99,-4.82 0.48,-0.71 0.6,-1.93 0.09,-2.83 -1.71,1.08 -0.37,0.23 -1.54,1.37 -0.97,0.93 -0.4,0.59 -1.49,1.34z"/>
   <path class="fil11" d="M118.56 346.12c0.39,1.66 7.69,8.34 8.35,8.88 0.85,-1.86 -0.31,-0.84 1.55,-0.68 0.56,0.04 0.95,0.49 1.11,0.67 0.03,0.03 0.1,0.15 0.14,0.19 0.57,0.7 0.58,1.61 2.41,1.49 -0.36,1.15 0,0.07 0.05,0.02l1.32 -1.59 -0.89 -1.37c-0.3,-1.44 -1.75,0.2 0.39,-0.89 -1.33,-1.72 -3.35,-1.21 -4.4,-1.63l0.75 -1.8c-0.3,-0.35 -4.49,-1.57 -5.52,-4.39 -1.21,-0.64 -0.67,-0.18 -1.73,-1.24 -5.02,-5.04 -2.82,-3.87 -2.55,-4.04l-0.31 -0.05c-1.87,-1.52 -1.33,-2.47 -4.4,-2.73 -1.3,-0.12 -0.06,-0.58 -2.21,0.12l0.79 0.25c1.73,0.81 0.48,1.51 1.47,2.84 0.87,1.17 2.15,1.13 3.08,3.16l0.27 0.64c0.05,0.15 0.17,0.82 0.19,0.96 0.03,0.15 0.05,0.65 0.07,0.57 0.02,-0.08 0.04,0.41 0.07,0.62z"/>
   <path class="fil12" d="M172.87 155.23l3.29 2.12 1.07 -7.3c0.72,0.7 1.37,-1.96 0.55,3.65 -0.19,1.26 -0.24,2.52 -0.31,3.85 1.55,0.62 2.42,-0.22 3.38,-1.08 0.74,-3.44 -0.06,-9.8 -0.5,-13.05 -0.38,0.41 -0.63,0.57 -1.01,1.3 -0.28,0.54 -0.19,0.77 -0.28,1.42l-1.08 -0.56c-1.5,-0.78 0.84,-0.23 -0.38,-0.17l-4.47 7.77c-1.35,2.83 -0.67,1.81 -0.26,2.05z"/>
   <path class="fil13" d="M172.89 146.4l-2.07 3.2c3.89,-0.52 0.65,-1.36 4.91,-3.89 -1.12,3.82 -3.95,6.23 -4.92,10.99l1.27 -0.45c1.72,-0.13 0.01,0.1 0.79,-1.02 -0.41,-0.24 -1.09,0.78 0.26,-2.05l4.47 -7.77c1.22,-0.06 -1.12,-0.61 0.38,0.17l1.08 0.56c0.09,-0.65 0,-0.88 0.28,-1.42 0.38,-0.73 0.63,-0.89 1.01,-1.3 0.44,3.25 1.24,9.61 0.5,13.05l1.3 -0.35 -0.62 -12.58c0.06,0.11 0.23,0.11 0.28,0.32l1.81 3.16c1.17,2.57 4.04,9.43 3.28,11.58 1.09,-0.61 0.6,-0.49 1.84,-0.48l-4.79 -13.71 -0.71 -0.14c-0.92,-2.12 -0.79,-1.54 -2.72,-3.04 -0.15,0.1 -0.7,0.49 -0.81,0.55l-1.17 0.63c-3.98,1.91 -0.6,1.36 -3.71,2.52 -2.93,1.11 -1.28,-0.16 -1.94,1.47z"/>
   <path class="fil14" d="M111.46 239l2.73 -1.16c2.55,-0.87 4.05,-2.8 4.53,-5.77 0.25,-1.58 0.23,-3.52 -0.01,-5.1 -0.26,-1.72 -0.66,-2.47 -1.59,-3.3l-0.07 0.75c-0.07,2.37 1.01,12.58 -5.77,13.4l-4.03 0.32c-0.08,0.07 -0.27,0.43 -0.38,0.57 -2.78,0.25 -2.24,-0.31 -3.99,-0.38 -2.82,-0.11 -1.38,0.6 -4.3,-0.67 -0.76,-3.16 0.13,-14.56 -0.25,-16.56l-0.52 -1.53c-0.5,4.1 -1.38,15.55 0.13,18.83 2.84,1.9 9.87,1.57 13.52,0.6z"/>
   <path class="fil1" d="M184.36 219.67c1.14,-1.19 0.79,-0.35 0.12,-2.32 -0.39,-1.15 -0.33,-0.54 -0.47,-2l0.24 -10.4c-0.3,-1.62 -0.01,-0.13 -1.38,-1.68l12.29 -0.2c4.51,0.04 2.79,0.59 4,-0.42 -2.1,-1.78 -5.28,-0.73 -8.2,-0.77 -3.28,-0.04 -5.67,-0.55 -9.04,-0.13 -0.37,3.25 0.19,6.66 0.08,9.99 -0.14,4.07 -0.57,6.16 2.36,7.93z"/>
   <path class="fil15" d="M182.15 156.12c0.92,2.28 1.73,2.43 4.75,2.48 0.76,-2.15 -2.11,-9.01 -3.28,-11.58l-1.81 -3.16c-0.05,-0.21 -0.22,-0.21 -0.28,-0.32l0.62 12.58z"/>
   <path class="fil1" d="M207.33 213.96c-1.11,2.15 -0.27,2.73 0.81,4.15l3.1 4.63c2.01,1.51 1.12,-0.59 2.93,0.91 1.14,0.93 -0.99,0.73 2.25,-0.15 3.25,-0.87 2.59,0.62 2.91,-3.1 1.25,3.25 -0.56,1.81 -0.99,2.21 0.07,-4.33 2,-3.83 4.76,-9.31 -0.76,-0.88 1.48,-1.65 -1.36,-0.39 -1.48,1.38 -2.49,3.37 -3.68,5.05 -1.42,2 -2.45,3.95 -4.12,4.85 -2.66,-2.28 -4.25,-5.92 -6.61,-8.85z"/>
   <path class="fil16" d="M128.5 137.52c0.91,0.92 0.71,0.06 0.14,1.43 -0.75,1.79 -5.06,7.72 -6.41,12.72 1.91,-0.86 0.58,0.12 2.14,-1.31 0.27,-2.43 4.23,-9.29 6.16,-11.7l0.53 -0.61c0.05,2.19 -0.13,1.24 -0.43,3.13 -0.32,2.01 -0.04,1.82 0.27,2.49 0.38,-0.5 0.38,-0.25 0.8,-1.31 0.01,-0.01 0.26,-1.19 0.27,-1.27 0.76,-5.4 0.54,-2.8 1.88,-7.66 -1.4,0.57 -1.93,0.66 -3.04,1.42 -1.61,1.08 -1.59,0.93 -2.31,2.67z"/>
   <path class="fil17" d="M244.77 31.79l1.03 -0.25c0.61,1.33 0.66,2.7 2.32,1.4l0.29 -0.7c0.03,0.03 1.83,1.91 2.61,0.88 -0.07,-0.05 -0.78,-0.7 -2.46,-0.31 -2.71,0.62 -1.52,0.43 -2.1,1.62l2.5 -0.01 -0.17 3.18c0.07,-0.14 0.12,-0.51 0.15,-0.44l0.29 -0.91c0.23,-0.65 -0.41,0.03 0.75,-1.8 0.03,0.23 -1.67,0.34 1.05,0.76l0.81 2.29c0.75,-3.16 -0.7,-2.3 1.79,-2.88l-0.88 -2.43 -0.2 -3.73 -2.56 -0.28c-0.47,0.85 -0.16,-0.45 -0.55,1.31 -0.14,0.66 -0.11,1.18 -0.14,1.83l-4.53 0.47z"/>
   <path class="fil12" d="M188.74 158.12l3.89 0.09 0.39 -1.36c-1.48,-1.61 -2.62,-3.75 -3.97,-5.36 -1.7,-2.04 -2.76,-3.31 -4.06,-5.66 -1.1,-1.51 -0.01,-0.93 -1.75,-1.56l0.71 0.14 4.79 13.71z"/>
   <path class="fil18" d="M150.11 153.78c0.95,-0.25 0.45,0.03 1.31,-0.27 0.15,-0.05 0.32,-0.12 0.46,-0.18l0.95 -0.46c-3.05,-0.12 -2.06,-1.16 -5.17,-4.94l-1.28 -1.83c-1.63,-2.68 -4.65,-5.84 -5.37,-7.76l-0.32 0.07 -0.41 -1.11c-0.05,-1.22 0.12,0 -1.13,-0.55l0 2.07c1.16,1.11 1.89,1.89 2.95,3.21l8.01 11.75z"/>
   <path class="fil19" d="M286.06 141.64l-0.5 20.39c2.03,0.7 10.3,0.69 12.27,-0.01l0.12 -21.52 -2.21 0.41 1.61 -0.03 -0.01 20.87 -11.24 0.05 -0.04 -20.16z"/>
   <path class="fil18" d="M142.87 154.81l2.03 -0.78c-1.27,-1.71 -2.65,-6.61 -3.56,-9.11 -0.58,-1.63 -1.17,-2.92 -1.81,-4.48 -0.55,-1.37 -1.44,-3.22 -1.72,-4.38 0.3,-1.57 0.12,-0.9 -1.72,-0.86l0.2 1.32c1.15,0.79 6.97,15.18 6.58,18.29z"/>
   <path class="fil20" d="M194.96 156.94c0.29,-0.22 0.44,-0.25 0.73,-0.49l0.9 -0.88c0.08,-0.08 0.22,-0.24 0.33,-0.36 -1.82,-1.27 -3.2,-3 -4.74,-4.24 -1.71,-1.39 -3.29,-2.9 -5.1,-4.19l-0.47 -0.14c0.94,0.87 2.97,3.98 3.91,5.51 0.85,1.39 0.09,0.25 1.08,1.5 1.52,1.94 1.55,2.93 3.36,3.29z"/>
   <path class="fil13" d="M134.81 152.21l0.98 0.28c0.13,0.09 0.32,0.23 0.44,0.33 0.13,0.1 0.28,0.27 0.4,0.42l-0.85 -16.3 -1.22 -2.34c-0.53,1.64 -0.28,2.21 -0.03,4.03 0.2,1.51 0.26,2.61 0.34,4.14 0.18,3.35 0.76,6.12 -0.06,9.44z"/>
   <path class="fil21" d="M200.37 345.84c2.57,-0.46 2.65,-0.22 3.43,-1.41l2.49 -2.39c-1.74,-2.07 -1.69,0.5 -1.77,-1.5 0,-0.01 0.05,-0.08 0.02,-0.11l-3.62 -0.18c-0.14,1.57 -0.48,2.76 -0.55,5.59z"/>
   <path class="fil22" d="M311.87 258.78l-0.51 0.15 -1.76 2.42 2.54 0.52c-0.63,-0.78 -0.28,-0.81 -0.73,-1.57 3.67,-1.41 6.36,-4.85 9.64,-6.55l0.04 2.38c1.44,-1.65 0.41,-2.92 0.38,-4.39 -1.06,1.12 -3.08,2.45 -4.47,3.52 -0.94,0.72 -1.29,1.05 -2.31,1.84 -1.2,0.91 -1.36,1.11 -2.82,1.68z"/>
   <path class="fil22" d="M184.99 145.83c1.3,2.35 2.36,3.62 4.06,5.66 1.35,1.61 2.49,3.75 3.97,5.36l-0.39 1.36 2.33 -1.27c-1.81,-0.36 -1.84,-1.35 -3.36,-3.29 -0.99,-1.25 -0.23,-0.11 -1.08,-1.5 -0.94,-1.53 -2.97,-4.64 -3.91,-5.51l0.47 0.14 -0.75 -1.32 -1.34 0.37z"/>
   <path class="fil13" d="M129.03 153.25c0.16,0.1 1.22,0.57 1.37,0.66l0.75 -9.65c-1.54,1.14 -0.46,-1.47 -1.23,1.74l-0.89 7.25z"/>
   <path class="fil23" d="M115.58 152.66c0.68,0.5 0.72,0.39 1.26,0.73 0.82,-3.7 4.71,-6.09 5.53,-9.01 -2.2,0.51 -5.48,6.54 -6.79,8.28z"/>
   <path class="fil24" d="M123.82 345.02c-0.32,-1.04 -0.52,-1.58 -0.84,-2.19l1.01 -0.26c-0.5,-0.56 -0.09,-0.32 -0.85,-0.82 -0.46,-0.3 -0.91,-0.47 -1.42,-0.7 -1.26,-0.58 -1.09,-0.29 -2.18,-1.31 -0.27,0.17 -2.47,-1 2.55,4.04 1.06,1.06 0.52,0.6 1.73,1.24z"/>
   <path class="fil16" d="M176.16 157.35l1.31 0.2c0.07,-1.33 0.12,-2.59 0.31,-3.85 0.82,-5.61 0.17,-2.95 -0.55,-3.65l-1.07 7.3z"/>
   <path class="fil23" d="M165.32 156.82c1.53,0.43 0.44,-0.57 1.44,0.9 0.75,-3.63 3.21,-4.46 4.25,-7.54 -2.73,1.44 -3.79,4.78 -5.69,6.64z"/>
   <path class="fil25" d="M191.69 333.66c2.22,0.36 0.91,-1.57 2.86,0.29l-1.31 -3.14c-1.51,1.49 -1.33,0.98 -1.55,2.85z"/>
   <path class="fil19" d="M274.72 141.5c-3.6,0.38 -1.77,0.65 -2.46,-0.79 0.59,-1.13 -0.11,-0.42 1.21,-1.07 0.63,-0.31 0.69,-0.07 1.65,-0.57l-3.26 0.07 -0.25 2.6c1.45,0.47 1.81,0.61 3.11,-0.24z"/>
   <path class="fil26" d="M284.2 140.66c1.23,-0.67 0.71,-0.62 0.8,-2.77 -1.22,-0.04 -0.53,-0.22 -1.61,0.05 -1.27,0.31 -1.03,0.4 -1.34,0.57l2.29 -0.07 -0.14 2.22z"/>
   <path class="fil6" d="M235.22 0.78c130.34,0 236,105.66 236,236 0,130.34 -105.66,236 -236,236 -130.34,0 -236,-105.66 -236,-236 0,-130.34 105.66,-236 236,-236zm0 9.52c125.08,0 226.48,101.4 226.48,226.48 0,125.08 -101.4,226.48 -226.48,226.48 -125.08,0 -226.48,-101.4 -226.48,-226.48 0,-125.08 101.4,-226.48 226.48,-226.48z"/>
  </g>
 </g>
</svg>
