<?xml version="1.0" encoding="UTF-8"?>
<!DOCTYPE svg PUBLIC "-//W3C//DTD SVG 1.1//EN" "http://www.w3.org/Graphics/SVG/1.1/DTD/svg11.dtd">
<!-- Creator: CorelDRAW 2021 (64-Bit) -->
<svg xmlns="http://www.w3.org/2000/svg" xml:space="preserve" width="2115px" height="354px" version="1.1" style="shape-rendering:geometricPrecision; text-rendering:geometricPrecision; image-rendering:optimizeQuality; fill-rule:evenodd; clip-rule:evenodd"
viewBox="0 0 2115 354.35"
 xmlns:xlink="http://www.w3.org/1999/xlink"
 xmlns:xodm="http://www.corel.com/coreldraw/odm/2003">
 <defs>
  <style type="text/css">
   <![CDATA[
    .fil0 {fill:white;fill-rule:nonzero}
   ]]>
  </style>
 </defs>
 <g id="Слой_x0020_1">
  <metadata id="CorelCorpID_0Corel-Layer"/>
  <g id="_1985356424720">
   <polygon class="fil0" points="1017.22,0.84 1017.22,58.55 1173.44,58.55 1174.07,354.76 1253.36,354.76 1253.36,58.55 1410.2,58.55 1410.2,0.84 "/>
   <polygon class="fil0" points="459.46,58.55 748.48,58.55 748.48,0.84 459.46,0.84 "/>
   <polygon class="fil0" points="-0.55,355.18 657.21,355.18 657.21,297.46 -0.55,297.46 "/>
   <polygon class="fil0" points="296.08,206.87 748.48,206.87 748.48,149.15 296.08,149.15 "/>
   <path class="fil0" d="M1655.33 250.19l-7.8 40.87 -5.97 0 -13.87 -58.27 -84.72 -230.69 -84.09 0 129.22 352.66 102.11 0 53.1 -154.49 -35.97 -111.64 -52.01 161.56zm374.94 -248.09l-78.65 230.69 -13.86 58.27 -5.98 0 -10.87 -40.87 -83.46 -248.09 -74.93 0 25.64 78.11 0.64 0 10.87 34.88 2.26 6.89 80.56 232.78 102.12 0 123.77 -316.6 6.06 -36.06 -84.17 0z"/>
  </g>
 </g>
</svg>
