<?xml version="1.0" encoding="UTF-8"?>
<!DOCTYPE svg PUBLIC "-//W3C//DTD SVG 1.1//EN" "http://www.w3.org/Graphics/SVG/1.1/DTD/svg11.dtd">
<!-- Creator: CorelDRAW 2021 (64-Bit) -->
<svg xmlns="http://www.w3.org/2000/svg" xml:space="preserve" width="1767px" height="118px" version="1.1" style="shape-rendering:geometricPrecision; text-rendering:geometricPrecision; image-rendering:optimizeQuality; fill-rule:evenodd; clip-rule:evenodd"
viewBox="0 0 1767 118.09"
 xmlns:xlink="http://www.w3.org/1999/xlink"
 xmlns:xodm="http://www.corel.com/coreldraw/odm/2003">
 <defs>
  <style type="text/css">
   <![CDATA[
    .fil2 {fill:#005FC6;fill-rule:nonzero}
    .fil1 {fill:#0096EA;fill-rule:nonzero}
    .fil3 {fill:#00C9FF;fill-rule:nonzero}
    .fil0 {fill:#041633;fill-rule:nonzero}
   ]]>
  </style>
 </defs>
 <g id="Слой_x0020_1">
  <metadata id="CorelCorpID_0Corel-Layer"/>
  <g id="_1985260127184">
   <polygon class="fil0" points="333.5,0.94 333.5,19.88 384.75,19.88 384.95,117.05 410.96,117.05 410.96,19.88 462.41,19.88 462.41,0.94 "/>
   <polygon class="fil1" points="150.53,19.88 245.34,19.88 245.34,0.95 150.53,0.95 "/>
   <polygon class="fil2" points="-0.38,117.19 215.4,117.19 215.4,98.25 -0.38,98.25 "/>
   <polygon class="fil3" points="96.93,68.53 245.34,68.53 245.34,49.6 96.93,49.6 "/>
   <path class="fil0" d="M597.45 100.88c-2.35,-0.12 -5.38,-0.72 -9.06,-1.76 -3.69,-1.07 -7.88,-2.97 -12.61,-5.7 -1.31,-0.81 -3.15,-2.11 -5.53,-3.96 -2.34,-1.84 -4.96,-3.86 -7.78,-6.12 -2.83,-2.23 -5.56,-4.28 -8.18,-6.21 -2.61,-1.91 -4.78,-3.3 -6.51,-4.22 6.72,-0.39 12.13,-1.79 16.26,-4.14 4.16,-2.37 7.34,-5.26 9.57,-8.68 2.23,-3.41 3.75,-6.89 4.52,-10.46 0.8,-3.53 1.19,-6.74 1.19,-9.66l0 -3.74c0,-3.66 -0.33,-7.55 -0.98,-11.62 -0.66,-4.08 -2.14,-7.91 -4.43,-11.54 -2.32,-3.59 -5.85,-6.54 -10.64,-8.77 -4.82,-2.23 -11.41,-3.35 -19.83,-3.35l-58.97 0 0 18.93 53.47 0c5.77,0 9.78,1.46 12.01,4.34 2.23,2.88 3.36,6.45 3.36,10.64l0 4.55c0,4.07 -1.16,7.37 -3.45,9.93 -2.32,2.58 -6.33,4.19 -12.12,4.84 -3.15,0.27 -6.69,0.48 -10.65,0.68 -3.95,0.21 -8.41,0.3 -13.4,0.3 -4.19,0 -8.74,-0.06 -13.58,-0.21 -4.79,-0.12 -9.96,-0.38 -15.64,-0.74l0 18.88 5.76 0c10.38,0 19.03,1.39 25.93,4.16 6.89,2.76 13.22,7.07 19.02,12.99l14.18 14.21c6.45,6.44 12.19,10.46 17.27,12.12 5.05,1.63 10.19,2.47 15.45,2.47 3.69,0 6.9,-0.24 9.66,-0.71 2.77,-0.45 4.73,-0.87 5.92,-1.28l3.95 -15.97c-0.41,0 -1.78,-0.06 -4.16,-0.2z"/>
   <path class="fil0" d="M661.18 72.7l27.2 -53.8 1.96 0 27.02 53.8 -56.18 0zm47.89 -71.55l-38.82 0 -57.76 115.9 28.78 0 12.8 -25.03 70.57 0 11.63 25.03 30.37 0 -57.57 -115.9z"/>
   <polygon class="fil0" points="860.66,1.36 823.21,81.17 818.1,95.38 816.31,95.38 810.99,81.17 773.95,1.36 746.34,1.36 801.33,117.05 832.87,117.05 884.32,13.19 887.47,1.36 "/>
   <path class="fil0" d="M1028.6 98.14l-97.37 0 0 -31.36 73.71 0 0 -19.5 -73.71 0 0 -27.19 96.6 0 0 -18.94 -122.61 0 0 115.9 107.63 0c8.65,0 14.77,-0.21 18.3,-0.69 3.57,-0.44 5.33,-0.95 5.33,-1.48l-7.88 -16.74z"/>
   <path class="fil0" d="M1165.78 98.14l-81.6 0 0 -96.99 -26 0 0 100.14 -1.99 15.76 93.83 0c8.68,0 14.78,-0.21 18.34,-0.69 3.54,-0.44 5.33,-0.95 5.33,-1.48l-7.91 -16.74z"/>
   <path class="fil0" d="M1318 82.75l-2.56 13.4 -1.96 0 -4.55 -19.11 -27.79 -75.68 -27.59 0 42.39 115.69 33.5 0 17.42 -50.68 -11.8 -36.62 -17.06 53zm123 -81.39l-25.81 75.68 -4.54 19.11 -1.97 0 -3.56 -13.4 -27.38 -81.39 -24.58 0 8.41 25.62 0.21 0 3.57 11.45 0.74 2.26 26.43 76.36 33.5 0 40.6 -103.86 1.99 -11.83 -27.61 0z"/>
   <path class="fil0" d="M1609.74 98.14l-97.38 0 0 -31.36 73.72 0 0 -19.5 -73.72 0 0 -27.19 96.58 0 0 -18.94 -122.61 0 0 115.9 107.62 0c8.68,0 14.78,-0.21 18.34,-0.69 3.54,-0.44 5.33,-0.95 5.33,-1.48l-7.88 -16.74z"/>
   <path class="fil0" d="M1740.62 84.14c0,4.34 -1.28,7.76 -3.87,10.26 -2.56,2.49 -6.33,3.74 -11.32,3.74l-62.1 0 0 -31.36 57.75 0c6.96,0 11.96,1.28 14.99,3.87 3.03,2.56 4.55,5.85 4.55,9.93l0 3.56zm-77.29 -64.26l54.22 0c5.76,0 9.72,1.43 11.83,4.25 2.08,2.82 3.15,5.73 3.15,8.77l0 1.96c0,3.69 -1.13,6.75 -3.36,9.15 -2.23,2.44 -5.65,3.6 -10.25,3.45l-55.59 0 0 -27.58zm98.18 42.47c-3.42,-4.51 -8.02,-7.72 -13.82,-9.56 2.64,-1.43 5.11,-3.9 7.4,-7.38 2.29,-3.48 3.45,-7.93 3.45,-13.31l0 -5.92c0,-6.96 -2.83,-12.9 -8.47,-17.83 -5.65,-4.94 -14.66,-7.41 -27.02,-7.41l-85.73 0 0 116.11 93.63 0c7.49,0 13.56,-0.98 18.22,-2.94 4.67,-2 8.3,-4.58 10.85,-7.79 2.56,-3.21 4.32,-6.81 5.24,-10.76 0.89,-3.93 1.36,-7.88 1.36,-11.8l0 -3.57c0,-7.34 -1.72,-13.29 -5.11,-17.84z"/>
  </g>
 </g>
</svg>
