<?xml version="1.0" encoding="UTF-8"?>
<!DOCTYPE svg PUBLIC "-//W3C//DTD SVG 1.1//EN" "http://www.w3.org/Graphics/SVG/1.1/DTD/svg11.dtd">
<!-- Creator: CorelDRAW 2021 (64-Bit) -->
<svg xmlns="http://www.w3.org/2000/svg" xml:space="preserve" width="59.67mm" height="10mm" version="1.1" style="shape-rendering:geometricPrecision; text-rendering:geometricPrecision; image-rendering:optimizeQuality; fill-rule:evenodd; clip-rule:evenodd"
viewBox="0 0 5967 1000"
 xmlns:xlink="http://www.w3.org/1999/xlink"
 xmlns:xodm="http://www.corel.com/coreldraw/odm/2003">
 <defs>
  <style type="text/css">
   <![CDATA[
    .fil1 {fill:#005FC6;fill-rule:nonzero}
    .fil0 {fill:#0096EA;fill-rule:nonzero}
    .fil2 {fill:#00C9FF;fill-rule:nonzero}
    .fil3 {fill:#041633;fill-rule:nonzero}
   ]]>
  </style>
 </defs>
 <g id="Слой_x0020_1">
  <metadata id="CorelCorpID_0Corel-Layer"/>
  <g id="_2956957710304">
   <polygon class="fil0" points="1291.83,171.57 2106.8,171.57 2106.8,8.83 1291.83,8.83 "/>
   <polygon class="fil1" points="-5.24,1008 1849.44,1008 1849.44,845.25 -5.24,845.25 "/>
   <polygon class="fil2" points="831.17,589.77 2106.8,589.77 2106.8,427.03 831.17,427.03 "/>
   <polygon class="fil3" points="2865.84,8 2865.84,170.39 3305.36,170.39 3307.15,1003.78 3530.2,1003.78 3530.2,170.39 3971.49,170.39 3971.49,8 "/>
   <path class="fil3" d="M4670 709.6l-21.92 114.96 -16.83 0 -38.98 -163.92 -238.4 -649.07 -236.58 0 363.57 992.22 287.3 0 149.39 -434.67 -101.22 -314.1 -146.33 454.58zm1054.96 -698.03l-221.31 649.07 -38.99 163.92 -16.83 0 -30.59 -114.96 -234.8 -698.03 -210.85 0 72.16 219.75 1.79 0 30.58 98.15 6.38 19.39 226.63 654.93 287.33 0 348.25 -890.77 17.06 -101.45 -236.81 0z"/>
  </g>
 </g>
</svg>
