<?xml version="1.0" encoding="UTF-8"?>
<!DOCTYPE svg PUBLIC "-//W3C//DTD SVG 1.1//EN" "http://www.w3.org/Graphics/SVG/1.1/DTD/svg11.dtd">
<!-- Creator: CorelDRAW 2021 (64-Bit) -->
<svg xmlns="http://www.w3.org/2000/svg" xml:space="preserve" width="591px" height="117px" version="1.1" style="shape-rendering:geometricPrecision; text-rendering:geometricPrecision; image-rendering:optimizeQuality; fill-rule:evenodd; clip-rule:evenodd"
viewBox="0 0 591 116.86"
 xmlns:xlink="http://www.w3.org/1999/xlink"
 xmlns:xodm="http://www.corel.com/coreldraw/odm/2003">
 <defs>
  <style type="text/css">
   <![CDATA[
    .fil2 {fill:#69C931;fill-rule:nonzero}
    .fil1 {fill:#F39130;fill-rule:nonzero}
    .fil0 {fill:white;fill-rule:nonzero}
   ]]>
  </style>
 </defs>
 <g id="Слой_x0020_1">
  <metadata id="CorelCorpID_0Corel-Layer"/>
  <g id="_2000586890848">
   <polygon class="fil0" points="57.43,110.53 49.74,110.53 89.79,24.47 107.28,24.47 62.39,117.47 44.16,117.47 -0.72,24.47 16.88,24.47 "/>
   <path class="fil0" d="M206.5 32.04l16.37 0 0 85.43 -16.37 0 0 -85.43zm-38.44 -7.57l93.25 0 0 14.39 -93.25 0 0 -14.39z"/>
   <path class="fil0" d="M268.22 82.63l64.98 0 0 13.52 -64.98 0 0 -13.52zm43.16 -58.16l44.64 93 -17.49 0 -40.55 -86.8 6.33 0 -40.55 86.8 -17.48 0 44.64 -93 20.46 0z"/>
   <polygon class="fil0" points="131.09,117.48 147.48,117.48 147.48,64.35 131.09,64.35 "/>
   <polygon class="fil1" points="159.33,56.71 117.6,56.71 122.21,47.11 131.2,28.38 145.73,28.38 154.72,47.11 "/>
   <polygon class="fil0" points="167.84,103.62 109.09,103.62 115.57,90.1 128.23,63.74 148.69,63.74 161.35,90.1 "/>
   <path class="fil0" d="M442.8 77.79l-64.98 0 0 -13.64 64.98 0 0 13.64zm-54.19 -6.82l-6.57 41.54 -7.81 -9.17 72.17 0 0 14.13 -81.1 0 7.44 -46.5 -7.44 -46.5 80.47 0 0 14.14 -71.54 0 7.81 -9.18 6.57 41.54z"/>
   <polygon class="fil0" points="590.28,24.47 590.28,117.47 574.65,117.47 574.65,29.43 579.74,29.68 536.46,117.47 518.98,117.47 475.7,29.81 480.79,29.56 480.79,117.47 465.16,117.47 465.16,24.47 490.21,24.47 531.87,110.4 523.69,110.4 565.23,24.47 "/>
   <polygon class="fil2" points="147.94,21.18 128.98,21.18 138.8,0.61 "/>
  </g>
 </g>
</svg>
